<?xml version="1.0" encoding="UTF-8"?>
<svg width="63px" height="60px" viewBox="0 0 63 60" version="1.1" xmlns="http://www.w3.org/2000/svg" xmlns:xlink="http://www.w3.org/1999/xlink">
    <!-- Generator: Sketch 49 (51002) - http://www.bohemiancoding.com/sketch -->
    <title>Page 1</title>
    <desc>Created with Sketch.</desc>
    <defs>
        <polygon id="path-1" points="0.0106151805 0.122156888 6.26323157 0.122156888 6.26323157 6.30541872 0.0106151805 6.30541872"></polygon>
    </defs>
    <g id="Page-1" stroke="none" stroke-width="1" fill="none" fill-rule="evenodd">
        <g id="Desktop-HD" transform="translate(-111.000000, -822.000000)">
            <g id="Page-1" transform="translate(111.000000, 822.000000)">
                <path d="M60.446358,16.0476193 C61.165682,16.6630238 61.4495825,17.5388342 61.8106929,18.3434245 C62.7431312,20.4207973 63.1111691,22.6215201 62.9712341,24.8797574 C62.853593,26.7766327 62.3345361,28.5890719 61.4954298,30.3104669 C61.3839604,30.5394234 61.3199757,30.7851446 60.9909836,30.4700389 C60.7491517,30.2383903 60.4718008,30.3539087 60.2987398,30.6073394 C60.1074155,30.8874469 60.2229154,31.1562964 60.4996366,31.270591 C61.1559835,31.5417655 60.5832702,31.8249324 60.5114763,32.070776 C60.4341405,32.3354648 60.320278,32.7024559 59.8744004,32.3683827 C59.7636868,32.2852926 59.5505724,32.3205355 59.384313,32.3196789 C58.5875273,32.3158854 57.7907416,32.3228606 56.9940819,32.3163749 C56.6179829,32.3133156 56.2158114,32.322983 56.2028382,32.792154 C56.1898649,33.2626711 56.58196,33.3003614 56.9648605,33.2979139 C57.8035889,33.2925296 58.6425693,33.3089274 59.4809198,33.2906941 C59.853618,33.2824952 59.9589156,33.3784342 59.8434157,33.7443239 C59.2107482,35.7481516 59.4959083,37.7518569 59.8910264,39.7489542 C59.9995988,40.2980335 59.9357401,40.8433194 59.9488393,41.3903185 C59.6761487,41.4284983 59.5363396,41.2267082 59.3712138,41.0803523 C58.1863635,40.0313868 56.6744104,40.0394633 55.4862852,41.105316 C55.3329991,41.2427388 55.1916786,41.3970489 54.9747856,41.4431828 C54.6630492,41.4552975 54.4545951,41.2185094 54.18329,41.1313811 C53.9972558,41.0715416 53.8051758,41.034096 53.6847636,41.2243832 C53.5407981,41.4517488 53.7025232,41.5936993 53.8739467,41.7237799 C54.100916,41.8958337 54.4267593,41.9026865 54.6130454,42.1431458 C54.6529729,42.7824127 54.5185798,43.421802 54.7714957,44.0602123 C55.2870258,45.3613848 56.8025057,46.1323231 58.1827108,45.7554199 C58.5167411,45.6641311 58.8223058,45.4383563 59.1997902,45.5263411 C58.6176303,47.3559123 57.6408562,48.9630127 56.3810632,50.4335468 C54.6551141,52.4480208 52.4475164,53.7662029 49.9448083,54.5951451 C47.4796345,55.4114831 44.9265447,55.6245313 42.3640084,55.018794 C41.2882343,54.7645068 40.2054069,54.5157262 39.1097321,54.4989614 C37.4263554,54.4731411 35.7973909,54.8239792 34.2827928,55.5774184 C34.207976,55.6146192 34.1800142,55.7406615 34.1302623,55.82522 C34.0863044,55.831828 34.0303807,55.8346425 34.0133769,55.8053958 C33.4406636,54.8218989 32.5696909,54.2104102 31.4751497,53.8754803 C31.4046154,53.6244971 31.5993405,53.4102252 31.5793138,53.164871 C31.559413,52.9224538 31.5779283,52.614568 31.232814,52.6263156 C30.8987837,52.6375737 30.9214555,52.9420332 30.9052074,53.1860412 C30.8889593,53.4282138 31.0996805,53.6422409 30.9921157,53.8939584 C30.3870322,54.1941348 29.7209869,54.3417144 29.2113765,54.8633827 C28.4547702,55.6378697 28.2626902,56.49716 28.4749229,57.4990126 C28.5279495,57.7497511 28.7103311,57.9861722 28.5863923,58.2621191 C27.0374086,58.7859901 25.4243144,58.8399557 23.8238155,58.7256611 C21.9421871,58.5911752 20.1342418,58.103159 18.4455751,57.247907 C15.2214018,55.6147416 12.926518,53.1641368 11.5579006,49.8922992 C11.4949236,49.7417827 11.4130534,49.5987308 11.34,49.4521302 C11.5796907,49.2212158 11.8880263,49.2819119 12.1736902,49.2808106 C13.9767233,49.2742025 15.7801342,49.2559692 17.5826635,49.2836251 C19.3399752,49.3106691 20.7477643,48.6853525 21.860065,47.3564018 C23.0447893,45.9406899 23.0877397,43.3319816 21.8993627,41.8074817 C21.5319545,41.3359857 21.149306,40.884069 20.6070735,40.5750818 C20.4496309,40.4855061 20.0575358,40.3677851 20.4022722,40.0443581 C20.6214323,39.9527021 20.8536917,39.9540482 21.0840617,39.9536811 C24.0418421,39.9498876 26.9997484,39.9497652 29.9576546,39.9536811 C30.1672423,39.9539258 30.3775856,39.9569851 30.5792382,40.0190273 C30.8126311,40.0918381 30.8574708,40.286653 30.9029402,40.4873417 C30.9414822,40.6576824 30.9432455,40.8779504 31.1954057,40.8839466 C31.4605391,40.8901875 31.5181001,40.6761604 31.5742756,40.4798771 C31.6239015,40.3062324 31.6543824,40.1226757 31.8556571,40.0390962 C33.2545034,39.9132986 34.6522162,39.8895586 36.0489213,40.0479069 C36.3349631,40.2511654 36.1422533,40.4680071 36.0214633,40.6261106 C35.4340133,41.395458 35.1844982,42.261234 35.1945746,43.2042261 C35.1997387,43.687225 34.8575214,43.8505905 34.4898613,44.0337802 C33.0187173,44.7664163 32.3641338,46.2192066 32.8363358,47.6648995 C33.2543775,48.9444123 34.4183194,49.7549988 35.901429,49.7623411 C38.3763013,49.7747005 40.8512995,49.7661346 43.3261718,49.7658898 C45.5283534,49.7656451 47.7310389,49.7919549 49.9328427,49.7586699 C52.8787833,49.7140045 54.7900109,46.8548024 53.6580614,44.2257805 C53.2963212,43.3857025 52.6569781,42.786451 51.894326,42.2857082 C51.2112769,41.8372179 51.0826777,41.1089872 51.5713796,40.5974757 C52.0102038,40.2171462 52.012219,40.0827827 51.562185,39.7928854 C51.320605,39.6372293 51.0513151,39.5274624 50.7967619,39.3926093 C50.6253383,39.2867583 50.3511362,39.3007086 50.3304798,39.0180312 C50.423182,38.7233615 50.6982658,38.5805544 50.9031931,38.3837815 C54.1349236,35.2816728 52.8309207,30.0960727 48.4889048,28.7968581 C47.5806497,28.5250718 47.6101229,28.5271521 47.6762488,27.6403283 C47.9911341,23.4132615 45.1135866,19.596138 40.6273531,18.881001 C38.9599726,18.6152109 37.3669051,18.8170009 35.8311466,19.4824552 C35.5008949,19.6255071 35.1947005,19.6939126 34.9125633,19.3985086 C34.0203044,18.4646943 32.9901258,17.6996299 31.8647258,17.0510628 C31.773661,16.9985655 31.7062755,16.9184124 31.6579091,16.8258998 C31.5597909,16.5953526 31.6023634,16.3481628 31.5716306,16.109172 C31.5474474,15.9216994 31.5005925,15.7359399 31.2690888,15.7075498 C31.0670584,15.6828309 30.9738524,15.8309 30.9141501,15.9883916 C30.8315242,16.2065794 30.736177,16.4029851 30.4508909,16.4083694 C29.846941,16.2543042 29.199033,16.2306865 28.6753159,15.8406897 C28.5278236,15.5983948 28.5692625,15.3280769 28.5560373,15.0658355 C28.4866366,13.6950338 27.9266446,12.568485 26.70426,11.8477189 C26.1750008,11.5356724 26.1222261,11.0755569 26.0700811,10.6023476 C25.902814,9.08396631 25.0518681,8.00134869 23.7997583,7.17730133 C21.9476031,5.95860699 19.0545632,6.37956377 17.6249841,8.05727231 C17.5714536,8.12004871 17.5222055,8.18600677 17.4710681,8.25061874 C16.7390229,9.17378673 16.5095345,9.22236808 15.3685162,8.695805 C16.3014583,7.11672761 17.4976445,5.76379212 18.9070709,4.55598881 C20.2695165,3.38832325 21.7562788,2.42587411 23.3926746,1.69482882 C25.3141045,0.836272798 27.3177825,0.222703825 29.4567351,0.131904427 C29.8504677,0.11526195 30.2290857,-0.0649907619 30.6336503,0.0250744085 C30.618032,0.241059498 30.423307,0.251216304 30.2774521,0.314115078 C28.0622972,1.26934432 27.7188204,3.70930279 29.5792885,5.20418882 C29.9997233,5.54193321 30.5616046,5.5508663 30.9921157,5.8470045 C31.0971615,6.13616754 30.8526845,6.39008769 30.9044517,6.67680331 C30.9414822,6.88189736 30.9616348,7.1129341 31.23294,7.120154 C31.5060085,7.1273739 31.5406459,6.90110963 31.5784321,6.69393527 C31.6312069,6.40477223 31.4073864,6.14962837 31.4790543,5.85997584 C31.6361191,5.71031592 31.847722,5.67372694 32.0430768,5.6051991 C33.2489614,5.18203964 34.0465029,4.20551782 34.1005372,3.08325195 C34.1548234,1.95707021 33.4576674,0.893787241 32.3243323,0.360004261 C32.1478706,0.276914246 31.8923097,0.2911093 31.8446991,0.028623172 C34.3431248,0.045143278 36.7089208,0.652471323 38.9694192,1.63327613 C41.102452,2.55876918 42.985214,3.85553632 44.5989381,5.50742454 C44.5364648,5.75106551 44.3176825,5.85214409 44.1329079,5.9797772 C43.2271719,6.60521618 42.5387067,7.36110281 42.4805159,8.50980084 C42.4645197,8.82539605 42.2461153,9.01225681 42.0070544,9.19324375 C40.9456391,9.9969775 40.5830173,11.119121 40.998162,12.2811575 C41.3806846,13.3517827 42.3927259,14.0264149 43.685141,14.0333901 C45.9486623,14.0457495 48.2123095,14.0450153 50.4758308,14.0341243 C52.0817457,14.0264149 53.2699968,12.8038047 53.2398937,11.2443067 C53.233722,10.9301799 53.0515923,10.6022252 53.2795693,10.2959302 C55.2750602,11.0235491 57.0268299,12.1162012 58.5148518,13.6016646 C58.6288403,13.7153474 58.7177639,13.8526479 58.8184012,13.9789349 C58.5931952,14.1212525 58.3667298,14.0200516 58.1516001,13.964128 C56.195029,13.4557982 54.3118891,15.1652009 54.6109042,17.0415178 C54.6394958,17.221281 54.6906331,17.4023903 54.6189653,17.5839891 C54.4598852,17.828242 54.1457557,17.8273854 53.9342787,17.9908732 C53.7517712,18.1320895 53.645214,18.3084264 53.7731834,18.5191495 C53.9014047,18.7302397 54.0987748,18.6344231 54.2754884,18.5672414 C54.5063623,18.4795013 54.6934041,18.2865219 54.965591,18.2960669 C55.2064152,18.3424456 55.3586937,18.5149889 55.5248272,18.6669739 C56.3655709,19.4357095 57.3439824,19.6430062 58.410058,19.2384472 C59.5085037,18.821651 60.1361331,18.0080052 60.2909307,16.8624888 C60.3279612,16.5883774 60.2290872,16.2894247 60.446358,16.0476193" id="Fill-1" fill="#DEEBFD"></path>
                <path d="M2.15764492,40.4081633 C1.90456482,39.8741067 1.64429709,39.3431208 1.3994134,38.8055022 C0.166420255,36.0991078 -0.332426226,33.2993641 0.230100102,30.3523495 C0.329339784,29.8322953 0.277134919,29.17234 0.630337395,28.8523727 C0.997410728,28.5196314 1.67355199,28.7663931 2.21363275,28.7424416 C2.63303704,28.7237717 3.05395453,28.7402307 3.47411541,28.7355632 C3.78885778,28.732124 4.01936622,28.5859586 4.0308412,28.2729926 C4.04357717,27.9248978 3.80398963,27.7627647 3.46188384,27.7592027 C2.87375947,27.7530613 2.28424802,27.7778725 1.69763684,27.7480253 C1.47305505,27.7364795 1.03334886,27.9400056 1.07458314,27.505317 C1.10484683,27.1854726 1.23611558,26.7569254 1.76144279,26.7719104 C2.13936061,26.7827193 2.51778283,26.770068 2.89595285,26.7727702 C3.26012591,26.7754724 3.54094773,26.6445376 3.52480709,26.2575063 C3.51043184,25.9122365 3.24209379,25.7864605 2.90541025,25.7906367 C2.61311345,25.7941987 2.32069055,25.7913737 2.01918854,25.7913737 C2.23418684,24.9818136 2.44741975,24.8094858 3.20741665,24.8087489 C4.57306564,24.8072749 5.93884072,24.8033444 7.30448971,24.8088717 C7.69186493,24.8103456 8.0749528,24.770795 8.06158634,24.297047 C8.04948086,23.8720618 7.68946906,23.8214566 7.32365671,23.8231762 C6.02244416,23.8294404 4.72123162,23.8256327 3.27172699,23.8256327 C4.10196087,22.9614142 4.84808692,22.1959495 5.75183634,21.5686664 C6.94750427,20.7387169 8.33761641,20.2105561 9.46166027,19.2797647 C10.0779047,18.769414 10.7308438,18.2833832 11.1162014,17.5584517 C11.4315743,17.5068639 11.6150479,17.7352014 11.8190756,17.8931583 C12.5858818,18.4869094 13.445875,18.7641324 14.429571,18.7400581 C15.492457,18.7141413 16.556604,18.7294949 17.6201205,18.7373559 C17.9059862,18.7394439 18.2115234,18.6924008 18.4450582,18.9247915 C18.5497201,19.1561997 18.3978973,19.3153849 18.2706637,19.4744473 C17.0761306,20.9675457 16.2209292,22.6108628 15.9351895,24.5024156 C15.8652048,24.9653547 15.5009056,25.122329 15.1434158,25.2962536 C13.2906475,26.1980575 12.003558,27.6028425 11.2940006,29.488868 C10.8568164,30.6511903 10.617481,31.8524491 10.8496287,33.1017337 C10.894646,33.3437051 10.9250358,33.5908352 10.7546764,33.8088551 C10.5014702,33.9786035 10.2319973,33.8950804 9.96391142,33.8600744 C6.59014054,33.418753 3.36390514,36.0505907 3.20880374,39.3695288 C3.17261341,40.1442057 2.94614013,40.3679985 2.15764492,40.4081633" id="Fill-3" fill="#DEEBFD"></path>
                <path d="M2.12703573,40.5355782 C2.82292595,40.3408726 2.94396656,39.8903965 3.03440492,39.203899 C3.347145,36.8293883 4.69625643,35.1637899 6.99888923,34.2350918 C8.18068348,33.758445 9.37541527,33.8491945 10.5870654,33.9916796 C11.0544339,34.2436942 11.0006934,34.673573 10.9832775,35.0910934 C10.6620782,35.3011863 10.3395106,35.129986 10.0268949,35.0753424 C7.33215521,34.6046325 4.73332745,36.3574668 4.24008385,38.9695739 C4.16308063,39.3777649 4.20649602,39.5643526 4.69737603,39.5430283 C5.10926243,39.5250965 5.56095663,39.5655642 5.5257516,40.1640989 C5.38990746,40.3171251 5.20032278,40.3248794 5.01820207,40.3231832 C3.87546923,40.312521 3.09722661,40.8891256 2.51279826,41.7836563 C2.41439834,41.9342592 2.33403633,42.0986745 2.17132192,42.1998438 C1.32416204,42.9676403 1.06342091,43.9492856 1.24541722,45.0072623 C1.58938155,47.0062955 3.11650852,48.2306261 5.20032278,48.2363206 C9.03169974,48.2467405 12.8630767,48.2400766 16.6944537,48.2385015 C17.3145847,48.2382592 17.9337204,48.25922 18.5497462,48.1283663 C20.1445465,47.7893582 21.4186451,46.4089724 21.47873,44.9269327 C21.5582212,42.9646113 20.5876571,41.5158907 18.8537784,41.004713 C18.4953837,40.8990608 18.1153436,40.8835522 17.7620493,40.7781422 C17.3918367,40.6676435 16.9952514,40.5115883 17.2533801,39.9881734 C18.0178144,39.9469787 18.7816267,39.9953218 19.5455634,39.9987143 C19.7305453,39.9995625 19.9202544,40.0257332 20.0447782,40.1922083 C21.3040732,40.8865812 22.2050981,41.889672 22.5138574,43.2699366 C22.8793428,44.9029428 22.6934901,46.4250868 21.4343194,47.7503444 C20.3052705,48.9386902 18.9523027,49.3960725 17.3490433,49.3843199 C15.3015536,49.3691748 13.2539396,49.3815332 11.20645,49.382139 C9.19677774,49.3812909 7.18648352,49.3491832 5.17755769,49.3867431 C2.02851141,49.4457484 -0.262303443,46.9160307 0.024188363,44.0228303 C0.167620865,42.5747156 0.938026317,41.4190832 2.12703573,40.5355782" id="Fill-5" fill="#D2D2E4"></path>
                <path d="M18.3208385,19.1836735 C18.1594358,18.9965551 17.93849,19.0627567 17.7403879,19.0612746 C16.8114172,19.054111 15.8772037,18.9963081 14.9542248,19.0706614 C13.4351917,19.1930603 12.1582003,18.7505223 11.0851781,17.6951256 C10.0313793,16.2377024 9.6950924,14.7070375 10.616823,13.0568145 C10.9732073,12.4187595 11.4805086,11.9179247 12.1128877,11.5447996 C12.3896316,11.3815188 12.5442936,11.1962531 12.6044608,10.8377023 C12.8152954,9.57900741 13.9414945,8.66799438 15.3200959,8.55411775 C15.5273106,8.56066381 15.7805868,8.49335061 15.9340005,8.58672451 C16.6023301,8.99332089 16.9027913,8.55275914 17.2122402,8.10009337 C18.1405867,6.74197254 19.5469,6.15221017 21.0895256,6.12330873 C23.5721067,6.07674529 25.7733253,7.92717875 26.0530651,10.3066074 C26.1295847,10.9582485 26.3404193,11.4172133 26.9536998,11.8202279 C28.0045027,12.5107748 28.4818453,13.6102647 28.5522483,14.861549 C28.5683512,15.1482168 28.5543704,15.4364901 28.5543704,15.724146 C28.2078476,15.9833944 27.8801739,15.8819923 27.5581174,15.6743713 C27.373247,15.4718141 27.397963,15.216271 27.3878519,14.9727084 C27.3299316,13.5711119 26.4099486,12.3614507 24.9759235,12.164822 C24.7916772,12.1396259 24.6100523,12.088122 24.4289267,12.0415586 C24.1279662,11.9642411 23.8660769,11.8187458 23.8572141,11.4784745 C23.8481016,11.123135 24.0935137,10.8422722 24.4093287,10.8290566 C25.0776584,10.8008962 24.9584475,10.4235718 24.8459774,10.0351315 C24.4110763,8.53299747 23.4221882,7.56677527 21.8715736,7.2914705 C20.2821375,7.00937265 18.9741887,7.5540537 17.9936641,8.85128388 C17.6674882,9.28270585 17.9198906,9.62087745 18.0877844,9.99066771 C18.2322105,10.3090776 18.2044987,10.6037735 17.8860622,10.8023783 C17.5832293,10.9913493 17.2917557,10.9428097 17.038854,10.6899838 C16.9363701,10.5875937 16.8472428,10.4733465 16.7511252,10.3652749 C16.207374,9.75352766 15.550279,9.59580483 14.77984,9.87728512 C14.5611411,9.95719638 14.3684066,10.076384 14.2052562,10.2380591 C13.9942968,10.4470388 13.9035467,10.6498429 14.2731627,10.7938561 C14.6351642,10.9350286 14.8870673,11.1583354 14.8089249,11.5833349 C14.7327798,11.9974654 14.3727755,12.0326659 14.0484722,12.1025728 C13.6224339,12.194341 13.1919018,12.2617777 12.804685,12.4854551 C11.6575149,13.1479652 11.125872,14.3661487 11.4338229,15.6504102 C11.7260455,16.8687172 12.7071943,17.6716586 14.0090265,17.788376 C15.6636229,17.9365885 17.3177199,17.9007705 18.9729404,17.8172774 C19.1629288,17.8076436 19.3504206,17.8027032 19.4792432,17.9791996 C19.3562875,18.628247 18.9348679,18.9966787 18.3208385,19.1836735" id="Fill-7" fill="#D2D2E4"></path>
                <path d="M53.1969424,10.3009054 C53.4809626,11.4948339 53.3991578,12.6126415 52.4253212,13.4866633 C51.8809906,13.9752299 51.2568414,14.2937684 50.4757859,14.2855593 C48.2223689,14.261927 45.9685795,14.2772258 43.7149142,14.2773502 C42.4544506,14.2774746 41.5223232,13.7093044 41.0077849,12.5693571 C40.4900191,11.4219469 40.7557915,10.3490407 41.5236887,9.38894753 C41.6228723,9.26494017 41.7739442,9.17153041 41.9179404,9.09652896 C42.2881101,8.90386356 42.3954866,8.62276362 42.4175826,8.19899923 C42.4697191,7.19450227 43.1206814,6.51836984 43.857545,5.92818434 C44.0971249,5.73626522 44.3790348,5.59720781 44.6415797,5.43389621 C46.3046121,5.09346676 47.7470572,5.38688037 48.7695546,6.87981959 C48.8801586,7.04138986 49.0143482,6.95830369 49.1544963,6.94972143 C50.6007895,6.86153565 51.2116563,7.25768756 51.7168845,8.61293756 C51.7623178,8.73495483 51.8109786,8.83520552 51.9194723,8.90709745 C52.4599548,9.26593521 52.862896,9.75188985 53.1969424,10.3009054" id="Fill-9" fill="#D2D2E4"></path>
                <path d="M54.3061453,17.9475199 C54.0547767,16.8464219 54.134357,15.8126782 54.9572572,14.9280309 C56.0348145,13.7693824 57.3412475,13.6666319 58.7755352,14.1491899 C59.593437,14.6807677 60.1989053,15.3695906 60.4756607,16.3016024 C60.5460334,18.2571719 59.7610161,19.4692966 58.0789113,19.8940495 C56.6907933,20.2445725 55.6070537,19.6951694 54.716017,18.6912195 C54.3853311,18.5435236 54.2406395,18.2998255 54.3061453,17.9475199" id="Fill-11" fill="#6D6DA9"></path>
                <g id="Group-15" transform="translate(28.140000, 53.469388)">
                    <mask id="mask-2" fill="white">
                        <use xlink:href="#path-1"></use>
                    </mask>
                    <g id="Clip-14"></g>
                    <path d="M3.43835625,0.233212217 C4.7578125,0.408881182 5.64125625,1.12404177 6.17360625,2.27364571 C6.5533125,4.29793734 5.71528125,5.78147626 3.87331875,6.20961419 C2.37838125,6.55691665 1.25750625,5.93230187 0.3966375,4.78496788 C-0.74326875,2.53305064 0.8066625,0.432085123 2.8875,0.231572808 C3.0715125,0.0852870936 3.25513125,0.0855393103 3.43835625,0.233212217" id="Fill-13" fill="#6D6DA9" mask="url(#mask-2)"></path>
                </g>
                <path d="M31.0189444,6.00954561 C28.8274945,5.72703971 27.7315075,3.78921213 28.2797631,2.10670473 C28.6484562,0.975177782 29.5152061,0.339758754 30.6599503,0 C31.0800219,0.00125279777 31.5000935,0.00250559553 31.9201651,0.00363311352 C33.3498502,0.438353939 34.2953717,1.29865017 34.4274878,2.77807905 C34.5720553,4.39606736 33.45418,5.63145124 31.5761127,6.01768879 C31.3880307,6.15912966 31.202308,6.1582527 31.0189444,6.00954561" id="Fill-16" fill="#6D6DA9"></path>
                <path d="M7.87186584,18.6966198 C6.9411633,19.7296861 5.82828964,20.2684946 4.38892747,19.866393 C2.73348354,19.4038298 1.77005328,17.7795126 2.20379405,16.2068742 C2.66027335,14.5521352 4.3096712,13.5694748 5.96682381,13.9648302 C7.69087765,14.3762237 8.70714541,15.9688463 8.31677872,17.643824 C8.29312013,17.7455268 8.29128002,17.8520665 8.27931929,17.9564424 C8.29259438,18.2801348 8.22897907,18.5641134 7.87186584,18.6966198" id="Fill-18" fill="#6D6DA8"></path>
                <path d="M59.1522665,45.6082397 C57.3815052,46.456669 56.0005834,46.2625131 54.8803833,44.9712811 C54.1344553,44.1113934 54.0540018,43.1071302 54.3156391,42.0511769 C54.3043887,41.7289418 54.3602483,41.4419731 54.7234009,41.3165675 C55.9854085,39.7289454 58.2859854,39.4051825 59.9302451,41.3051091 C60.839958,43.0694448 60.647393,44.1341829 59.1522665,45.6082397" id="Fill-20" fill="#6D6DA9"></path>
                <path d="M7.56,18.26885 C7.70720424,18.0306667 7.85440848,17.7923606 8.00175522,17.5541773 C8.36014696,17.5250497 8.63845275,17.7033798 8.91675854,17.8461915 C9.20860199,17.9960085 9.35438121,18.2322253 9.13236359,18.5157592 C8.93585376,18.7668472 8.66909061,18.8596378 8.34019672,18.6876985 C8.07827863,18.5506633 7.81992307,18.4085891 7.56,18.26885" id="Fill-22" fill="#B5B5D3"></path>
                <path d="M27.4983858,15.6804577 C27.8243668,15.7911558 28.1597294,15.8349201 28.5038482,15.818248 C29.0858856,15.9849694 29.6677979,16.1515682 30.2498353,16.3182896 C30.7202936,16.3441559 31.1808699,16.3944175 31.4925908,16.8076659 C32.6975695,17.5036051 33.8480096,18.2715043 34.7527757,19.3342306 C35.0069557,19.6327354 35.2106,19.4703046 35.4557737,19.3689233 C38.4512711,18.1305266 41.3348141,18.3619751 43.966929,20.2227575 C46.6473281,22.1177423 47.7795052,24.76518 47.4370126,27.9963877 C47.4039892,28.3077644 47.3630852,28.4877254 47.7930148,28.5918037 C50.2121038,29.1776578 51.7850933,30.6754534 52.3333567,33.0540528 C52.8709876,35.3863135 52.0889335,37.3485997 50.259012,38.9157808 C50.1812069,38.9824694 50.1035268,39.0490354 50.0258468,39.1157239 C49.8233283,39.5637877 49.3326056,39.6193206 48.9757278,39.8583697 C48.2600958,40.167785 47.5150679,40.3555917 46.7306371,40.3826839 C46.5171108,40.3741027 46.3039598,40.4037693 46.0904335,40.3870971 C45.4950117,40.3976398 44.8997149,40.4004594 44.3044181,40.3969043 C44.0805095,40.3676054 43.8556001,40.4073244 43.6315664,40.3915104 C43.2924511,40.3906522 42.9533359,40.3828065 42.6140955,40.3970269 C42.1121148,40.4217899 41.6101342,40.368341 41.1081535,40.4018079 C39.8736539,40.4062211 38.6394044,40.413699 37.4050298,40.4015627 C36.8972951,40.3254347 36.3546606,40.5476891 35.8750708,40.2311636 C34.4242929,40.2303055 32.9733899,40.2293248 31.522612,40.228344 C31.1787434,40.4429978 30.8358755,40.4464303 30.4938832,40.2240534 C27.0388102,40.2267504 23.5836122,40.2295699 20.1285392,40.2322669 C19.1679837,40.1592037 18.1980464,40.3028783 17.2424944,40.1124972 C17.0123313,40.2930712 16.766282,40.1964708 16.5314907,40.1377506 C15.7659483,39.9462662 15.0414349,39.6537682 14.3627041,39.2558434 C13.9183893,39.0528356 13.5618867,38.7255223 13.17136,38.4458962 C12.349903,37.7085218 11.6900605,36.8492937 11.1825759,35.8796126 C11.0521085,35.6303887 10.8894932,35.379571 10.9627952,35.0726075 C10.8387073,34.7039816 10.8196938,34.3043406 10.6184262,33.9587615 C10.388138,32.4205115 10.4693205,30.9189156 11.0791276,29.4571613 C11.8444198,27.6233486 13.0975577,26.2346574 14.9168467,25.3710161 C15.3755467,25.1532976 15.5703097,24.9034607 15.6637509,24.3917731 C16.0190026,22.4462815 16.9430322,20.7509946 18.2489575,19.2519732 C18.6240983,18.884328 18.9992391,18.5168054 19.3743799,18.1491602 C19.6993601,17.5485954 20.3296817,17.3131014 20.8730667,16.9962082 C22.6896038,15.9371596 24.657498,15.4157875 26.783004,15.524279 C27.0310547,15.5369056 27.2877366,15.5055228 27.4983858,15.6804577" id="Fill-24" fill="#6D6DA9"></path>
                <path d="M49.3581663,39.7636159 C49.6992457,39.5702621 50.040452,39.3770273 50.3816583,39.1836735 C50.5500409,39.2570884 50.7185504,39.3305034 50.886933,39.4039183 C50.770702,39.6084569 50.3295067,39.5042244 50.3762021,39.8372689 C50.4160454,40.1208148 50.7114446,40.2125538 50.9389577,40.3499837 C51.2025076,40.5091883 51.5467592,40.5091883 51.7750337,40.7325268 C51.2577046,41.0524828 51.3272401,41.8244702 51.9119477,42.1531122 C53.4515,43.0187424 54.3114313,44.2803612 54.1636048,45.970809 C53.9675603,48.2128804 52.5304079,49.6738024 50.1467856,49.7307972 C45.2655939,49.8474044 40.3791997,49.7748223 35.4949627,49.7600679 C34.0033746,49.7555464 32.7830767,48.7254763 32.4096404,47.2373063 C32.101933,46.0109076 32.8396695,44.5090541 34.1144031,43.962904 C34.7105308,43.7074389 34.9535245,43.4186576 34.9154576,42.7836241 C34.8569614,41.8055513 35.4343094,41.0205943 36.0271379,40.2664549 C36.5386302,40.2645511 37.0501224,40.2625283 37.5614878,40.2606245 C37.5553971,40.5657071 37.2690071,40.6807675 37.0819717,40.8511568 C36.4920617,41.3886209 36.2054179,42.0512594 36.0942626,42.7979026 C36.0367815,43.1847292 36.1578343,43.4491182 36.5992834,43.5540647 C36.9904843,43.6469936 37.3544038,43.8133373 37.6742927,44.0472657 C38.0006529,44.2859536 38.2084982,44.601388 37.9973538,44.9767919 C37.7845598,45.3552894 37.4169604,45.3023402 37.0600198,45.14028 C36.8443074,45.0259335 36.657272,44.8617315 36.4059036,44.8084253 C34.5819915,44.4195759 33.479701,45.3098364 33.5616717,47.1080864 C34.0021057,48.2152602 34.6382036,48.6311196 35.9779047,48.6344512 C39.6724243,48.6437322 43.3669438,48.6373069 47.0615902,48.6377829 C47.842723,48.6379019 48.6246171,48.6162462 49.4048617,48.6420664 C51.2276317,48.7022738 52.6490498,47.8015425 52.9639899,46.0218544 C53.0392355,45.4948612 52.9359473,44.9934501 52.7126215,44.510006 C52.6278592,44.3285509 52.5488069,44.1438831 52.4089745,43.9906279 C52.2428759,43.8140513 52.0789345,43.6356898 51.8350526,43.4762473 C51.6270804,43.7785931 51.6958546,44.1156832 51.5763245,44.4020849 C51.4555256,44.6912232 51.3063033,44.9566831 50.9364199,44.9838121 C50.5655214,45.0110601 50.3514586,44.8093772 50.2482973,44.4887074 C50.1871365,44.2032576 50.3229084,43.9418433 50.3581837,43.6682922 C50.5346873,43.1195243 50.4292419,42.5758729 50.3241773,42.0326974 C50.2707568,41.8050753 50.2301521,41.5741216 50.1389184,41.3554236 C49.9768803,40.9765691 49.7796937,40.6169905 49.5189355,40.2871586 C49.3996592,40.1361641 49.2492949,39.9814811 49.3581663,39.7636159" id="Fill-26" fill="#D2D2E4"></path>
                <path d="M56.763786,34.286756 C57.3743793,34.286756 57.9849726,34.2891002 58.5955658,34.2858387 C58.932388,34.2840041 59.2022264,34.3830735 59.2190992,34.669274 C59.237875,34.9878861 58.9609323,35.102346 58.5953121,35.1020402 C57.3320069,35.1012248 56.0685749,35.1013267 54.8052697,35.100919 C54.4414256,35.1008171 54.1613113,34.9877842 54.1809751,34.6682548 C54.1984823,34.3822581 54.4689549,34.2840041 54.8056503,34.2857367 C55.4583622,34.2892021 56.1110741,34.286756 56.763786,34.286756" id="Fill-28" fill="#FCFCFC"></path>
                <path d="M56.8689186,31.0186307 C56.3321638,31.0193429 55.7955385,31.0165959 55.2587837,31.0203603 C54.8902906,31.0229038 54.5936323,30.9245208 54.6001039,30.6059715 C54.6065755,30.287524 54.9111292,30.2027742 55.2761276,30.2040968 C56.370864,30.2082682 57.4658593,30.2076577 58.5607252,30.2046055 C58.9298654,30.2034864 59.2254883,30.3017676 59.2199227,30.6191978 C59.2143571,30.9388662 58.9077325,31.0229038 58.5433813,31.0193429 C57.9852702,31.0138489 57.4270297,31.0179186 56.8689186,31.0186307" id="Fill-30" fill="#FCFCFC"></path>
                <path d="M47.1671106,22.4450272 C46.8891751,22.4640597 46.7223478,22.4197885 46.660914,22.1922263 C46.601898,21.9732149 46.5879408,21.7279994 46.7489434,21.5568451 C47.0576508,21.2287418 47.4317484,21.0382791 47.7990322,20.8467132 C48.0009174,20.741345 48.154227,20.9273943 48.2375308,21.1379928 C48.3207246,21.3485912 48.3386382,21.6171146 48.1792841,21.771719 C47.8487067,22.0923748 47.4652677,22.3006287 47.1671106,22.4450272" id="Fill-32" fill="#A6ADD4"></path>
                <path d="M50.6769093,19.9987469 C50.3013124,20.0134878 50.0898318,19.8979629 50.002533,19.6635281 C49.9266441,19.4594486 50.0487032,19.3125857 50.2746451,19.2225025 C50.6311371,19.0803348 50.9780767,18.9163287 51.3484994,18.805499 C51.6186214,18.7246971 51.8764048,18.8094299 52.0238044,19.0325088 C52.1810217,19.2702193 51.9781649,19.4209039 51.7861872,19.5351186 C51.4298279,19.747169 51.0422904,19.9198012 50.6769093,19.9987469" id="Fill-34" fill="#A6ADD4"></path>
                <path d="M51.7173071,40.4048618 C51.2460201,40.4372344 50.8743177,40.225063 50.4961906,40.0518262 C50.2124279,39.9217892 49.8948011,39.7578486 50.0009444,39.429311 C50.1117724,39.0858997 50.4980645,39.2218424 50.7804887,39.1836735 C51.0706762,39.3075859 51.3714379,39.4174994 51.6487757,39.5583637 C52.2073331,39.8421703 52.2158996,40.0256876 51.7173071,40.4048618" id="Fill-36" fill="#A3A7CD"></path>
                <path d="M53.9433463,33.0549957 C53.7672613,33.0549957 53.5889102,33.0684157 53.4154911,33.0519457 C53.1186392,33.023784 52.922693,32.8910074 52.920027,32.6566658 C52.9173611,32.4218158 53.1121077,32.2790759 53.4076266,32.2571159 C53.7131428,32.2343425 54.0234577,32.2512192 54.3316398,32.2469492 C54.7059372,32.2417642 55.0173184,32.3343825 55.0199844,32.6514808 C55.022517,32.967969 54.7171341,33.0678057 54.3397709,33.0608923 C54.2076738,33.0584523 54.0754434,33.0604857 53.9433463,33.0604857 C53.9433463,33.0586557 53.9433463,33.0568257 53.9433463,33.0549957" id="Fill-38" fill="#F9F9F9"></path>
                <path d="M30.6625392,50.0186894 C30.6631641,49.8897882 30.6648305,49.7607566 30.6628517,49.6318554 C30.6571236,49.2596336 30.7694988,48.9685622 31.0908983,48.9799128 C31.4109439,48.9912634 31.5063431,49.2964253 31.4996777,49.6613409 C31.4954076,49.8977467 31.4950952,50.134283 31.4968657,50.3705583 C31.4997818,50.743041 31.3864692,51.0301984 31.0651739,51.0201525 C30.7411707,51.010237 30.647542,50.7083368 30.6612895,50.3410728 C30.6653512,50.2338291 30.6619144,50.126194 30.6625392,50.0186894" id="Fill-40" fill="#A5ACD3"></path>
                <path d="M31.4998739,13.2541973 C31.4998739,13.3830366 31.4993505,13.5117462 31.4999785,13.6405855 C31.5018627,14.013999 31.3799174,14.2932157 31.0579399,14.2855606 C30.7599328,14.2784245 30.6587129,14.0005052 30.6601784,13.6590097 C30.6613298,13.4014608 30.6624812,13.1437821 30.6600737,12.8862332 C30.6567241,12.5141172 30.7670506,12.233084 31.0968786,12.2452803 C31.394153,12.2563088 31.5006066,12.5241078 31.4980944,12.867809 C31.4971523,12.9966484 31.4978851,13.1253579 31.4978851,13.2541973 L31.4998739,13.2541973 Z" id="Fill-42" fill="#A5ACD3"></path>
                <path d="M30.6608626,9.96324579 C30.6608626,9.81036304 30.6586675,9.65748028 30.6612807,9.50472898 C30.6673436,9.15006203 30.8537232,8.96878489 31.0946683,8.98009006 C31.335718,8.99139523 31.5065224,9.18963014 31.4997279,9.54377127 C31.4942922,9.82745225 31.4973237,10.1115276 31.4999369,10.3954715 C31.5030729,10.7497441 31.3895517,11.0105518 31.0919505,11.0201481 C30.7940357,11.0296129 30.6668209,10.7798474 30.6643122,10.4218941 C30.6632668,10.2690113 30.6642076,10.1161285 30.6642076,9.96324579 L30.6608626,9.96324579 Z" id="Fill-44" fill="#A6ADD4"></path>
                <path d="M31.4923609,46.7901408 C31.4923609,46.9640594 31.5123394,47.1425686 31.4876784,47.3107162 C31.4500106,47.5680528 31.3184852,47.7403976 31.1009064,47.7543006 C30.8789574,47.7683347 30.7140304,47.5966458 30.6899937,47.3507201 C30.6501407,46.9438607 30.6543029,46.5251968 30.6775071,46.1147961 C30.6933235,45.8339817 30.8919642,45.7054446 31.0862347,45.714757 C31.2769673,45.723807 31.460416,45.8526065 31.485077,46.1385361 C31.5035988,46.3533768 31.488719,46.5726769 31.488719,46.7901408 C31.4899676,46.7901408 31.4911122,46.7901408 31.4923609,46.7901408" id="Fill-46" fill="#A6ADD4"></path>
                <path d="M31.4990034,43.2552752 C31.4677938,43.577343 31.6225933,44.0999601 31.0601967,44.0811379 C30.5541855,44.0640769 30.6805842,43.5744811 30.6644593,43.2266568 C30.6585295,43.0990845 30.6554085,42.9679899 30.6756947,42.8430593 C30.7206365,42.5653502 30.8920811,42.4393189 31.1532013,42.4495555 C31.4204593,42.4601223 31.5073259,42.6335942 31.4995235,42.8901697 C31.4962986,42.9999105 31.4990034,43.1098714 31.4990034,43.2552752" id="Fill-48" fill="#A5ACD3"></path>
                <path d="M30.9713192,6.12244898 C31.1889857,6.12535134 31.4064986,6.12839191 31.6241651,6.13143248 C31.9733224,6.46865918 31.9418322,6.8835586 31.8842281,7.28823065 C31.8455182,7.56049975 31.6358395,7.7452834 31.3204765,7.75468152 C30.9716265,7.7650471 30.7349122,7.58316581 30.6905187,7.27745045 C30.6313786,6.87015246 30.6269239,6.45760257 30.9713192,6.12244898" id="Fill-50" fill="#A3AAD0"></path>
                <path d="M31.6164672,53.877551 C31.4002488,53.8769985 31.1840304,53.8764461 30.967812,53.8757554 C30.6186788,53.5663642 30.641398,53.1743766 30.6825089,52.7873614 C30.7188286,52.4464786 30.9410745,52.2304572 31.3342551,52.2456505 C31.6891067,52.2593245 31.8805968,52.472031 31.9053251,52.7847371 C31.9359264,53.173686 31.9498361,53.5634637 31.6164672,53.877551" id="Fill-52" fill="#A3AAD0"></path>
                <path d="M55.02,41.3366475 C54.8762852,41.5706707 54.7325704,41.8048156 54.5888556,42.0388389 C54.2214768,42.0619613 53.9362604,41.8777121 53.6481391,41.7264428 C53.3952896,41.5936714 53.2474252,41.3783895 53.4048337,41.1150373 C53.5618273,40.852537 53.8236676,40.7347343 54.1462306,40.8778499 C54.4483221,41.0118383 54.7295273,41.182214 55.02,41.3366475" id="Fill-54" fill="#A6ADD4"></path>
                <path d="M54.2537278,17.5535873 C54.3691889,17.7900875 54.4845389,18.0267091 54.6,18.2630878 C54.3984153,18.3970681 54.2000533,18.5372433 53.994357,18.6632067 C53.7896607,18.7886841 53.5515152,18.8638734 53.4257193,18.5831586 C53.3020348,18.3069381 53.2764755,17.9922119 53.5948548,17.8092796 C53.8018847,17.69024 53.9985798,17.5286862 54.2537278,17.5535873" id="Fill-56" fill="#A3AACF"></path>
                <path d="M31.4835221,16.7346939 C31.068973,16.5823801 30.6545491,16.4301807 30.24,16.2778669 C30.5113594,16.2629902 30.4848243,16.0773757 30.5039746,15.9073243 C30.5352661,15.6313056 30.7553075,15.4975304 31.0165285,15.5111482 C31.306788,15.5262537 31.513687,15.6848615 31.499293,15.9963553 C31.4879029,16.242163 31.4882784,16.4885429 31.4835221,16.7346939" id="Fill-58" fill="#A3AAD0"></path>
                <path d="M30.66,40 C31.08,40.0012378 31.5,40.0023724 31.92,40.0036102 C31.9131047,40.1222313 31.9062094,40.2408523 31.8990077,40.3594734 C31.8803138,40.6706731 31.6349945,40.8254994 31.1769938,40.8159066 C30.7300255,40.80652 30.661992,40.6010477 30.674097,40.35576 C30.680073,40.2374484 30.665363,40.1186211 30.66,40" id="Fill-60" fill="#A2A9CF"></path>
                <path d="M11.0979286,18.7756966 C11.5661494,19.0240005 12.1064855,19.1768029 12.490836,19.5888237 C12.6272738,19.7349995 12.6392931,19.9058627 12.5072138,20.0578856 C12.3522849,20.2360251 12.1615625,20.5068076 11.9197255,20.3716762 C11.4858453,20.1290894 10.9872462,19.9774564 10.6404062,19.5948007 C10.5144027,19.4556413 10.4372684,19.2969919 10.5672343,19.1288573 C10.6969361,18.9611124 10.8212227,18.7686801 11.0979286,18.7756966" id="Fill-62" fill="#A5ACD3"></path>
                <path d="M14.8335454,22.4480932 C14.4401192,22.3111764 13.9794325,22.063305 13.5799788,21.7376836 C13.3780602,21.5731648 13.4106631,21.2762384 13.5754583,21.0522797 C13.7018971,20.8805188 13.8736786,20.7456516 14.1013507,20.8568795 C14.5092975,21.056379 14.9162854,21.2602511 15.3072459,21.4900855 C15.5591646,21.6380704 15.5771099,21.9008359 15.4990274,22.1563593 C15.4171093,22.4250004 15.1865604,22.4551986 14.8335454,22.4480932" id="Fill-64" fill="#A6ADD4"></path>
                <path d="M5.74737571,26.1278344 C5.90146942,26.1278344 6.05716273,26.1171592 6.20939025,26.1300711 C6.50611397,26.1554882 6.71272751,26.2815572 6.71979236,26.5149881 C6.72765701,26.7746494 6.51144593,26.9153587 6.18339694,26.9313206 C5.8764092,26.9462659 5.56715537,26.933964 5.25883464,26.934879 C4.90612533,26.935794 4.62833008,26.8298554 4.62019884,26.5440653 C4.6112678,26.2277745 4.90425914,26.1186842 5.28496126,26.1225476 C5.43905498,26.1240726 5.59328199,26.122751 5.74737571,26.122751 L5.74737571,26.1278344 Z" id="Fill-66" fill="#FAFAFB"></path>
                <path d="M10.9349583,34.9672514 C11.4626407,36.2372011 12.2475257,37.3331715 13.269128,38.2687741 C13.2983383,38.3669004 13.3270428,38.4650267 13.3256518,38.5685976 C13.3208467,38.9611027 13.4704389,39.1542618 13.9027768,39.017281 C14.060209,38.9674135 14.2288954,38.9436553 14.3870864,39.0338622 C15.2960203,39.5274634 16.2465568,39.9077183 17.2832068,40.0543509 C17.4597332,40.4823696 17.7662519,40.6204641 18.2520788,40.6733013 C20.3210795,40.8977668 21.6945965,42.4143315 21.8210481,44.032116 C22.0097139,46.4487698 20.77934,48.0445284 18.5956477,48.4668551 C18.260804,48.5315714 17.9327886,48.5651051 17.5966803,48.5651051 C13.3395615,48.5658476 9.08231625,48.583295 4.82532392,48.5568145 C3.29475403,48.5472865 2.13253758,47.7955624 1.39178425,46.5121249 C0.604243824,45.1475137 0.665067032,43.7571644 1.53998549,42.4300465 C1.62963966,42.2939319 1.696659,42.0137832 1.99293504,42.1421022 C2.1742666,42.3461504 2.06690921,42.574823 2.04338922,42.7919878 C1.91099442,44.0160297 2.46991039,44.9343086 3.47785591,45.5458347 C4.39854984,46.1045234 5.4176231,46.1005637 6.34704219,45.5106923 C7.35916062,44.8684786 7.87166886,43.9474774 7.73826244,42.7361807 C7.71815664,42.5536634 7.65619537,42.3723834 7.72549083,42.1882574 C7.88127918,41.9417661 8.18969457,41.9400338 8.40365064,41.7854818 C8.59320155,41.6485009 8.79994988,41.4981561 8.65098993,41.2420131 C8.51910093,41.0150728 8.29566099,41.0990927 8.09649976,41.1751932 C7.86673725,41.2631727 7.68072698,41.4489074 7.41884576,41.4666023 C7.21892582,41.4497735 7.06364328,41.3372933 6.95148073,41.1963528 C6.54544472,40.6859229 5.86614685,40.5744326 5.39991988,40.1560656 C5.30204636,39.5606259 4.82089811,39.6124732 4.42257564,39.6698889 C3.89792805,39.7454944 3.84292161,39.5536964 3.91120547,39.1161497 C4.37894985,36.1180389 7.47764574,33.9296865 10.7476835,34.9462155 C10.8064835,34.9645291 10.8723648,34.9606931 10.9349583,34.9672514" id="Fill-68" fill="#F8FAFD"></path>
                <path d="M5.56137651,40.0171719 C6.36187915,40.2123081 7.0009961,40.6684296 7.53112212,41.3007826 C7.85698279,41.4421231 7.92741912,41.7180798 7.90270462,42.0441527 C8.21843235,43.9993213 7.56127381,45.3900158 6.03490632,45.9374884 C5.00554742,46.3066993 4.04341195,46.1182876 3.20423112,45.4158986 C2.32340636,44.6786186 1.9808634,43.7035719 2.13619403,42.5475991 C2.15843708,42.3815176 2.19958672,42.2181005 2.23196271,42.0534147 C2.8915927,40.5987743 3.97643566,39.8769732 5.56137651,40.0171719" id="Fill-70" fill="#6D6DA9"></path>
                <path d="M27.297871,15.8731859 C25.1533214,15.7816036 23.0912112,16.0760723 21.1714965,17.0976532 C20.4752579,17.4681735 19.843472,17.9300297 19.1855803,18.3554008 C18.9677404,18.1320532 18.7322883,18.2724467 18.4903411,18.3052339 C17.9131401,18.3833809 17.3281948,18.3942278 16.7536169,18.30055 C16.5026762,18.2595043 16.2713461,18.2789795 16.0241527,18.2883472 C14.6717712,18.3392537 13.2960318,18.5162554 12.0932904,17.6296445 C11.003341,16.8263574 10.7879992,15.7159058 10.9856041,14.5068461 C11.1573529,13.4558059 12.2555462,12.5016483 13.3406241,12.3117043 C13.5440996,12.2760821 13.7448271,12.2127263 13.9494268,12.1987979 C14.2367158,12.1790763 14.4242031,12.0921778 14.437943,11.7696057 C14.4511832,11.4575108 14.2529539,11.334004 14.0053857,11.2466125 C13.4020789,11.0336188 13.3457453,10.7845098 13.8541218,10.3723275 C14.6758932,9.70585938 15.8399131,9.61107225 16.6062251,10.5461245 C16.7237638,10.6895994 16.8340578,10.8405932 16.9652114,10.9708793 C17.137335,11.1422111 17.3531764,11.1171892 17.5387901,11.0101993 C17.7241539,10.9033327 17.8284523,10.7520924 17.7701201,10.4978065 C17.6789371,10.1002922 17.0939918,9.83515939 17.408261,9.34335099 C17.8691724,8.62215528 18.4552418,7.99414431 19.265022,7.66972334 C21.8539951,6.63273487 24.5325274,8.19431896 24.9017562,10.9239172 C24.9412272,11.2162905 24.8832698,11.3778847 24.5402717,11.2596781 C24.1058409,11.1099169 23.8001904,11.3478092 23.7269942,11.6989776 C23.6456789,12.0890963 24.0101612,12.1471519 24.3422922,12.205454 C25.2937183,12.3724716 26.165328,12.6527654 26.7552696,13.5301319 C27.2499062,14.265749 27.3138593,15.0484516 27.297871,15.8731859" id="Fill-72" fill="#F8FAFD"></path>
                <path d="M50.3201067,8.713383 C49.9784593,8.77968747 49.6870976,8.83164247 49.7255514,9.23107741 C49.7647447,9.6381819 50.0594342,9.70250713 50.3698995,9.75879171 C51.9333187,10.041699 52.5361318,11.3373576 51.7087582,12.6807653 C51.3710548,13.2292616 50.821732,13.4600902 50.1974735,13.4629354 C47.9619751,13.4732027 45.7264767,13.4689968 43.490855,13.4654094 C42.5829996,13.4640487 41.6879621,12.6968466 41.5939228,11.852578 C41.4796705,10.8263431 42.0764444,10.0000113 43.0952243,9.7740071 C43.2735662,9.73442234 43.4560986,9.70782633 43.6290176,9.65178916 C43.8520991,9.57942327 43.9418247,9.40883771 43.9333205,9.17380321 C43.9244465,8.92949104 43.8173428,8.77535789 43.5676394,8.7705335 C43.1525353,8.76249284 43.1554932,8.55294103 43.274429,8.24071626 C43.6245806,7.32098916 44.2679427,6.7167031 45.2318766,6.56318846 C46.1732559,6.41313749 46.9489879,6.7896875 47.5644956,7.52287143 C47.7365519,7.72784625 47.772171,7.89583406 47.64128,8.12901302 C47.4942435,8.39089093 47.3923162,8.66674721 47.7324846,8.87877307 C48.0991517,9.10737504 48.273673,8.85638294 48.4860317,8.6084834 C49.035601,7.96671552 49.649753,7.98316793 50.3201067,8.713383" id="Fill-74" fill="#F8FAFD"></path>
                <path d="M59.6394814,16.5806793 C59.6645031,17.8210056 58.7814614,18.7594603 57.5741964,18.7753008 C56.3339664,18.7915277 55.4309338,17.8629894 55.4400687,16.5808081 C56.35965,15.1533575 58.7225478,15.1533575 59.6394814,16.5806793" id="Fill-76" fill="#95D5FD"></path>
                <path d="M59.64,16.3265306 C58.0836696,15.2967015 57.0123518,15.2968107 55.44,16.3265306 C55.5904161,15.3475977 56.4098928,14.6995993 57.5049117,14.6939199 C58.6509079,14.6879129 59.4788588,15.3209482 59.64,16.3265306" id="Fill-78" fill="#C6E6FB"></path>
                <path d="M33.5994814,56.5806793 C33.6245031,57.8211343 32.7414614,58.7594603 31.5341964,58.7753008 C30.293834,58.7915277 29.3909338,57.8629894 29.4000687,56.5808081 C30.31965,55.1533575 32.6824154,55.1533575 33.5994814,56.5806793" id="Fill-80" fill="#95D5FD"></path>
                <path d="M33.6,56.3265306 C32.0434048,55.2968107 30.9726166,55.2968107 29.4,56.3265306 C29.5504161,55.3474885 30.3698928,54.6995993 31.4649117,54.6939199 C32.6107755,54.6879129 33.4387264,55.3209482 33.6,56.3265306" id="Fill-82" fill="#C6E6FB"></path>
                <path d="M33.5994812,2.70303199 C33.6245045,3.94359749 32.7415413,4.88190957 31.5342026,4.89774987 C30.2936319,4.91397651 29.3904118,3.98506558 29.4000768,2.70303199 C30.3194496,1.27586009 32.6826241,1.27586009 33.5994812,2.70303199" id="Fill-84" fill="#95D5FD"></path>
                <path d="M33.6,2.44897959 C32.0440178,1.41918982 30.9724014,1.41918982 29.4,2.44897959 C29.5508181,1.46976181 30.3700558,0.822156422 31.4651092,0.816367405 C32.6107443,0.81046916 33.4384564,1.44332893 33.6,2.44897959" id="Fill-86" fill="#C6E7FB"></path>
                <path d="M7.13314507,16.5587896 C7.20414591,17.5077639 6.71871057,18.1547334 5.90404174,18.5579639 C5.10120638,18.9554064 4.32322131,18.7884548 3.66475431,18.21853 C3.03218947,17.6709854 2.77329939,16.9838858 3.05046561,16.1603181 C3.32289844,16.1230177 3.51617849,15.9323996 3.74693121,15.8149676 C4.94618789,15.2045268 6.48098926,15.5407451 7.13314507,16.5587896" id="Fill-88" fill="#95D5FD"></path>
                <path d="M7.14,16.3265306 C6.35110503,15.7209269 5.48794679,15.3847595 4.42500821,15.6752745 C4.12454636,15.7574051 3.89177365,15.9253796 3.63964379,16.0686712 C3.47955168,16.1596483 3.39530548,16.1805086 3.36,15.9881789 C3.62795646,15.1299581 4.39578988,14.6383761 5.37326484,14.6988818 C6.31178202,14.757094 7.0076653,15.398193 7.14,16.3265306" id="Fill-90" fill="#C6E7FB"></path>
                <path d="M59.6388394,43.0928228 C59.6767371,44.3373215 58.7822989,45.2973559 57.5765963,45.3060586 C56.3185526,45.3150212 55.4145738,44.3787571 55.4405456,43.0936022 C56.0242493,41.86534 58.6695335,41.5250221 59.6388394,43.0928228" id="Fill-92" fill="#95D5FD"></path>
                <path d="M59.64,42.856488 C58.6949569,42.2361856 57.7017934,41.8381137 56.4653764,42.2981831 C56.0798826,42.4416069 55.7789641,42.667985 55.44,42.8571429 C55.5911221,41.8799184 56.4043973,41.2373494 57.5066604,41.2246879 C58.6416665,41.2115898 59.4748262,41.8489196 59.64,42.856488" id="Fill-94" fill="#C7E7FB"></path>
                <path d="M11.8741469,33.4872767 C11.3352765,30.776638 12.7468552,27.834257 15.2110172,26.4657162 C15.6885036,26.200553 15.7541643,26.3421937 15.7451076,26.7893965 C15.7258622,27.731546 15.8971838,28.6516598 16.1657384,29.5543899 C16.2759276,29.9249573 16.4391988,30.3036045 16.9325343,30.1470284 C17.3832282,30.0041635 17.2983221,29.6441243 17.1909003,29.2807797 C15.5248551,23.6473473 19.1161919,17.9961639 25.074206,16.8718524 C25.2759679,16.8337796 25.4895538,16.8549584 25.6976051,16.8484701 C25.8720712,17.1153471 25.6326991,17.2524583 25.5015035,17.4160123 C25.3246474,17.6362471 25.0660299,17.7891506 24.8989851,18.1193191 C25.7799954,18.0779409 26.598867,18.083205 27.2441529,17.4007097 C27.470569,17.1612549 27.4856634,16.9814189 27.3377382,16.7353534 C27.8579921,16.7272736 28.3673026,16.7931359 28.8632796,16.9495895 C28.332837,17.1852493 27.8372373,17.4647358 27.4854118,18.0281157 C28.17183,18.2099104 28.8026504,18.2647549 29.3722127,17.7503432 C29.5690689,17.5727108 29.7265539,17.3507621 29.9730959,17.2268724 C31.6056819,17.6847257 32.9353733,18.6082673 34.1303473,19.7532679 C34.4707261,20.079519 34.4544997,20.2674348 34.05324,20.5277012 C33.4749984,20.9027981 33.025814,21.4224739 32.6024159,21.9568402 C32.3871948,22.2286141 32.1897096,22.5287896 32.5636736,22.8030119 C32.9226689,23.0663388 33.1666951,22.8418192 33.395627,22.5567015 C34.9571434,20.6109472 37.0498572,19.6681856 39.548359,19.6746739 C44.0169324,19.6861814 47.5522942,23.7724613 46.8535489,28.0192346 C46.8008443,28.338875 46.7068816,28.4478294 46.367509,28.4871264 C45.2043592,28.6216668 44.1381909,29.02186 43.2155452,29.740959 C42.9307641,29.9629077 42.622335,30.2147271 42.9526509,30.5985159 C43.2541617,30.948639 43.5301378,30.7241195 43.816051,30.517351 C47.0891475,28.1494902 51.3812422,29.8302037 52.0563395,33.7438704 C52.097346,33.9808768 52.071434,34.2289011 52.076717,34.4717838 C51.8674079,35.686809 50.9568378,36.4074995 50.0265191,37.0522893 C49.1091565,37.6880199 48.0325479,37.9600386 46.8842409,37.9591817 C37.54596,37.9523261 28.2076792,37.9626094 18.8695241,37.9503674 C16.3739155,37.9471844 14.3305101,36.960841 12.7276098,35.1053108 C12.3172935,34.6303185 12.0619465,34.0750183 11.8741469,33.4872767" id="Fill-96" fill="#ECF4FD"></path>
                <path d="M11.76,33.4693878 C12.6341221,35.0410815 13.8353618,36.2957132 15.5369289,37.0545709 C16.4774081,37.4739972 17.4791981,37.7134957 18.5088683,37.7149546 C27.9404044,37.728206 37.3720667,37.7215195 46.8036029,37.721398 C49.2926242,37.721398 50.9656804,36.5027518 52.08,34.446955 C52.0517415,37.0245424 49.8087208,39.1749229 47.1047328,39.1789348 C40.8240226,39.1884175 34.5433124,39.1807584 28.2627283,39.1806368 C25.1117762,39.1806368 21.9609503,39.1845271 18.8101244,39.181731 C15.414181,39.1786916 12.6659129,37.1185182 11.8223201,33.9457102 C11.7814462,33.7919205 11.7799324,33.628405 11.76,33.4693878" id="Fill-98" fill="#C2E4FD"></path>
                <path d="M36.6909372,44.6744894 C36.8576364,44.7939219 37.0242116,44.9134776 37.1909108,45.03291 C36.9073363,45.6250188 36.340931,45.9650747 35.9211465,46.4359023 C35.6618642,46.7267801 35.3668873,46.9857352 35.0958307,47.2666295 C34.9867636,47.3796528 34.8118844,47.4868832 34.9076899,47.6782955 C34.9903578,47.8433317 35.1744086,47.8563965 35.3394965,47.8657638 C35.6816946,47.8852378 35.9893135,47.8095603 36.2423987,47.5547957 C38.3565656,45.4267043 40.5271251,43.3540768 42.5987806,41.1845723 C42.82274,41.0624283 43.0975148,41.0025272 43.1866276,40.7123889 C43.3606392,40.4508454 43.5822437,40.2445194 43.8778404,40.1248404 C44.0853158,40.1244707 44.2927912,40.1242242 44.5001427,40.1238544 C44.5380683,40.4721682 44.2465616,40.6203187 44.0537111,40.8130868 C41.871997,42.9939307 39.6807395,45.1650375 37.4996451,47.3464977 C37.3548833,47.4913203 37.0374732,47.6239408 37.182359,47.8673661 C37.3038201,48.0713503 37.5985492,47.9458784 37.8191622,47.9234463 C38.2696837,47.8777194 38.6200618,47.668312 38.9418098,47.3456349 C41.1636805,45.1179548 43.3990606,42.903586 45.6298549,40.6846569 C45.8484849,40.4672381 46.0552166,40.2356451 46.3566385,40.1248404 C46.5641139,40.1244707 46.7715893,40.1239776 46.9790647,40.1236079 C47.0171142,40.472045 46.7262273,40.6210582 46.533005,40.8141961 C44.4078074,42.9388365 42.2748017,45.0558351 40.143903,47.1749291 C40.0417765,47.2764898 39.9356839,47.3745994 39.8388869,47.4810903 C39.7453122,47.5843765 39.5772497,47.6800211 39.6338903,47.8316226 C39.7075106,48.0289512 39.9159775,47.9614084 40.0702826,47.9501923 C40.5993821,47.911614 41.0437066,47.7284596 41.4367201,47.33257 C43.6551204,45.0973715 45.895706,42.884112 48.1288552,40.6635806 C48.2602315,40.5329321 48.3860305,40.3961209 48.5263304,40.2752094 C48.7282285,40.101299 48.966565,39.8502321 49.214073,40.1155964 C49.4524094,40.3712238 49.2060169,40.6144025 49.0202309,40.8031033 C47.9802512,41.8587678 46.9224241,42.8969303 45.8724053,43.9428578 C44.705759,45.1048899 43.5352705,46.2632244 42.3728382,47.4293239 C42.2529883,47.5496191 42.0194855,47.6628889 42.1409466,47.8727892 C42.2298115,48.0262396 42.443236,47.9636269 42.6038622,47.94859 C43.1109003,47.9007677 43.5325438,47.7163808 43.9094451,47.3388559 C45.9590393,45.286442 47.9997098,43.2249074 50.0846268,41.2074974 C50.2710324,41.3757381 50.1775818,41.649114 50.3220957,41.8330079 C50.187497,42.1168602 49.9704782,42.3344023 49.7504849,42.5526839 C48.1424885,44.1479513 46.5346162,45.7434653 44.9355436,47.3476069 C44.7909057,47.4926761 44.4715126,47.6246803 44.6234629,47.8706939 C44.7474028,48.0714736 45.0413882,47.9469877 45.262497,47.9231998 C45.7136383,47.8748845 46.0653797,47.6637516 46.384525,47.3388559 C47.4668921,46.2374645 48.5662391,45.1524657 49.6684366,44.0705482 C49.8486453,43.8936798 49.9899367,43.6226458 50.3192451,43.6776167 C50.2790885,43.9659062 50.2388081,44.2541957 50.1985276,44.5426084 C49.2713332,45.5335649 48.2762197,46.4578414 47.3296907,47.4296936 C47.2103365,47.5522074 46.9667946,47.6676957 47.0860248,47.8693381 C47.1879034,48.0413997 47.4267356,47.9622711 47.6069442,47.9434134 C48.092045,47.8927563 48.4986918,47.7120669 48.8552669,47.3492092 C49.9931592,46.1911212 51.1409666,45.0420307 52.3149254,43.9194397 C52.4653884,44.051444 52.5403721,44.2201778 52.5594588,44.4161505 C52.5577237,44.7427717 52.3159169,44.9248169 52.1158779,45.1259662 C51.3324538,45.9134316 50.5393623,46.6916529 49.7571776,47.4803507 C49.651209,47.5873346 49.4494348,47.6908674 49.5685411,47.8796914 C49.6515808,48.0112027 49.834764,47.9728709 49.9744443,47.9545062 C50.4736742,47.8884424 50.9375812,47.741278 51.3041955,47.367574 C51.6497399,47.0151928 51.9972674,46.6639209 52.3568171,46.3257138 C52.513725,46.1780564 52.6434901,45.9585423 52.92,46.0194294 C52.7706524,47.2481415 52.1674369,48.161695 51.0253307,48.6909446 C50.5924086,48.8914777 50.1260228,48.9754132 49.6513329,48.975783 C45.0527907,48.9793573 40.4542485,48.9826852 35.8558302,48.9745505 C34.6502667,48.9724552 33.7849183,48.2445212 33.6,47.1283393 C34.0646507,47.1839266 34.3854072,46.9678635 34.699223,46.6414888 C35.3455696,45.9693886 35.9972456,45.3002464 36.6909372,44.6744894" id="Fill-100" fill="#E9F3F9"></path>
                <path d="M49.98,41.2086044 C49.9763485,41.470595 49.7685929,41.602087 49.6090617,41.7596539 C47.6083117,43.7361309 45.601266,45.7062755 43.6055525,47.6875951 C43.1056797,48.1838872 42.4845533,48.1889781 41.8609085,48.1472582 C41.5373133,48.1256533 41.4918589,47.9150675 41.7219011,47.6789034 C41.8235125,47.5743555 41.9285235,47.4730359 42.0322755,47.3705988 C44.242418,45.1911101 46.4526865,43.0117455 48.6623254,40.8317601 C48.7808091,40.7149197 48.8977818,40.5960927 49.008333,40.4719265 C49.0823696,40.3887352 49.1123368,40.2781031 49.0410703,40.1884552 C48.9441177,40.0663998 48.8144277,40.0989314 48.7100463,40.1848544 C48.5816155,40.2906439 48.4635095,40.4089743 48.3448999,40.5258147 C45.9414816,42.8950293 43.5310123,45.2574148 41.1416962,47.6402878 C40.6219293,48.1585573 39.9960181,48.1774306 39.3518496,48.1484999 C39.0373201,48.1343449 38.9631576,47.9324508 39.1974809,47.6858567 C39.2978331,47.5803155 39.4035997,47.4796167 39.5073516,47.3773038 C41.7916566,45.124557 44.0763394,42.8724311 46.3592594,40.6184426 C46.5215607,40.4581441 46.6701374,40.2841873 46.8250098,40.1166871 C47.6083117,40.0578324 48.3494328,39.8216683 49.0920649,39.5918367 C49.3630286,40.1441279 49.8621459,40.5744878 49.98,41.2086044" id="Fill-102" fill="#F8FAFD"></path>
                <path d="M42.419955,41.0802526 C42.423291,41.3128313 42.2403085,41.4311142 42.0982221,41.570299 C40.1245807,43.5028167 38.1445146,45.4291726 36.1798926,47.3705102 C35.9288322,47.6185539 35.6620805,47.7421528 35.3200848,47.7506102 C35.0107072,47.7582219 34.6625338,47.7879437 34.4938834,47.488189 C34.2943448,47.1333403 34.7004647,47.0119161 34.8755398,46.8367269 C35.5631142,46.1487772 36.2799708,45.4888577 36.9860783,44.8185477 C37.2722279,44.9423884 37.6029802,45.0914804 37.7952292,44.7449683 C38.0006985,44.374413 37.7482789,44.0846864 37.4339592,43.9014023 C37.139408,43.7298377 36.840656,43.5322968 36.4886524,43.4939968 C35.9720758,43.4378155 35.8249238,43.1672993 35.8691559,42.6842604 C35.9744234,41.5332072 36.5337494,40.6588321 37.4817744,40 C38.7159489,40.0031413 39.9499998,40.0062826 41.1841743,40.009424 C41.7738945,40.1701147 42.1406009,40.576916 42.419955,41.0802526" id="Fill-104" fill="#F8FAFD"></path>
                <path d="M46.2,40.0009564 C44.3380338,41.7812153 42.476572,43.5620719 40.613597,45.3413745 C39.9923532,45.9346746 39.3316433,46.4950999 38.7542787,47.1243829 C38.2877469,47.6329258 37.7059692,47.7210302 37.0733773,47.7485255 C36.8876472,47.756535 36.6647206,47.7868994 36.5680099,47.5922807 C36.4607076,47.376383 36.687669,47.2754873 36.8111108,47.157975 C38.8862946,45.1841733 40.9670264,43.215512 43.043345,41.2427862 C43.4726804,40.8347803 43.8890285,40.4145808 44.3114289,40 C44.9408685,40.0003586 45.5704343,40.0005977 46.2,40.0009564" id="Fill-106" fill="#F8FAFD"></path>
                <path d="M27.2924404,16.7608293 C27.7586022,16.8831489 27.8775225,16.991144 27.4790983,17.4083014 C26.7091518,18.2144652 25.7008129,18.2828496 24.6657102,18.3557182 C24.5643106,18.3628183 24.4171089,18.402678 24.3715826,18.2774934 C24.3252285,18.1496931 24.4275938,18.0465559 24.5091272,17.9475293 C24.8163609,17.5745913 25.3470873,17.3689398 25.4937372,16.8757998 C26.0843376,16.7232116 26.6859747,16.7112537 27.2924404,16.7608293" id="Fill-108" fill="#FCFCFC"></path>
                <path d="M29.82,16.9854808 C29.3454181,17.833093 28.3704605,18.1680271 27.4589225,17.8279812 C27.2388471,17.7458717 27.2855835,17.6418238 27.3718389,17.5606729 C27.7658448,17.1901686 28.0513512,16.656617 28.7759435,16.7442643 C29.1429724,16.758109 29.4870472,16.8523591 29.82,16.9854808" id="Fill-110" fill="#FCFCFC"></path>
                <path d="M42.9386928,41.2219518 C42.4857952,40.8163281 42.0328976,40.410567 41.58,40.0049433 C42.1282588,40.0032955 42.6765175,40.0016478 43.2249121,40 C43.4664394,40.1533791 43.8129726,40.2413969 43.6274123,40.6606147 C43.6575692,41.1733429 43.3318199,41.2399399 42.9386928,41.2219518" id="Fill-112" fill="#D3D3E5"></path>
                <path d="M14.28,38.88043 C14.1954592,38.8896678 14.1043858,38.8786421 14.0275305,38.9120173 C13.7664788,39.0252548 13.5333512,39.373758 13.2242651,39.0479023 C12.9118485,38.7186197 13.0180368,38.3371882 13.1475379,37.9591837 C13.5444953,38.2339335 13.8210461,38.7087859 14.28,38.88043" id="Fill-114" fill="#CDCDE1"></path>
                <path d="M43.1564815,40.8163265 C43.1572289,40.440226 42.9198678,40.2972161 42.84,40 C43.1200712,40.0011875 43.4000356,40.0022054 43.68,40.0032232 C43.5362807,40.3243592 43.3707792,40.6098699 43.1564815,40.8163265" id="Fill-116" fill="#F8FAFD"></path>
                <path d="M50.6694964,43.8385417 C49.3526701,45.0714598 48.0130657,46.2835971 46.7304065,47.5478667 C46.2225817,48.0484094 45.634401,48.1453467 44.9781391,48.1621636 C44.8065442,48.1666081 44.6163472,48.1657672 44.5404203,47.993274 C44.457913,47.8057657 44.6446933,47.7077473 44.7575713,47.6001192 C45.9746803,46.4401143 47.1916627,45.279749 48.4161112,44.1268312 C49.1614607,43.4249663 49.9199709,42.7357142 50.6724069,42.0408163 C50.716318,42.6400981 50.9830747,43.2397403 50.6694964,43.8385417" id="Fill-118" fill="#F8FAFD"></path>
                <path d="M52.5,43.6372625 C52.4925628,43.776799 52.479883,43.8962112 52.3593027,44.0130777 C51.2264088,45.1098519 50.1018056,46.2152334 48.9796409,47.3229184 C48.495369,47.8008099 47.8835673,47.7705022 47.2828604,47.740437 C47.0738871,47.7298899 46.9408709,47.5404063 47.133019,47.3524987 C48.1866639,46.3226439 49.1680095,45.219202 50.299806,44.2691169 C50.3260191,44.2471741 50.3782015,44.2557815 50.4181917,44.2500837 C50.8901495,44.7758613 51.2283596,44.7240957 51.4208735,44.0723595 C51.533285,43.6919375 51.5865647,43.2943008 51.676177,42.8571429 C52.0337725,43.0592344 52.2731042,43.3412171 52.5,43.6372625" id="Fill-120" fill="#F8FAFD"></path>
                <path d="M53.3302956,46.0815574 C52.8133319,46.5607501 52.2839989,47.0283178 51.7832302,47.5225617 C51.3063077,47.9930662 50.7178056,48.1461484 50.0666916,48.1605878 C49.8778353,48.1647483 49.6574818,48.1870193 49.5759969,47.9739768 C49.5031833,47.7836947 49.6961202,47.6875136 49.8092299,47.5779943 C50.6143874,46.798878 51.4270685,46.026859 52.2315884,45.2471308 C52.4831842,45.0033739 52.7173098,44.7427303 52.9593416,44.4897959 C53.3350138,44.9662965 53.3619204,45.5176862 53.3302956,46.0815574" id="Fill-122" fill="#F8FAFD"></path>
                <path d="M36.54,44.6149945 C36.4717623,44.9766961 36.0776034,45.1298245 35.8142113,45.3612087 C35.3018976,45.8110983 34.7310376,46.2174397 34.2379739,46.6803173 C33.9066096,46.9913764 33.6071072,47.0146239 33.2291448,46.7879328 C32.8582186,45.3722322 34.6480638,44.0748432 36.54,44.6149945" id="Fill-124" fill="#F8FAFD"></path>
                <path d="M11.1985742,40.4058491 C10.7850992,40.4260261 10.6447821,40.3123868 10.5418473,40.1382166 C10.4334386,39.954742 10.5525279,39.833471 10.7065964,39.7297634 C11.0642649,39.4888942 11.5017714,39.3540325 11.927262,39.2102846 C12.1614355,39.1311448 12.3645015,39.2404978 12.5052191,39.3809003 C12.6435336,39.5186892 12.6268451,39.6873186 12.4787845,39.8125622 C12.0920112,40.1397848 11.5940255,40.3165686 11.1985742,40.4058491" id="Fill-126" fill="#B1B3D2"></path>
                <path d="M7.98308185,42.0385607 C7.84210147,41.8009905 7.70098038,41.5634203 7.56,41.3258501 C7.83675491,41.1787829 8.10605277,41.0194296 8.3925159,40.8879327 C8.71527938,40.7397707 8.99456686,40.8282056 9.16818941,41.0915643 C9.33913868,41.3507871 9.18099302,41.581302 8.94433733,41.7199758 C8.66096957,41.8860195 8.36043653,42.0628895 7.98308185,42.0385607" id="Fill-128" fill="#B3B4D4"></path>
                <path d="M7.13948145,43.111324 C7.16450239,44.3517607 6.28135572,45.2900728 5.07412824,45.305913 C3.83406904,45.3221397 2.93106447,44.3936151 2.94006671,43.1114528 C3.85975191,41.6840234 6.22244397,41.6838946 7.13948145,43.111324" id="Fill-130" fill="#95D5FD"></path>
                <path d="M7.14,42.8571429 C5.58358627,41.8273826 4.51256707,41.8273826 2.94,42.8571429 C3.09027899,41.8782754 3.90986224,41.2302112 5.00484663,41.2245322 C6.15093913,41.2185255 6.97899625,41.8516277 7.14,42.8571429" id="Fill-132" fill="#C6E6FA"></path>
            </g>
        </g>
    </g>
</svg>