<?xml version="1.0" encoding="UTF-8"?>
<svg width="62px" height="60px" viewBox="0 0 62 60" version="1.1" xmlns="http://www.w3.org/2000/svg" xmlns:xlink="http://www.w3.org/1999/xlink">
    <!-- Generator: Sketch 49 (51002) - http://www.bohemiancoding.com/sketch -->
    <title>Page 1</title>
    <desc>Created with Sketch.</desc>
    <defs>
        <polygon id="path-1" points="0 0.0729637809 1.90994726 0.0729637809 1.90994726 1.04529617 0 1.04529617"></polygon>
    </defs>
    <g id="Page-1" stroke="none" stroke-width="1" fill="none" fill-rule="evenodd">
        <g id="Desktop-HD" transform="translate(-502.000000, -822.000000)">
            <g id="Page-1" transform="translate(502.000000, 822.000000)">
                <path d="M20.3642774,3.81837996 C20.8620862,3.51917097 21.0959949,3.0888788 21.2323412,2.51364234 C21.544902,1.19528258 22.4804164,0.419418359 23.7440292,0 L25.3098444,0 C25.7987401,0.267662998 26.3425598,0.44176344 26.757019,0.836207885 C27.2714495,1.19528258 27.808765,1.41347572 28.4714662,1.41909186 C29.2854492,1.42602242 29.8419158,1.93362618 30.1742299,2.64854927 C30.3379179,3.00081289 30.5507483,3.28771417 30.8434353,3.54474234 C31.8839797,4.45862029 32.2106328,5.68054968 31.7635324,6.879895 C31.3214907,8.06549869 30.2668539,8.75998858 28.8417212,8.76823355 C26.7184758,8.78030229 24.5948691,8.78914473 22.4716237,8.76632168 C20.1887856,8.74170624 18.8636242,6.84739306 19.5858264,4.69581273 C19.7243408,4.28320544 20.0795399,4.08819382 20.3642774,3.81837996" id="Fill-1" fill="#D3D3E4"></path>
                <g id="Group-5" transform="translate(0.000000, 58.745645)">
                    <mask id="mask-2" fill="white">
                        <use xlink:href="#path-1"></use>
                    </mask>
                    <g id="Clip-4"></g>
                    <path d="M0,0.328397213 C0.469194588,-0.0603368177 1.0256366,0.104006969 1.54756314,0.12688734 C1.7696366,0.136643438 1.9233982,0.340940767 1.90901675,0.590534262 C1.8961933,0.811091754 1.74734536,0.992044135 1.54864175,0.997270616 C1.02575644,1.01085947 0.469673969,1.179036 0,0.792973287 L0,0.328397213 Z" id="Fill-3" fill="#D3D3E5" mask="url(#mask-2)"></path>
                </g>
                <path d="M62,59.7390534 C61.8724612,59.8181793 61.7539753,59.9221135 61.6152536,59.9708164 C61.3836071,60.0521619 61.1911008,59.9565842 61.0469207,59.7693458 C60.8978149,59.5754484 60.8970161,59.3772421 61.0462551,59.1832141 C61.1907014,58.9954535 61.384539,58.9028789 61.615653,58.9844856 C61.7542416,59.0334496 61.8725944,59.1375144 62,59.2167708 L62,59.7390534 Z" id="Fill-6" fill="#D4D4E6"></path>
                <path d="M54.7293471,42.3584425 C54.7232996,46.6047384 54.7208806,50.8510343 54.7045524,55.0973302 C54.703222,55.4440344 54.8304612,55.5307104 55.1595655,55.5245447 C56.0457647,55.5077075 56.9331733,55.5406705 57.8187677,55.5124504 C58.4062208,55.4938346 58.6124402,55.7431912 58.5893388,56.2922976 C58.5545053,57.1148307 58.6869453,57.9587067 58.2068956,58.7124681 C58.0003133,59.5198239 57.3364199,59.6777617 56.6321293,59.7781921 C48.9352473,59.7824606 41.2384862,59.7889821 33.5416042,59.790405 C24.3940504,59.792065 15.2464966,59.7894564 6.09894277,59.7881521 C5.85716413,59.7881521 5.6153855,59.7821049 5.37360686,59.7789035 C4.67282376,59.6726631 4.00094766,59.525634 3.8016224,58.7103338 C3.24404385,57.8440477 3.44397386,56.8769755 3.44312721,55.9438148 C3.44264341,55.5710249 3.77731149,55.5106718 4.10883487,55.5135175 C5.03361699,55.5214618 5.95864101,55.5083004 6.88318123,55.5247818 C7.18688616,55.5301176 7.30420746,55.4548244 7.30287701,55.1324275 C7.28727449,51.3089589 7.28546024,47.4856089 7.2800175,43.6621403 C7.17237219,43.4475252 7.10173751,43.2254401 7.10210036,42.9818935 C7.107785,39.1188218 7.07585425,35.2558688 7.11830763,31.3931529 C7.1063336,31.0528516 7.10016516,30.7123132 7.11975903,30.3718934 C7.09194057,29.6427949 7.09774616,28.9131036 7.11201824,28.1841238 C7.13971574,26.7722885 7.97293887,25.9465539 9.42324784,25.9345782 C12.0978106,25.9125238 14.7726153,25.9291239 17.447299,25.9273453 C17.6484385,25.9272267 17.8505456,25.914421 18.0503547,25.9286496 C18.5400804,25.9636283 18.7309392,25.7560089 18.7238032,25.2717614 C18.7054188,24.0101567 18.7176347,22.7481963 18.7175138,21.486473 C18.7175138,21.269605 18.7192071,21.0528556 18.7340839,20.8366991 C18.7235613,20.5176222 18.7181185,20.1983081 18.7365029,19.8794684 C18.7367448,19.2898104 18.7296087,18.6997968 18.7442437,18.1099017 C18.7563386,17.6263656 18.982031,17.2937715 19.4487762,17.1143723 C19.9530159,16.9206259 20.4532642,16.7165637 20.9571411,16.5232915 C21.3739341,16.3882382 21.778753,16.2220004 22.181032,16.0492412 C24.9280437,15.0226459 27.6494141,13.9320218 30.3848146,12.8766136 C30.8518018,12.6963843 31.2666596,12.7217587 31.7242126,12.8936879 C34.3940584,13.8966874 37.0312477,14.9811457 39.7106484,15.9622094 C40.6070074,16.314605 41.5025196,16.6671192 42.3917425,17.0350477 C43.163765,17.3544803 43.2636696,17.4839608 43.265,18.3177582 C43.2685076,20.6052468 43.2640324,22.8927354 43.2689914,25.1802239 C43.2695961,25.4256677 43.1881969,25.7063273 43.4823468,25.8685337 C43.7608942,25.9476211 44.0448843,25.922721 44.3260926,25.9228396 C46.9866252,25.9246182 49.6471578,25.9196381 52.3075694,25.9254482 C54.1079071,25.9292425 54.9000073,26.6992482 54.9019425,28.4513848 C54.9067805,32.7192607 54.903031,36.9872553 54.9043615,41.2552498 C54.9044824,41.6327827 54.8897266,42.0062841 54.7293471,42.3584425" id="Fill-8" fill="#6C6CA9"></path>
                <path d="M39.5532576,15.9726115 C36.9146329,14.9660673 34.271887,13.9693459 31.6410201,12.9437477 C31.1790669,12.7636231 30.7957826,12.7503682 30.324617,12.9372386 C27.7927834,13.9412976 25.245313,14.9078404 22.7022064,15.8846794 C22.5161402,15.9561612 22.3217101,16.0072873 22.131159,16.0677628 C21.8105433,16.1817313 21.7458141,15.9464567 21.6866608,15.7393489 C21.3845911,14.679785 20.6998433,13.9164446 19.7615121,13.348614 C19.5090197,13.1958276 19.3526514,12.9941637 19.2804068,12.7062246 C18.8570001,11.0179996 17.8381817,9.8091998 16.2187391,9.07165911 C15.9757015,8.96088599 15.607448,8.96218781 15.5532646,8.58560654 C16.4235938,7.15750905 17.5124749,5.91367839 18.8213627,4.84938066 C19.2954375,4.46392334 19.6744792,3.96260396 20.2751033,3.73478531 C19.2250112,5.06998013 19.1559182,6.18469383 20.0508541,7.42828779 C20.5701424,8.14985159 21.3381655,8.45045386 22.1880092,8.46288033 C24.4680776,8.49613594 26.7491157,8.48264434 29.0295478,8.46998118 C30.1858249,8.46347207 31.2204014,7.77883264 31.5884125,6.72601461 C31.9647874,5.64905371 31.8520568,4.59718246 30.9357868,3.81786515 C30.4068013,3.36814522 30.081943,2.82055202 29.7441147,2.26017732 C29.38471,1.6642984 28.8148747,1.44843283 28.16334,1.50381939 C27.4943502,1.56050778 27.0397911,1.31694893 26.7086297,0.781072122 C27.908302,0.708525195 29.0865192,0.44650416 30.2934645,0.422006258 C33.3100399,0.36070233 36.1632164,1.0254594 38.8397816,2.34065351 C40.6549876,3.23275585 42.3048553,4.38415723 43.6765328,5.87628063 C43.6895029,6.17640951 43.414828,6.24871974 43.236156,6.38505589 C42.5784393,6.88696701 42.0847275,7.49385222 41.9499356,8.31719474 C41.8804789,8.74040487 41.6672604,9.01449734 41.297916,9.24586641 C39.6699883,10.2657839 38.8705704,11.7096216 38.9786949,13.6236533 C39.0132414,14.235154 39.285492,14.7583677 39.4776189,15.3140085 C39.5515605,15.5278622 39.7425966,15.7296444 39.5532576,15.9726115" id="Fill-10" fill="#DEEBFD"></path>
                <path d="M54.8555939,42.4390244 C54.8496545,38.2014969 54.8437152,33.9639694 54.8377759,29.7265609 C54.8370486,29.21167 54.8378971,28.696779 54.8347456,28.1818881 C54.8269881,26.8956722 54.0368155,26.1394596 52.704831,26.1366037 C49.5785644,26.129821 46.4522977,26.1214914 43.3259099,26.1137567 C43.206881,25.9312185 43.2651833,25.7277372 43.2648197,25.5348465 C43.2602137,23.2388398 43.261547,20.9429522 43.2620318,18.6469455 C43.262153,17.9311912 43.3091828,17.8680049 44.0415379,17.8621741 C45.9970303,17.8463478 47.9527651,17.8572954 49.9083787,17.8563434 C51.9447187,17.8553914 53.9811798,17.841707 56.0171561,17.8619362 C57.107204,17.8727647 58.0810109,17.5778953 58.9656066,16.9649526 C59.1430591,16.8420308 59.3108147,16.6797218 59.562327,16.7363634 C60.0823209,17.9517773 60.6797685,19.1345866 60.9721287,20.4386518 C61.3193974,21.9882034 61.4558807,23.5303773 61.291519,25.1222912 C61.0895819,27.0792813 60.5394065,28.9028782 59.5843873,30.6252104 C59.1111807,31.4786419 58.5035514,32.2362824 57.9448912,33.0304544 C56.9995689,34.3741449 56.3293949,35.8229078 56.1565484,37.4839576 C56.000429,38.9846024 55.9220057,40.5122589 55.2041959,41.9027144 C55.1048031,42.0951291 55.0652884,42.3181256 54.8555939,42.4390244" id="Fill-12" fill="#DEEBFD"></path>
                <path d="M7.1261987,31.3500142 C7.13318901,35.0512914 7.14078194,38.7525687 7.14656703,42.4539645 C7.14716964,42.8670238 7.13704574,43.2802018 7.13186326,43.6933798 C5.53373299,42.6821498 4.13096992,41.4635003 3.05855942,39.9077345 C1.79246903,38.0708606 1.01280804,36.06442 0.740667907,33.8408295 C0.413931016,31.1709546 0.879268949,28.6503554 2.09076258,26.2811678 C3.11170991,24.2848133 4.56882869,22.6162008 6.47332753,21.354596 C6.66700742,21.226442 6.91528407,21.1507362 7.02520072,20.9154312 C7.24780605,20.6911617 7.53983242,20.7228442 7.81522666,20.7214203 C11.316289,20.7019599 14.8173513,20.7451525 18.3182931,20.6970948 C18.4605098,20.6951962 18.5987493,20.7031465 18.7175846,20.7928543 C18.7249365,22.4297842 18.7173436,24.0669515 18.7489205,25.7034068 C18.7579597,26.1754407 18.4876274,26.1348586 18.176438,26.1345026 C15.1709648,26.1310615 12.1654915,26.1252471 9.16013886,26.1346213 C7.95491241,26.1384184 7.1698279,26.9192085 7.14994166,28.1000052 C7.14066142,28.652254 7.15090584,29.2047401 7.14849539,29.7569889 C7.14753121,29.9736641 7.13596103,30.1903392 7.12933229,30.4068958 C6.691353,30.706515 6.19407656,30.5338631 5.72415877,30.5734959 C5.42526261,30.5986521 5.12106345,30.5511877 4.82409565,30.6165699 C4.68296363,30.6476591 4.54508573,30.7071083 4.5438805,30.8772684 C4.5427958,31.0481404 4.67946848,31.11376 4.82156468,31.1387975 C5.27930968,31.219843 5.74308082,31.1606311 6.20347733,31.1823461 C6.51767986,31.1971787 6.85249177,31.1150652 7.1261987,31.3500142" id="Fill-14" fill="#DEEBFD"></path>
                <path d="M59.4355667,16.7935488 C58.3335291,17.7710914 57.0430042,18.1300411 55.5550107,18.1122654 C51.65455,18.0658117 47.7531184,18.1056292 43.8521723,18.0861945 C43.3388995,18.0837059 43.152961,18.1864492 43.1601218,18.7318063 C43.1927703,21.1983562 43.1765068,23.6654987 43.1778418,26.1324042 C42.955371,25.9919765 43.0616909,25.7729804 43.0612055,25.5934463 C43.0534378,23.1266593 43.0434855,20.6597539 43.0676381,18.1932039 C43.0723715,17.7021218 42.9215089,17.4405827 42.4408845,17.2687513 C41.4588816,16.9178599 40.4983612,16.5093753 39.5291021,16.1249472 C39.5314081,15.8964707 39.3965663,15.7164626 39.3034757,15.5218784 C38.1073765,13.0215547 39.0186208,10.5109211 41.3212483,9.16423747 C41.4739315,9.07488518 41.6823234,9.02712791 41.6978587,8.81654565 C41.7939836,7.50884993 42.6165066,6.69022174 43.6576166,6.01533935 C44.6039367,5.76174 45.540426,5.61135796 46.4837119,6.06451867 C46.7501186,6.19250339 46.8497632,5.89671648 46.9591173,5.71931544 C47.6611202,4.58108096 48.6661833,3.77572527 49.9211468,3.31154365 C52.3733019,2.4045112 55.0908926,3.13580167 56.7046252,5.14184364 C57.5199874,6.15541152 57.9894457,7.26840456 57.973789,8.55785061 C57.9697838,8.89132191 58.1325407,9.03471219 58.4025885,9.18699031 C60.9698021,10.6341657 61.7065166,13.7226266 60.0495764,16.0672355 C59.8676431,16.324627 59.6412885,16.5521554 59.4355667,16.7935488" id="Fill-16" fill="#D2D2E4"></path>
                <path d="M19.0547387,20.7679122 C18.7435834,20.855571 18.4287789,20.8903506 18.1022969,20.8899957 C14.4861804,20.8851455 10.870064,20.8886944 7.25394754,20.890114 C6.06503735,20.8252867 4.86396315,21.0284042 3.685514,20.7726441 C2.43420245,20.5011504 1.46570409,19.4219185 1.30051686,18.1672508 C1.14384443,16.9783567 1.83038107,15.616866 2.95822794,15.1316079 C3.56691492,14.8696963 3.74000876,14.5595192 3.75521377,13.9170432 C3.80350489,11.8657573 5.81385057,10.0359251 7.92515753,9.99866126 C8.5383452,9.98789615 9.13815245,10.0165242 9.70584673,10.2608094 C9.90728271,10.3474035 10.0847556,10.3863235 10.2574845,10.2097047 C11.7143678,8.72045225 13.5096538,8.34189892 15.5276628,8.69359863 C15.6061207,8.70732118 15.6894442,8.6947816 15.7703348,8.69442671 C16.6702282,9.15708987 17.6332527,9.52085597 18.3287907,10.2966537 C18.9727533,11.0149587 19.4599219,11.8141794 19.6521132,12.7540564 C19.7046617,13.0111177 19.7977164,13.1870267 20.0256699,13.3117128 C21.0715314,13.8835649 21.780693,14.7185116 22.0841851,15.8553546 C22.1299217,16.0265317 22.1786994,16.14897 22.371134,16.1733394 C22.0204457,16.3831999 21.6356981,16.5113165 21.2421924,16.6187311 C21.0481765,16.4757089 21.0153336,16.2534271 20.9502562,16.0486534 C20.8598776,15.7640286 20.7424949,15.4901689 20.5607646,15.2514437 C20.4079847,15.0506921 20.2608002,14.7285669 20.0024366,14.7713908 C19.7527096,14.812795 19.8404121,15.1718292 19.7608594,15.3845289 C19.698823,15.5505009 19.6704809,15.729249 19.5602749,15.8758201 C19.4188075,16.0639138 19.2308736,16.1715649 18.9866203,16.139033 C18.7192554,16.1034253 18.5511488,15.942067 18.4708663,15.6967171 C18.4004367,15.4815332 18.4511606,15.268242 18.4958026,15.0549509 C19.091474,12.2143813 17.0458527,9.73284584 14.0549663,9.70965944 C13.0968074,9.70220667 12.2359605,10.0549711 11.4772913,10.6308453 C11.2136972,10.8307688 11.187423,11.0380268 11.4232831,11.2739128 C11.5079446,11.3584958 11.5917546,11.4446167 11.6664416,11.5379538 C11.8969496,11.8263641 12.0251582,12.1541676 11.7326138,12.444589 C11.4136735,12.7610359 11.0646881,12.6165942 10.7553574,12.3746749 C10.6130385,12.2634749 10.4906686,12.1309812 10.3572294,12.0101991 C8.84220213,10.6395994 6.52045783,10.8999731 5.38117679,12.5710495 C5.08461826,13.0061492 4.92174219,13.4885681 4.87710028,14.0097888 C4.84596042,14.3730817 4.9724661,14.6093226 5.3639039,14.7068001 C5.77821003,14.8100742 6.1692829,14.9825525 6.48773664,15.2701348 C6.76519768,15.5205715 6.90179949,15.8346524 6.67542729,16.1674245 C6.45598858,16.4899046 6.11928882,16.4280348 5.79901048,16.3096186 C5.64720366,16.2534271 5.51193988,16.1638756 5.36779638,16.0920687 C4.57859551,15.6989647 3.84559236,15.7976252 3.15394683,16.320502 C2.43408081,16.8647907 2.2826389,17.6088846 2.50974094,18.3922534 C2.7372079,19.1772784 3.36499238,19.6080011 4.193483,19.7449901 C4.29347115,19.7615518 4.39455406,19.7706608 4.49588025,19.7707791 C8.99340075,19.7782318 13.4909213,19.7792965 17.9884418,19.7724352 C18.3404682,19.7718438 18.7042937,19.5529926 19.0450075,19.8164421 C19.0482918,20.1335988 19.0514545,20.4507555 19.0547387,20.7679122" id="Fill-18" fill="#D2D2E4"></path>
                <path d="M56.6735395,59.7774841 C57.3021492,59.5830097 57.8555274,59.2841803 58.2358848,58.7456446 C58.7229104,58.9979792 59.2479717,58.8308276 59.7543151,58.8628573 C60.1097153,58.8854733 60.4997917,58.87583 60.5084308,59.313914 C60.5179097,59.7973449 60.1052758,59.7934416 59.7289979,59.7904568 C58.7105518,59.7823058 57.6919857,59.7812726 56.6735395,59.7774841" id="Fill-20" fill="#D1D1E3"></path>
                <path d="M3.71012412,58.7456446 C4.1033576,59.2844778 4.67144443,59.5904138 5.32646048,59.7805903 C4.56001584,59.7834613 3.79344684,59.7825426 3.0270022,59.7908111 C2.65379104,59.7948305 2.33131969,59.7069773 2.34400464,59.307446 C2.3553216,58.9476496 2.65963607,58.8661126 3.00934276,58.8623229 C3.24525797,58.8597964 3.51189067,58.9593634 3.71012412,58.7456446" id="Fill-22" fill="#D2D2E4"></path>
                <path d="M25.7249504,7.52257305 C24.7162902,7.52257305 23.707509,7.52316913 22.6988488,7.52245384 C21.3506985,7.52150012 20.6462836,6.82230434 20.6671157,5.5070056 C20.6791063,4.75642817 21.3395558,4.05508651 22.1369883,3.95160792 C22.2944401,3.93122216 22.466547,3.97938501 22.6038933,3.87030331 C22.7590439,3.74715425 22.9600976,3.63318474 22.9504083,3.41168333 C22.9408401,3.19387759 22.7803604,3.03746755 22.5667105,3.0083791 C22.1567304,2.95258649 22.1928231,2.69079043 22.2964991,2.44163114 C22.659607,1.56850072 23.3286558,1.01164761 24.2675527,0.866086135 C25.1712047,0.726008548 25.9203116,1.08734911 26.5086967,1.77355047 C26.6948531,1.99076014 26.6963065,2.20594315 26.5102712,2.41325798 C26.2349729,2.72011731 26.4419614,2.91384163 26.6640895,3.10732752 C26.924006,3.33371674 27.1130692,3.16967695 27.2771824,2.98095966 C27.6848613,2.51268326 28.1333565,2.16397948 28.7820577,2.52961179 C28.9921953,2.64799225 29.4055667,2.82133082 28.822753,3.04998512 C28.6562175,3.11531492 28.4976757,3.27804336 28.5754326,3.47582099 C28.6810464,3.74476995 28.8864604,3.90725995 29.2080253,3.95041577 C30.2680389,4.0924008 30.6483454,4.47102753 30.8500048,5.3851679 C31.1312379,6.65981433 29.9914083,7.5460584 29.0536015,7.52579186 C27.9445356,7.50171043 26.8345007,7.52018875 25.7249504,7.52018875 C25.7249504,7.52090404 25.7249504,7.52173855 25.7249504,7.52257305" id="Fill-24" fill="#F8FAFD"></path>
                <path d="M51.9514028,32.6132404 C51.9584392,35.7554256 51.9681446,38.8977294 51.9717841,42.0399145 C51.9761515,45.7361216 51.9679019,49.4323286 51.9862209,53.128417 C51.9884046,53.5788934 51.8845569,53.7286963 51.3916445,53.7282219 C37.8664569,53.7131586 24.3412693,53.7124469 10.816203,53.7221728 C10.3811589,53.7225286 10.1824411,53.6455515 10.2350928,53.1784699 C10.2813147,52.7679648 10.2594776,52.3501059 10.2676058,51.9354494 C10.3595644,51.6837614 10.5990449,51.6051238 10.8102584,51.493157 C11.6102251,51.0694863 12.4379735,50.6990709 13.2744567,50.3554611 C14.9134543,49.6822374 16.4298,48.7607654 18.0815359,48.1174311 C19.6771019,47.4958022 21.1205359,46.5563016 22.7298107,45.9713229 C23.852239,45.5633085 24.8668161,44.9527102 25.9288283,44.4349827 C26.9411004,43.9415699 28.0511542,43.66533 29.0085909,43.0605435 C29.1234784,42.9879549 29.265541,42.9357671 29.3999607,43.0470221 C29.7994588,43.3456792 30.2186103,43.6227494 30.593117,43.9489237 C30.9869131,44.2918218 31.3017317,44.2527995 31.7023216,43.9396722 C33.9076286,42.2156928 36.1300414,40.5125886 38.3474802,38.8034354 C38.4262152,38.7428262 38.5140489,38.6933664 38.5976366,38.6386877 C39.6723871,38.1009152 40.7482295,37.5739362 41.8656838,37.114327 C42.8632764,36.7039404 43.7975415,36.136753 44.7951341,35.7058471 C46.6762812,34.893258 48.4928874,33.9467595 50.3667554,33.1204118 C50.8679174,32.8994435 51.3707779,32.623085 51.9514028,32.6132404" id="Fill-26" fill="#DEF1FD"></path>
                <path d="M10.2491258,49.4839091 C10.2411587,45.6472229 10.2290874,41.8105367 10.2269146,37.9738505 C10.2254661,35.4890076 10.2386238,33.0041647 10.2451423,30.5193218 C10.4685822,30.2948697 10.7604663,30.3184963 11.0388306,30.3177803 C13.4726473,30.312172 15.906464,30.3122913 18.3402807,30.3175416 C18.6191278,30.3182576 18.9102877,30.2968983 19.1344519,30.5193218 C19.7864231,34.1763032 21.5908419,37.1478765 24.5496396,39.4379795 C25.4650068,40.1464175 26.3646812,40.8746635 27.2714777,41.5938408 C26.4111557,42.1435753 25.4450891,42.48616 24.5363612,42.9416271 C22.8562769,43.7838294 21.1499978,44.5829551 19.4390109,45.3567836 C16.8142262,46.5437185 14.2534194,47.8645371 11.5978528,48.9844109 C11.3564267,49.0861959 11.1440924,49.2390524 10.9120819,49.3553951 C10.7074733,49.4578961 10.509866,49.6454764 10.2491258,49.4839091" id="Fill-28" fill="#C6E7FD"></path>
                <path d="M18.9005936,19.929409 C14.094354,20.2026 9.2837454,19.9804838 4.47568539,20.0469999 C3.35258704,20.0624412 2.31468591,19.302495 2.17026328,18.4116546 C1.9730475,17.1955982 2.51432896,16.2766073 3.71959044,15.8595753 C4.32361686,15.6505247 4.91283692,15.7662152 5.4547252,16.1010524 C5.77755226,16.3004818 6.18290654,16.6150079 6.45415409,16.1919181 C6.75137343,15.728206 6.32126099,15.4456315 5.92634398,15.242995 C5.72985638,15.1420331 5.53215515,15.0346571 5.32231756,14.9683786 C4.57326169,14.7315338 4.43599951,14.5593047 4.61246212,13.7981707 C4.89839466,12.5646538 5.59599238,11.6363982 6.86120745,11.2244736 C8.18552658,10.7934257 9.35692762,11.1207798 10.3858479,12.0069878 C10.5374309,12.1374068 10.6665618,12.2926506 10.8172953,12.4241386 C11.0410897,12.6194108 11.3095459,12.6620524 11.5231457,12.4521704 C11.7150215,12.2637874 11.670117,12.0161337 11.5054267,11.8043513 C11.4688962,11.7573149 11.422414,11.7178804 11.3816358,11.6739323 C10.6886499,10.9262203 10.6950822,10.9352475 11.5259371,10.3714049 C14.1240881,8.60872887 17.9148788,10.0817037 18.5476684,13.2549957 C18.685416,13.9456939 18.7243737,14.6195255 18.4858943,15.2940698 C18.3585839,15.6542069 18.3851626,16.0038914 18.8160032,16.1039031 C19.232887,16.2007077 19.3588624,15.8884385 19.4220928,15.5411295 C19.4887214,15.174816 19.5879968,14.814085 19.6833885,14.4065553 C20.5267439,14.9848888 20.9870758,15.7460228 21.0927835,16.7188204 C20.5394871,16.9461629 19.9928656,17.1914409 19.4304669,17.3945525 C19.0722017,17.5239025 18.9327549,17.7461375 18.9323908,18.1037802 C18.9316627,18.7124023 18.9122445,19.3209057 18.9005936,19.929409" id="Fill-30" fill="#F8FAFD"></path>
                <path d="M31.0450255,55.5979046 C23.7135545,55.5971942 16.3822047,55.5906818 9.05085481,55.6097453 C8.47446873,55.6111662 8.308073,55.4728673 8.30928491,54.8959906 C8.32843315,46.0754124 8.32237358,37.2549527 8.32310073,28.4343745 C8.32322192,27.4652168 8.61977716,27.1812779 9.62930115,27.1811595 C12.5578903,27.1808043 15.4864793,27.1812779 18.4149473,27.1838828 C18.6861735,27.1841197 18.9841831,27.1065634 19.001271,27.558758 C19.0175107,27.9905867 18.8972889,28.1422655 18.4296114,28.1383581 C15.8849565,28.1171633 13.3400593,28.1279383 10.7952832,28.1277015 C10.5529005,28.1277015 10.3093058,28.1423839 10.0683774,28.1241493 C9.4925973,28.0805757 9.27990648,28.3315976 9.28390579,28.8902397 C9.30111496,31.2777896 9.29093489,33.6655762 9.29117727,36.0532445 C9.29154085,41.9533249 9.29190442,47.8534053 9.29299514,53.7534857 C9.29311633,54.5831604 9.36098349,54.6517178 10.1709053,54.6517178 C24.0864603,54.6515994 38.0021365,54.6513626 51.9176914,54.6510074 C52.8885554,54.650889 52.9207923,54.6203401 52.9209135,53.6970058 C52.9217618,45.4684604 52.922489,37.2397966 52.9226102,29.0112513 C52.9226102,28.1931803 52.8591059,28.129004 52.0267637,28.128412 C49.3002006,28.1267543 46.5736374,28.1267543 43.8470743,28.1286488 C43.5186458,28.1288856 43.2193031,28.1844183 43.2116681,27.6755069 C43.2036694,27.1470584 43.5034968,27.1776073 43.8654954,27.1781993 C46.8142023,27.1831724 49.7630303,27.1805675 52.7117372,27.1825804 C53.558986,27.183054 53.8877781,27.4965946 53.8880205,28.3194017 C53.8905655,37.2188387 53.8851119,46.1182756 53.9037754,55.0177125 C53.9049873,55.5673558 53.6713304,55.6064299 53.2211045,55.6058379 C45.829159,55.5956549 38.4370922,55.5986151 31.0450255,55.5979046" id="Fill-32" fill="#929EC4"></path>
                <path d="M42.1702574,19.0431553 C42.1694066,22.4729742 42.2154693,25.9037467 42.1437622,29.3322542 C42.1165378,30.631773 41.7932482,31.9197283 41.190787,33.1099307 C40.1261189,35.4049803 38.3160616,37.0466345 36.297446,38.5141216 C34.7550142,39.6356584 33.2934048,40.8592398 31.7771035,42.0142749 C31.0364542,42.5785004 31.0441111,42.5832689 30.2882697,42.012606 C28.3023477,40.5134088 26.3380593,38.986197 24.3885986,37.4428918 C22.9334306,36.2909562 21.7302098,34.9005986 20.901689,33.2309298 C20.1847395,31.7354282 19.8647314,30.1428888 19.8449208,28.508864 C19.8056642,25.2739551 19.8446777,22.038331 19.8145364,18.8033028 C19.8093103,18.2498063 20.0014611,17.9960061 20.531729,17.940573 C20.7965591,18.3345653 20.2655619,18.4441202 20.226913,18.7496579 C21.5486328,18.4085953 22.7185524,17.8540259 23.5587408,16.7643184 C25.2018057,16.0618081 26.8678411,15.4165192 28.5538087,14.8202259 C28.7201934,15.245809 28.3109768,15.4179497 28.1328029,15.6980955 C29.3481775,15.3592979 30.4601236,14.8627842 31.3761514,14.0069686 C31.504495,14.0284266 31.6391585,14.0359369 31.7250855,14.1541942 C31.7568067,14.1819703 31.7677451,14.2197602 31.7859757,14.2529009 C31.9076347,14.473918 31.2862137,14.6986307 31.7995879,14.9248931 C32.2207152,15.1105046 32.6036797,15.1972902 32.9150587,14.7513219 C32.9478738,14.704472 33.010344,14.6795569 33.0607821,14.6467739 C33.2274099,14.7187773 33.3940378,14.7907808 33.5606656,14.862665 C33.6474434,15.1076435 33.1260477,15.3446349 33.5310105,15.5791229 C33.8726523,15.7770131 34.2396954,15.8777464 34.5684542,15.5261933 C34.6521935,15.436785 34.7671679,15.3964917 34.8821424,15.3598939 C35.0735639,15.3834977 35.2445671,15.4552627 35.3975827,15.569586 C35.3936935,15.588779 35.3868874,15.607972 35.3862797,15.6274034 C35.3797167,15.8386452 34.9042622,15.9759762 35.2220826,16.2006889 C35.4917743,16.3913073 35.8464205,16.6133973 36.2053206,16.2902164 C36.3234551,16.1838802 36.4390372,16.073014 36.6021404,16.0334359 C36.7302409,16.05549 36.8655121,16.0614505 36.9514391,16.1801846 C36.9830388,16.2079608 36.9939772,16.2458699 37.0122078,16.2788913 C37.1347176,16.5001469 36.5118381,16.7246211 37.0253339,16.9512412 C37.4464611,17.1370911 37.8297903,17.2238767 38.1412908,16.7777892 C38.1739843,16.7308201 38.2365761,16.705905 38.2868926,16.6730028 C38.4538851,16.744887 38.620756,16.8167712 38.7876269,16.8886554 C38.88352,17.1269582 38.3470537,17.3618038 38.7690317,17.590212 C39.1071489,17.7733201 39.4670213,17.9172077 39.7967524,17.5515876 C39.8781825,17.4613449 39.9942508,17.4228398 40.1083745,17.386242 C40.3001606,17.4090113 40.4714068,17.4805379 40.6241794,17.5958149 C40.6201687,17.6151271 40.6133626,17.6343201 40.6127549,17.6536322 C40.6063134,17.8649933 40.1304943,18.0025627 40.4485578,18.2272754 C40.7184925,18.4181322 41.0736249,18.640103 41.432282,18.3158492 C41.5502948,18.2091554 41.6666062,18.0993621 41.8291017,18.0584727 C42.0641552,18.0872025 42.242086,18.1636168 42.1689205,18.4498423 C42.0413061,18.6478517 41.9316794,18.8458612 42.1702574,19.0431553" id="Fill-34" fill="#ECF4FD"></path>
                <path d="M24.6760206,57.7346165 C25.0061092,57.8268107 25.3432235,57.8487723 25.6877269,57.8483263 C29.3194279,57.8430868 32.951129,57.8425294 36.5829511,57.8435327 C36.8660399,57.8435327 37.1463427,57.8407457 37.4186506,57.7596996 C38.2353321,57.6258119 39.0601296,57.6649414 39.8826255,57.6647185 C44.4831516,57.6632692 49.0836777,57.667617 53.6842038,57.6619315 C55.0427151,57.6601478 56.4209712,57.8083049 57.7225497,57.28223 C57.8673042,58.041633 57.0243367,58.7493092 56.0890656,58.7456303 C49.6143632,58.7199899 43.1395397,58.7322527 36.6647162,58.7325871 C26.498594,58.7330331 16.332593,58.7343708 6.16647079,58.7333675 C5.04392739,58.733256 4.47145086,58.2359429 4.47423692,57.2825644 C5.95654657,57.8861181 7.52570888,57.6475505 9.06143837,57.6552427 C13.7645645,57.6790994 18.4678117,57.6640496 23.171059,57.6638266 C23.674005,57.6638266 24.1777988,57.6500031 24.6760206,57.7346165" id="Fill-36" fill="#C9D6E3"></path>
                <path d="M57.4766791,57.2918094 C56.9568799,57.7514312 56.3614298,57.9117924 55.6599721,57.9093809 C49.7481153,57.8885219 43.836138,57.8966003 37.9242812,57.8910539 C37.7110611,57.8908128 37.4814581,57.9613476 37.2852234,57.8082207 C37.7363584,57.616149 38.0612479,57.293618 38.1677375,56.8141017 C38.23339,56.5182172 38.3656587,56.4456327 38.6518795,56.4459944 C44.7867139,56.4532287 50.9215482,56.4541933 57.0562622,56.4463561 C57.8192767,56.4453915 57.4051239,56.976995 57.4766791,57.2918094" id="Fill-38" fill="#ECF4FD"></path>
                <path d="M24.5017182,57.7741681 C24.2799447,57.9874426 24.0028793,57.8845775 23.7534599,57.884817 C17.8288692,57.8903255 11.9042785,57.8826615 5.97980911,57.8949957 C5.31994495,57.8964327 4.75126379,57.7517749 4.27982832,57.2885825 C4.22781036,56.4552432 4.22781036,56.4571592 5.0684642,56.4570395 C11.0473767,56.4559617 17.0261679,56.4571592 23.0049591,56.4460225 C23.4006108,56.445304 23.6936817,56.4536865 23.7658278,56.9443016 C23.825121,57.3470204 24.1803952,57.5617319 24.5017182,57.7741681" id="Fill-40" fill="#ECF4FD"></path>
                <path d="M29.4020619,42.9568643 C27.5964035,43.8986354 25.6728236,44.5933087 23.8672868,45.5507384 C22.693542,46.1731686 21.3886247,46.59002 20.1985898,47.2101963 C18.3367667,48.1805562 16.3610339,48.9106987 14.4972658,49.8877016 C13.1201367,50.6096589 11.6260587,51.1357648 10.2300865,51.8466899 C10.2289924,51.3702882 10.2278982,50.8941239 10.2268041,50.4178408 C10.3078904,50.2178376 10.485259,50.1231741 10.6674903,50.0333743 C12.0722154,49.3404803 13.506968,48.7066621 14.9174068,48.0274102 C17.3248297,46.8679605 19.8167428,45.880993 22.1716481,44.6150173 C22.7889734,44.283102 23.4629497,44.0567638 24.1116397,43.7886692 C25.3217335,43.2884238 26.4182822,42.5621959 27.6626584,42.1371593 C27.8356505,42.077965 28.009372,42.0363273 28.1908739,42.0209059 C28.5946032,42.3328921 28.9983325,42.6448782 29.4020619,42.9568643" id="Fill-42" fill="#C6E7FC"></path>
                <path d="M28.1237113,42.0153577 C26.3030033,42.8223113 24.5737364,43.818886 22.6924713,44.5014747 C22.4134245,44.602669 22.1646561,44.7812959 21.8972362,44.9155911 C20.6085824,45.5625962 19.2978857,46.1627872 17.963693,46.7167551 C17.394699,46.9528357 16.8631293,47.2733237 16.3039456,47.5334026 C14.2750424,48.477134 12.2164663,49.3601016 10.2268041,50.3832753 C10.2282575,49.9924477 10.229832,49.6016202 10.2312853,49.2107927 C10.8767023,49.0365399 11.4075453,48.6312898 12.0112991,48.365773 C13.9873965,47.4968733 15.9100826,46.5112928 17.8906612,45.6526781 C19.9049095,44.7795226 21.8298968,43.7267945 23.874787,42.9144028 C24.8348584,42.5330327 25.7123299,41.958495 26.681727,41.5773613 C26.8872576,41.4966187 27.0797079,41.3875038 27.310188,41.3940058 C27.5813625,41.6011231 27.8525369,41.8082404 28.1237113,42.0153577" id="Fill-44" fill="#DEF1FD"></path>
                <path d="M51.9801598,32.6477052 C50.7498104,33.1892773 49.4878917,33.6728238 48.2961812,34.2857117 C46.440906,35.2399893 44.4960422,36.0029842 42.6168767,36.9059999 C41.2921851,37.5425014 39.9907743,38.2528105 38.5635739,38.6759582 C39.4748174,37.8010653 40.2789203,36.838244 41.0256135,35.8284328 C41.2731704,35.8735242 41.5126826,35.8490799 41.7372025,35.7367072 C42.6941545,35.2581445 43.6856011,34.8488802 44.6371899,34.3594006 C45.9123945,33.7034386 47.2693868,33.2171628 48.5500764,32.5701004 C49.4137831,32.1336626 50.2720049,31.6791882 51.1887334,31.3519192 C51.4400689,31.2622109 51.6817751,31.0417374 51.9862543,31.2134409 C51.9841822,31.691529 51.982232,32.1696171 51.9801598,32.6477052" id="Fill-46" fill="#C6E7FD"></path>
                <path d="M41.5463918,34.8876398 C42.2021521,33.4875815 42.6904997,32.0313653 42.9985102,30.5144936 C43.1719624,30.3482078 43.3915557,30.3231677 43.6135649,30.3223168 C45.7353344,30.3145374 47.8571038,30.3055424 49.9787525,30.3266928 C50.0790069,30.3276652 50.1780535,30.3445612 50.2738387,30.3694798 C50.4848561,30.4450863 50.5918746,30.5532693 50.3785622,30.7489712 C50.2434,30.8728346 50.076712,30.9456454 49.9167881,31.0289099 C47.4626088,32.3076574 44.9125236,33.3864486 42.4521842,34.6531622 C42.1771489,34.7947726 41.8914843,34.9812363 41.5463918,34.8876398" id="Fill-48" fill="#C6E7FD"></path>
                <path d="M20.8797251,33.1526132 C21.4389146,33.7472968 21.7825275,34.4907111 22.3094654,35.1157382 C23.2943519,36.2838413 24.433464,37.2695252 25.6461729,38.1933277 C27.2970671,39.4510275 28.9265006,40.736562 30.5497506,42.0290254 C30.8476536,42.2661582 31.0244312,42.3169297 31.3585869,42.050887 C33.4339656,40.3983641 35.5248639,38.7639994 37.6310392,37.1494656 C39.0068248,36.0947323 40.0203254,34.7586652 40.8848139,33.2922647 C40.9428911,33.1935888 41.0408584,33.1178496 41.1202749,33.0313589 C40.3636959,35.1307905 39.0318016,36.8370715 37.3084019,38.2328698 C35.3460251,39.8223165 33.3176901,41.3326792 31.3328826,42.8957248 C31.0594715,43.1108766 30.8900899,43.1290348 30.6169213,42.9120912 C28.4504863,41.1918331 26.2332491,39.5310673 24.1127667,37.7580069 C22.6370738,36.5240801 21.5538564,34.9628264 20.8797251,33.1526132" id="Fill-50" fill="#C1E2FB"></path>
                <path d="M19.1752577,30.5226481 C16.2005876,30.5226481 13.2259174,30.5226481 10.2513684,30.5226481 C10.177447,29.0717366 10.177447,29.0710139 11.6533303,29.0702913 C13.9320486,29.0692072 16.2107669,29.0799271 18.4892428,29.0593305 C18.9348314,29.0552353 19.1099403,29.1796577 19.0846131,29.6325405 C19.0682535,29.9266735 19.1419325,30.2257448 19.1752577,30.5226481" id="Fill-52" fill="#8BC3E8"></path>
                <path d="M50.6176396,30.5391092 C48.0910234,30.5372842 45.5644072,30.5354591 43.0379133,30.533634 C43.0362004,29.0696991 43.0362004,29.0700642 44.467868,29.0701858 C46.7294648,29.0705508 48.9913063,29.0855163 51.2526583,29.0594789 C51.7853889,29.0533954 52.062032,29.1570583 51.9681863,29.7477667 C51.9273199,30.0053424 51.9521579,30.27326 51.9471413,30.5364325 C51.5044635,30.791818 51.0612962,30.8008216 50.6176396,30.5391092" id="Fill-54" fill="#8BC4E8"></path>
                <path d="M50.460537,30.5252858 C50.8980899,30.5244465 51.3356429,30.5236073 51.7731959,30.5226481 C51.7722294,30.7599219 51.771263,30.9970758 51.7701758,31.2343496 C50.2900822,31.7359936 48.9344169,32.5066838 47.5295844,33.170427 C45.5987701,34.0825943 43.6773786,35.0144245 41.7367792,35.9054901 C41.5090632,36.0100392 41.171053,36.4428631 40.9072165,35.8973372 C41.1129461,35.5426854 41.3186758,35.1880336 41.5244054,34.8333818 C43.3327241,34.0415899 45.0864393,33.1351776 46.8858186,32.3222841 C48.0977267,31.7748399 49.3223194,31.2282349 50.460537,30.5252858" id="Fill-56" fill="#DDF1FD"></path>
                <path d="M23.6494845,16.7247387 C23.4199668,17.4155494 22.8575572,17.8372226 22.2941734,18.1750501 C21.7170307,18.5211888 21.0343221,18.6908358 20.3955689,18.9318618 C20.281358,18.9750069 20.1364635,19.1297426 20.0481875,18.9069281 C19.9890121,18.7576924 20.0630422,18.646224 20.1901597,18.5462447 C20.3917943,18.38772 20.6349492,18.2471623 20.6169287,17.930724 C21.6076902,17.4778837 22.6077055,17.0483881 23.6494845,16.7247387" id="Fill-60" fill="#FCFCFD"></path>
                <path d="M7.24094565,31.3540172 C6.52055583,31.3551911 5.80016601,31.3532345 5.07977619,31.3588433 C4.74753147,31.3614521 4.47364301,31.2422328 4.47422774,30.8330524 C4.47469552,30.4213937 4.75115681,30.3105224 5.0828168,30.3136528 C5.80308967,30.3201747 6.52359644,30.3167833 7.24398625,30.3173051 C7.24293374,30.6629627 7.24199817,31.0084899 7.24094565,31.3540172" id="Fill-62" fill="#FCFCFC"></path>
                <path d="M31.3195876,13.9301784 C30.7032246,14.9415346 29.6078974,15.2126526 28.5941884,15.6064164 C28.3402782,15.7050047 28.0733284,15.7715165 27.6975945,15.8885017 C27.9587489,15.402046 28.4523223,15.2049872 28.5159508,14.7349236 C29.2292657,14.4480031 29.9425807,14.1609648 30.6561371,13.8747519 C30.8866243,13.7822958 31.1131271,13.7440869 31.3195876,13.9301784" id="Fill-64" fill="#FCFCFC"></path>
                <path d="M34.9415808,15.3321688 C34.672632,15.6151603 34.506499,16.0264006 33.9480144,15.8429368 C33.0716268,15.5550217 33.0499625,15.5400163 33.6400459,14.8432056 C34.0981086,14.9444917 34.5244528,15.1264315 34.9415808,15.3321688" id="Fill-66" fill="#FCFCFC"></path>
                <path d="M38.3505155,16.5580095 C37.9699237,17.2945045 37.7678427,17.3161072 36.6460481,16.7313876 C36.6677039,16.4654744 37.0650461,16.389531 37.0358526,16.097561 C37.5012729,16.1836376 37.9211084,16.3827384 38.3505155,16.5580095" id="Fill-68" fill="#FCFCFC"></path>
                <path d="M40.0549828,17.4216539 C39.5057727,18.0880594 39.2027643,18.1329305 38.4971891,17.6842198 C38.3116594,17.5663164 38.3109567,17.4701474 38.445536,17.3245501 C38.5623119,17.1984671 38.6703034,17.0644382 38.7822771,16.9337979 C39.2308748,17.0331219 39.646794,17.2173971 40.0549828,17.4216539" id="Fill-70" fill="#FCFCFC"></path>
                <path d="M33.024055,14.6764068 C32.6430508,15.4129909 32.4417791,15.434606 31.3195876,14.8497732 C31.3404088,14.5834843 31.7384051,14.5079429 31.7089682,14.2160279 C32.1745735,14.3020425 32.5945876,14.501035 33.024055,14.6764068" id="Fill-72" fill="#FCFCFC"></path>
                <path d="M36.6460481,15.9293357 C36.3683582,16.3126806 36.1228608,16.7508734 35.5255117,16.3676464 C35.3349799,16.2453299 34.9617857,16.2724589 34.9427087,16.0438673 C34.920174,15.7721053 35.240191,15.6233674 35.464346,15.4703833 C35.8778404,15.5739454 36.2740462,15.7211499 36.6460481,15.9293357" id="Fill-74" fill="#FCFCFC"></path>
                <path d="M41.7594502,18.018685 C41.4817594,18.4015051 41.23732,18.841878 40.6391526,18.4585861 C40.4484636,18.3364045 40.0753092,18.3635298 40.0561211,18.134734 C40.0334768,17.8627737 40.3535959,17.7140565 40.5777746,17.5609756 C40.9915696,17.663344 41.3865341,17.8130047 41.7594502,18.018685" id="Fill-76" fill="#FCFCFC"></path>
                <path d="M53.3918856,24.2495246 C52.7773666,24.2495246 52.1627241,24.2461364 51.5482051,24.2508277 C51.195922,24.2535643 50.9141697,24.1272907 50.9210869,23.7190193 C50.9280041,23.3090537 51.221491,23.2061062 51.568092,23.2072791 C52.776749,23.2111884 53.985406,23.2098853 55.1939394,23.205585 C55.546346,23.2042818 55.8280983,23.3292523 55.8211812,23.7375237 C55.8141404,24.147359 55.5207771,24.2527824 55.1740525,24.2491337 C54.580038,24.2428786 53.9859001,24.2474396 53.3918856,24.2474396 L53.3918856,24.2495246 Z" id="Fill-80" fill="#FCFCFC"></path>
                <path d="M53.470324,20.4847882 C52.9558805,20.4847882 52.4413177,20.4832222 51.9268741,20.4853102 C51.6111468,20.4867456 51.3576823,20.3575542 51.3474244,19.9883798 C51.3362123,19.5799259 51.5993383,19.4415997 51.9416645,19.4425132 C52.9705516,19.4451231 53.999558,19.4457756 55.0284451,19.4448621 C55.3442917,19.4444706 55.5977562,19.5727486 55.6078948,19.941923 C55.6192262,20.3502464 55.3561002,20.489486 55.0137739,20.4877896 C54.4992111,20.4851797 53.9847676,20.4871371 53.470324,20.4871371 L53.470324,20.4847882 Z" id="Fill-82" fill="#FCFCFC"></path>
                <path d="M54.7520463,22.3671841 C54.2912536,22.3670535 53.8304608,22.3705802 53.369668,22.365878 C53.0691195,22.3628737 52.8520768,22.2046958 52.8391461,21.8744943 C52.8246443,21.5044545 53.051234,21.330733 53.3778857,21.3286431 C54.2994712,21.3225041 55.2210567,21.3231571 56.1426423,21.3268144 C56.4423449,21.32799 56.6603543,21.4874742 56.6729225,21.8181981 C56.6869409,22.1877155 56.4607137,22.3597389 56.1344246,22.3652249 C55.6737527,22.3730619 55.2128391,22.3673147 54.7520463,22.3671841" id="Fill-84" fill="#FCFCFC"></path>
                <path d="M50.8118046,22.3670024 C50.6708307,22.3660906 50.5297348,22.3701286 50.3888828,22.3651788 C50.0877888,22.3547584 49.8692548,22.1991031 49.8563281,21.872813 C49.8418161,21.5066647 50.0687646,21.3382443 50.3976632,21.3287357 C50.6391237,21.3218321 50.8811941,21.3335551 51.1226546,21.3249582 C51.4622848,21.3129747 51.7587447,21.4153556 51.772647,21.819278 C51.7880127,22.2668359 51.4786261,22.3809398 51.1139962,22.3684352 C51.0132657,22.3650486 50.9125352,22.3679142 50.8118046,22.3670024" id="Fill-86" fill="#FBFBFB"></path>
                <path d="M3.9218892,35.3283036 C3.32779769,35.3290848 2.73370618,35.3241369 2.13961467,35.3309077 C1.79244398,35.334814 1.49947242,35.228434 1.49157096,34.820232 C1.48366949,34.4129415 1.76577654,34.2857283 2.11776218,34.2865095 C3.32643963,34.2893741 4.53511708,34.2905459 5.74379453,34.2857283 C6.09121214,34.284296 6.38813443,34.392629 6.39171478,34.7979665 C6.39578898,35.2506996 6.06985349,35.3352046 5.70416374,35.3298661 C5.11019569,35.3211421 4.51598072,35.3275223 3.9218892,35.3283036" id="Fill-88" fill="#FCFCFC"></path>
                <path d="M4.54260592,32.4101535 C4.85416658,32.4098936 5.16673187,32.3942985 5.47703674,32.4145721 C5.75770505,32.4327664 5.95323103,32.6049621 5.96503542,32.9011387 C5.97822118,33.2344836 5.77302565,33.4281225 5.46460445,33.4365698 C4.80029334,33.4547641 4.13497759,33.4526847 3.47054089,33.4368297 C3.18849122,33.4300719 2.99510008,33.2486491 2.98342126,32.9519526 C2.9702355,32.6182179 3.17430083,32.4335461 3.48334991,32.4152219 C3.8353469,32.3944285 4.18947873,32.4104134 4.54260592,32.4101535" id="Fill-90" fill="#FCFCFC"></path>
                <path d="M42.8199407,8.60029757 C43.0608549,7.56819437 43.6938165,6.94169674 44.6844439,6.67841729 C45.6236812,6.42874957 46.5824783,6.92605519 47.1605265,7.5828807 C47.2522513,7.68711787 47.3304907,7.80675779 47.3943943,7.92974093 C47.5170989,8.16615513 47.705408,8.24519866 47.9449858,8.14370772 C48.1679195,8.04926144 48.2679056,7.86621954 48.2649898,7.61726822 C48.2626815,7.41571915 48.1572284,7.25918429 48.0288137,7.14969347 C47.5109029,6.70778996 47.7187719,6.31090067 48.0390189,5.86959417 C49.6283478,3.67918079 52.6901324,3.10175702 54.9154602,4.58901726 C56.067183,5.35867681 56.7989158,6.40773497 57.0846597,7.75374369 C57.2393161,8.48209047 57.2011683,8.54083581 56.4563147,8.54131342 C56.0937893,8.54167162 55.7073304,8.55086551 55.693602,9.00924637 C55.6798737,9.46989585 56.0543051,9.47789573 56.4236339,9.50846241 C57.8781092,9.62929634 59.0028613,10.3088081 59.6449346,11.6021609 C60.2554206,12.8319923 60.251047,14.0787787 59.4798301,15.2805509 C58.6673066,16.5469191 57.5070795,17.145238 55.9934387,17.14285 C51.9262049,17.1361636 47.8588496,17.1449992 43.7916158,17.1383128 C41.9916236,17.1354472 40.4723943,16.1002395 40.0100043,14.4441461 C39.2856824,11.8502764 40.9850811,9.68613127 43.5192357,9.51108924 C43.8194369,9.49043285 44.0964335,9.47622411 44.2219324,9.16637823 C44.3072182,8.95587407 44.2120918,8.78262306 44.0362961,8.64483418 C43.9149278,8.5496715 43.7759436,8.54095521 43.6340435,8.54788048 C43.3780646,8.56029819 43.1224502,8.58035758 42.8199407,8.60029757" id="Fill-92" fill="#F8FAFD"></path>
                <path d="M40.6778369,24.4189876 C40.6778369,25.7217902 40.7020395,27.0251854 40.6732384,28.3272769 C40.5945797,31.870753 39.1231788,34.7695836 36.3470124,37.0189093 C34.7952586,38.2761992 33.1802149,39.4584641 31.6138186,40.6988052 C31.1825271,41.0402694 30.8590585,41.087797 30.4067108,40.7172948 C28.6303563,39.2625459 26.7069707,37.9797737 25.0116951,36.432577 C22.5027261,34.1428351 21.3457178,31.2539604 21.3232093,27.9194399 C21.3049363,25.2152237 21.3279288,22.5107705 21.3059044,19.8066728 C21.3017899,19.3060325 21.5007358,19.071713 21.9614335,18.8959436 C24.829086,17.8020967 27.6883887,16.6869157 30.5458761,15.5675864 C30.8664403,15.4419522 31.1429558,15.4356705 31.4673925,15.562964 C34.3420638,16.6913011 37.2202444,17.8111045 40.1042338,18.9165666 C40.5168892,19.0747946 40.7015555,19.2846984 40.6939317,19.7408927 C40.6676718,21.2998231 40.6838875,22.8595831 40.6838875,24.4189876 C40.6818303,24.4189876 40.6798941,24.4189876 40.6778369,24.4189876" id="Fill-94" fill="#6C6DA9"></path>
                <path d="M22.4035402,21.1427549 C22.3186472,19.8822132 22.3188897,19.8829289 23.4653095,19.4358707 C25.8193934,18.5178987 28.1727496,17.5980181 30.5279249,16.6829088 C30.7125066,16.611222 30.909701,16.5706671 31.1010742,16.5156794 C31.2211372,17.2170406 31.7482017,17.450112 32.3557932,17.6843762 C34.5687121,18.537699 36.7764161,19.4046196 38.9887286,20.2598509 C39.3050158,20.382112 39.6522283,20.4580928 39.826259,20.7956527 C39.8281994,23.5586341 39.8688268,26.3223312 39.8109783,29.0841198 C39.7909678,30.0421697 39.5999584,31.0125053 39.1465084,31.8968407 C38.2237211,34.0326525 36.4373291,35.3947007 34.6520285,36.7608044 C33.6802458,37.5045097 32.7307779,38.276842 31.748808,39.0074266 C31.5502796,39.1549748 31.355632,39.4631921 31.0258832,39.2010166 C30.8502759,38.6761885 30.9489944,38.1357348 30.94002,37.6031535 C30.9231626,36.5896389 30.9232839,35.5755279 30.9408689,34.5620132 C30.9481454,34.1409579 30.8895692,33.8920224 30.3525602,33.9284025 C29.8292552,33.9637092 29.3635563,33.7252702 29.0162225,33.3298599 C28.0258846,32.2023145 26.9893407,31.1154432 25.9966985,29.990164 C25.5644717,29.5002847 25.1851211,28.9808241 25.4366471,28.2700399 C25.6865964,28.0279033 25.7946531,28.2962813 25.8987077,28.4215243 C26.9038413,29.6320881 28.0163038,30.7500912 29.0345352,31.9489656 C29.4889554,32.4839325 30.016505,32.8278141 30.7688999,32.6363712 C30.8865374,32.6064321 31.009511,32.620507 31.1169613,32.6915974 C31.2863835,32.9237146 31.265039,33.1553546 31.1670482,33.3941514 C31.7240678,32.8313925 32.1538691,32.1338483 32.6395785,31.4834192 C34.2034295,29.3893551 35.7408424,27.2759677 37.3119699,25.1871519 C37.6909566,24.6831976 37.9295061,24.1747107 37.8748107,23.5471833 C37.9673441,23.1746746 38.0021502,22.8103962 37.8182962,22.4457599 C37.4840602,21.7829259 36.6561105,21.6074663 36.021717,22.1108242 C35.5514096,22.48381 35.1438018,22.9260969 34.7466236,23.376972 C33.7433092,24.515849 32.5847619,25.5108754 31.5855709,26.6553585 C31.456776,26.8026682 31.2714666,27.0796343 31.0029621,26.7810787 C30.896482,26.4918268 30.9306817,26.1911242 30.9303179,25.8948348 C30.9275286,23.4118015 30.9304392,20.9287682 30.9277711,18.4457348 C30.9270435,17.6893859 30.8938139,17.6587312 30.1894443,17.9213838 C27.8666496,18.7875888 25.5833907,19.7527954 23.2567152,20.6091001 C22.9247834,20.7312419 22.7290444,21.030394 22.4035402,21.1427549" id="Fill-96" fill="#91DF85"></path>
                <path d="M22.3967065,21.1967296 C22.4797403,20.9307683 22.6076245,20.7464492 22.9113949,20.6305813 C25.4955041,19.6449319 28.0718555,18.6391987 30.6451764,17.6265729 C31.2239887,17.3987588 31.0864071,17.8171904 31.0870132,18.0750707 C31.0939226,20.8234568 31.0910134,23.5719618 31.090771,26.3204667 C31.090771,26.5182146 31.0917407,26.7159624 31.0921044,26.9137103 C30.8506396,27.8167667 30.1649136,28.1599733 29.3675466,27.7865816 C28.7844917,27.5134899 28.2353775,27.1783644 27.6591107,26.894696 C26.4584539,26.3038293 25.8488524,26.6200595 25.6581777,27.9095798 C25.64048,28.0291317 25.6130849,28.1428605 25.5176869,28.2286622 C25.4008335,28.8861975 25.6476318,29.4216854 26.0859533,29.9010813 C27.1194516,31.0315953 28.1403432,32.173399 29.1812357,33.297258 C29.5562819,33.702142 30.0696369,33.9104665 30.6033564,33.7708308 C31.1104082,33.6382067 31.0923468,33.8761221 31.0925892,34.2092274 C31.0933165,35.8921043 31.1011957,37.5748625 31.1065292,39.2577394 C31.0820433,39.2727131 31.0574362,39.2878057 31.0329503,39.3031359 C30.5008066,39.1580337 30.1839448,38.7163096 29.7657453,38.4146966 C28.5619368,37.5461035 27.4298889,36.5875493 26.2391719,35.7016057 C24.9526933,34.7444775 23.9131342,33.5762916 23.2023163,32.1427386 C22.6421714,31.0683165 22.4279805,29.8938321 22.3999793,28.7208927 C22.340098,26.2142248 22.3911305,23.7049424 22.3967065,21.1967296" id="Fill-98" fill="#B0EFA7"></path>
                <path d="M39.6180392,20.6968641 C37.9598224,20.0553887 36.302939,19.410767 34.6431464,18.77337 C33.5242137,18.3437388 32.4047961,17.9152728 31.2785905,17.5039361 C30.7357912,17.3057255 30.9397955,16.8743464 30.8973704,16.5156794 C31.9403015,16.7391762 32.8838365,17.2213607 33.8735544,17.581892 C35.5054676,18.1764075 37.1207744,18.8124062 38.7451723,19.4257989 C39.6521005,19.7683852 39.65404,19.7637242 39.6180392,20.6968641" id="Fill-100" fill="#7BD46E"></path>
                <path d="M31.059679,39.1145033 C33.1189354,37.549295 35.2223931,36.0379735 37.103766,34.2553191 C37.7708591,33.6232774 38.2904947,32.8835809 38.7322687,32.085606 C38.7974328,31.967981 38.8333688,31.8221069 38.9896907,31.7770035 C38.3603304,33.6459478 37.1879761,35.1360233 35.6689586,36.3667539 C34.2853003,37.4878119 32.8770856,38.5795527 31.4650378,39.6653588 C31.3323139,39.7673163 31.2064179,40.0746132 30.9330642,39.8500455 C30.889342,39.5986531 30.8383128,39.3460738 31.0425495,39.1318325 L31.059679,39.1145033 Z" id="Fill-102" fill="#AAE2A1"></path>
                <path d="M31.0932565,39.2027089 C31.0661623,39.4466867 31.1923196,39.7137517 30.9825816,39.9303136 C29.3923716,38.6816857 27.7767607,37.4632393 26.2195717,36.1750507 C24.8595411,35.0497945 23.8057714,33.6765924 23.2233677,31.9860627 C23.7080389,32.4148577 23.939186,33.0243815 24.3319305,33.52352 C25.2081366,34.6369921 26.3419793,35.452857 27.4281652,36.3251169 C28.6391778,37.297421 29.8706321,38.2445937 31.0932565,39.2027089" id="Fill-104" fill="#D4F4D0"></path>
                <path d="M25.3688482,28.0195332 C25.3735763,27.7081558 25.3181727,27.3817937 25.3951559,27.0883509 C25.562579,26.4510833 26.3111944,26.1030108 26.982948,26.3263671 C27.8420069,26.6120225 28.5975326,27.1065214 29.3913681,27.5204327 C29.7903468,27.7284502 30.0701531,27.7513404 30.348626,27.3683427 C30.5205347,27.1318894 30.7438464,26.9308333 30.9440025,26.7139665 C32.1063871,25.5469208 33.269984,24.381291 34.4300651,23.2123574 C34.7795807,22.8601553 35.1140632,22.4937942 35.4647911,22.142772 C36.1219966,21.484974 36.6000194,21.3799623 37.2823202,21.7292147 C37.8489645,22.0193538 38.046696,22.6047055 37.8510255,23.4127056 C37.6632352,24.0565806 37.1729678,24.5159183 36.7891433,25.0368471 C35.1443716,27.2700565 33.4905073,29.4970124 31.8167608,31.7098094 C31.5821745,32.0200068 31.3665005,32.3676073 30.93491,32.4683714 C30.212481,32.7186296 29.5486076,32.6781588 29.0104531,32.0800641 C27.7943622,30.728481 26.5823933,29.3732402 25.3688482,28.0195332" id="Fill-106" fill="#6D6DA9"></path>
                <path d="M30.8934708,32.7821748 C32.0871327,31.5762228 32.9694205,30.1393666 33.9920166,28.8069244 C35.3077284,27.0926253 36.5883936,25.3526701 37.8842539,23.6236934 C38.1126684,24.6790506 37.3148106,25.3144844 36.7926678,26.0336882 C35.4577173,27.8723295 34.0721578,29.6761264 32.6964015,31.4864864 C32.1593087,32.1931605 31.6897356,32.9535332 31.0043695,33.6585366 C30.8382053,33.3172519 30.9366049,33.0392123 30.8934708,32.7821748" id="Fill-108" fill="#7CD36E"></path>
                <path d="M30.4798899,31.7733086 C30.1175391,31.8014407 29.9704559,31.6644753 29.8331132,31.5139205 C28.7522705,30.3293897 27.6732542,29.1434284 26.5913156,27.9599704 C26.4254817,27.7784226 26.3402513,27.584716 26.5181393,27.3778969 C26.6979753,27.1686938 26.8985102,27.3163876 27.0684839,27.4020954 C27.9329632,27.8385015 28.8054786,28.2625103 29.6460935,28.7400418 C30.1047546,29.0005027 30.4031826,28.9263578 30.7534794,28.561951 C32.4919352,26.754102 34.2512116,24.965445 36.0031825,23.1701125 C36.087317,23.0839279 36.1696252,22.9958361 36.2575342,22.9134661 C36.4564862,22.7267925 36.6612826,22.4163851 36.9594671,22.6804222 C37.2102879,22.9026185 36.9862538,23.1479405 36.8296735,23.3594085 C36.4846123,23.8256157 36.1477088,24.2975446 35.8027694,24.7637517 C34.1843666,26.9504311 32.5645027,29.1357993 30.9450041,31.3217636 C30.7903719,31.5306091 30.647672,31.7542359 30.4798899,31.7733086" id="Fill-110" fill="#ECF4FD"></path>
            </g>
        </g>
    </g>
</svg>