<?xml version="1.0" encoding="UTF-8"?>
<svg width="60px" height="60px" viewBox="0 0 60 60" version="1.1" xmlns="http://www.w3.org/2000/svg" xmlns:xlink="http://www.w3.org/1999/xlink">
    <!-- Generator: Sketch 49 (51002) - http://www.bohemiancoding.com/sketch -->
    <title>Page 1</title>
    <desc>Created with Sketch.</desc>
    <defs>
        <polygon id="path-1" points="0.00044668008 0.106719368 24.2721972 0.106719368 24.2721972 14.9573515 0.00044668008 14.9573515"></polygon>
        <polygon id="path-3" points="0.0220442656 0.019920224 9.67122736 0.019920224 9.67122736 17.6014032 0.0220442656 17.6014032"></polygon>
    </defs>
    <g id="Page-1" stroke="none" stroke-width="1" fill="none" fill-rule="evenodd">
        <g id="Desktop-HD" transform="translate(-896.000000, -822.000000)">
            <g id="Page-1" transform="translate(896.000000, 822.000000)">
                <path d="M54.574334,33.2373439 C55.2642736,33.8109012 55.5467686,34.5342213 55.544837,35.4274625 C55.529505,42.5317708 55.5338511,49.6361976 55.5410946,56.7406245 C55.5415775,57.2878577 55.4376338,57.7948933 55.1674527,58.2707431 C54.9552193,59.070664 54.2976338,59.2358419 53.5942938,59.3355652 C48.2538109,59.3310593 42.9134487,59.3265534 37.5730865,59.3219289 C36.9040322,59.2139051 36.3019799,59.0161186 36.1087002,58.2695573 C35.7022213,57.6550909 35.7447163,56.9551304 35.7140523,56.2691621 C35.4165875,55.7441028 35.5944145,55.1770672 35.5620604,54.6286482 C35.5501087,54.3039842 35.5464869,53.979083 35.5624225,53.6546561 C35.5422616,52.667502 35.5454004,51.6796364 35.559163,50.6923636 C35.5659235,50.2076206 35.3726439,50.0091225 34.8812958,50.0350909 C34.440169,50.0584506 33.9967485,50.0400711 33.5542938,50.0419684 C33.2139718,50.0435099 33.0299879,50.1789249 33.02866,50.5335889 C33.0254004,51.3434704 33.0247968,52.1532332 33.0289014,52.9631146 C33.0305915,53.3084111 33.1953803,53.4624427 33.5434286,53.4692016 C33.8632274,53.4753676 34.1889416,53.4428775 34.5005312,53.5564743 C35.050672,54.0203478 35.0377545,54.2988854 34.4483783,54.7187668 C34.1557425,54.8113755 33.8528451,54.7932332 33.5526036,54.7933518 C28.5746559,54.7950119 23.5967082,54.7950119 18.6187606,54.7933518 C18.3185191,54.7932332 18.0156217,54.8114941 17.7216579,54.7239842 C17.1177948,54.3045771 17.1045151,54.0178577 17.6658833,53.5541028 C17.9539316,53.4465534 18.2577948,53.4635099 18.5562254,53.4671858 C18.9647565,53.4722846 19.1299074,53.2831542 19.1291831,52.892917 C19.1279759,52.2046957 19.134495,51.5163557 19.1285795,50.8281344 C19.1224225,50.1077787 19.0679759,50.0493202 18.3447163,50.0461186 C16.5828652,50.0384111 14.8210141,50.0462372 13.0590423,50.0414941 C12.7619396,50.040664 12.4532475,50.0764743 12.1932072,49.8772648 C10.6042334,49.8708617 9.01525956,49.8656443 7.42640644,49.857581 C5.82620523,49.8493992 4.834334,48.8756443 4.83373038,47.3047352 C4.83179879,41.7520079 4.83348893,36.1993992 4.83191952,30.6467905 C4.83179879,30.1728379 4.81719115,29.6988854 4.80934406,29.2249328 C4.65674849,28.9358419 4.63658753,28.6248142 4.63682897,28.3061976 C4.63912274,25.4904664 4.63731187,22.6746166 4.63888129,19.8588854 C4.63900201,19.5036285 4.65059155,19.1495573 4.77385111,18.809834 C4.97352918,18.2688854 5.25167807,17.7795178 5.73759356,17.4294783 C6.32214085,17.01517 6.99167807,16.9410593 7.6870503,16.9415336 C12.1676137,16.9447352 16.6480563,16.9434308 21.128499,16.9431937 C21.3093441,16.9431937 21.4901891,16.9449723 21.6710342,16.9424822 C22.4477746,16.9314545 22.4882173,16.8926798 22.508499,16.1425613 C22.5116378,16.0242213 22.5074125,15.9056443 22.5235895,15.7884901 C22.5200885,15.4807826 22.5169497,15.1724822 22.5280563,14.8650119 C22.58033,11.0052095 23.993167,7.71054545 26.8004909,5.00378656 C27.4184789,4.40793676 28.1183179,3.90647431 28.8421811,3.43963636 C28.9935694,3.34204743 29.1467686,3.24327273 29.3425835,3.26817391 C30.5707123,2.69627668 31.7879759,2.09651383 33.1351388,1.82781818 C37.715662,0.914418972 41.8887404,1.69465613 45.5262857,4.70366798 C45.5860443,4.75299605 45.6633078,4.78181028 45.7324829,4.82022925 C46.2075332,4.9803083 46.4647968,5.39627668 46.8127243,5.70623715 C47.3285795,6.36564427 47.9197666,6.97038735 48.3237103,7.71149407 C48.7383984,8.3604664 49.0498672,9.06173123 49.4028652,9.74295652 C50.0621408,11.3639051 50.4175533,13.0420079 50.3959437,14.7919684 C50.4140523,15.1061976 50.4052394,15.4201897 50.3993239,15.7343004 C50.4165875,16.3449723 50.4187606,16.9554071 50.3993239,17.5656047 C50.4051187,17.879834 50.414173,18.1943004 50.3961851,18.5081739 C50.3958229,20.5792411 50.3948571,22.650664 50.3975131,24.7222055 C50.3984789,25.4723241 50.4239517,25.4953281 51.1659235,25.4992411 C51.80866,25.5025613 52.4513964,25.4958024 53.0941328,25.5016126 C53.4945755,25.50517 53.9381167,25.4595178 54.1406922,25.9076206 C54.3480966,26.3665138 53.9947364,26.6450514 53.7147767,26.9218103 C52.0297062,28.586751 50.3349779,30.2423241 48.6489416,31.9064348 C48.4699074,32.0832332 48.2338913,32.2252885 48.1810141,32.505249 C48.3727243,32.6757628 48.6039115,32.6100711 48.8154205,32.6113755 C50.2213763,32.6192016 51.6276942,32.5958419 53.0332877,32.6245375 C53.6105915,32.6363953 54.2161449,32.6579763 54.574334,33.2373439" id="Fill-1" fill="#6C6CA9"></path>
                <g id="Group-5" transform="translate(5.070423, 0.011858)">
                    <mask id="mask-2" fill="white">
                        <use xlink:href="#path-1"></use>
                    </mask>
                    <g id="Clip-4"></g>
                    <path d="M24.2721972,3.25632806 C22.8294205,4.19711858 21.4986761,5.26016206 20.4417344,6.62462846 C18.5837867,9.02308696 17.6729215,11.7401621 17.6067646,14.7420593 C17.0655573,15.0728893 16.4834245,14.9424545 15.9133642,14.8707154 C15.6604467,14.8388182 15.5711107,14.6212292 15.5353763,14.3924941 C15.4956579,14.1376719 15.5044708,13.8805968 15.5043501,13.6242332 C15.5031429,11.0780277 15.5074889,8.53194071 15.5018149,5.98573518 C15.4997626,5.05170356 15.4239477,4.980083 14.4664829,4.97866008 C12.0551348,4.97533992 9.643666,4.97427273 7.23231791,4.97925296 C6.31070825,4.9811502 6.23730785,5.05360079 6.23525553,5.95917391 C6.22934004,8.64340316 6.24117103,11.327751 6.22861569,14.0119802 C6.22511469,14.7768024 6.05489336,14.9322569 5.31847485,14.9323755 C4.60185513,14.9324941 4.4182334,14.7762095 4.40555734,14.0702016 C4.38491348,12.9256957 4.3909497,11.780834 4.40447082,10.6360909 C4.40724748,10.3975138 4.41992354,10.1458933 4.58519517,9.96126877 C4.86322334,9.65047826 4.88265996,9.28573518 4.88024547,8.90676285 C4.87758954,8.49221739 4.88893763,8.07755336 4.87614085,7.66336364 C4.85525553,6.98462846 4.75976258,6.88751383 4.05002414,6.87873913 C2.98511469,6.86533992 1.91996378,6.88099209 0.855054326,6.8711502 C0.559762575,6.86842292 0.244551308,6.91798814 0.00044668008,6.68024111 C2.57453119,3.48079447 5.96314286,1.50387747 9.94909859,0.58929249 C13.5037062,-0.226280632 17.0491388,-0.012486166 20.5048732,1.26316601 C21.7303461,1.71553755 22.8786761,2.29111067 23.9775091,2.97826482 C24.0981127,3.05379842 24.222338,3.11379842 24.2721972,3.25632806" id="Fill-3" fill="#DEEBFD" mask="url(#mask-2)"></path>
                </g>
                <path d="M54.574334,33.2373439 C54.0561851,32.8990435 53.4881771,32.7703874 52.8652394,32.7773834 C51.3576338,32.7944585 49.849666,32.7862767 48.3418189,32.7792806 C48.1748571,32.7784506 47.9418592,32.8765138 47.8511952,32.6858419 C47.7421811,32.4568696 47.988338,32.3409012 48.1212555,32.2098735 C49.9659235,30.3913755 51.8168692,28.5788063 53.6615372,26.7603083 C53.8794447,26.5455652 54.2134889,26.3571462 54.0485795,25.9726008 C53.8880161,25.5981344 53.527171,25.6701107 53.2103903,25.6693992 C52.3660443,25.6676206 51.521336,25.6573043 50.6773521,25.6743794 C50.3526036,25.6810198 50.2183581,25.6061976 50.2216177,25.2515336 C50.2418994,23.0206245 50.2393642,20.7895968 50.2444346,18.5585692 C50.4689819,18.3393202 50.7599276,18.363747 51.0371107,18.3630356 C53.4023421,18.3573439 55.7676942,18.3568696 58.1329256,18.3635099 C58.4087807,18.3643399 58.7017787,18.3339842 58.9224628,18.5618893 C59.3993239,20.8556443 59.4794849,23.1543794 58.9102696,25.4404269 C58.2139316,28.2367115 56.980008,30.759083 54.8559839,32.8028775 C54.7289819,32.9251304 54.5748169,33.0343399 54.574334,33.2373439" id="Fill-6" fill="#DFEBFD"></path>
                <path d="M5.07084507,6.69205138 C6.47837022,6.69335573 7.88589537,6.69276285 9.29342052,6.69667589 C10.0642455,6.69881028 10.1442857,6.78181423 10.146338,7.56133992 C10.1479074,8.13406719 10.1458551,8.70679447 10.1439235,9.27964032 C10.1429577,9.58960079 10.212495,9.91805929 9.7871831,10.0594032 C9.60235412,10.1209447 9.66694165,10.3324862 9.66633803,10.4824862 C9.66162978,11.7465178 9.67647887,13.0107866 9.6532998,14.2743439 C9.64569416,14.6848577 9.81700201,14.7646601 10.1895573,14.7644229 C11.1087525,14.7639486 11.1077867,14.7797194 11.1079074,13.8909842 C11.1082696,11.1458063 11.1088732,8.40050988 11.1109256,5.65521344 C11.1115292,4.8816166 11.1928974,4.80015415 11.9703622,4.79967984 C14.6446479,4.79778261 17.3190543,4.80738735 19.99334,4.78995652 C20.5671429,4.78616206 20.7779276,5.00066798 20.7750302,5.55964032 C20.7600604,8.40359289 20.7861368,11.2479012 20.7552314,14.091498 C20.7490744,14.6594822 20.9348692,14.8187312 21.4714889,14.7666759 C21.8698793,14.7280198 22.2750302,14.7557668 22.677163,14.7538696 C22.6787324,15.0741462 22.6803018,15.3944229 22.6818712,15.7146996 C22.3712475,15.9736719 21.9943461,15.8958854 21.6411066,15.8962411 C15.2919718,15.9013399 8.94283702,15.8997984 2.59358149,15.899917 C2.41285714,15.899917 2.23201207,15.8986126 2.051167,15.9002727 C1.23977867,15.9079802 0.940865191,16.3487312 1.19788732,17.1265968 C1.30195171,17.4415375 1.55752515,17.4043043 1.78690141,17.4073874 C2.81148893,17.421498 3.83631791,17.4056087 4.86090543,17.417585 C5.15474849,17.4209051 5.47285714,17.3679012 5.70525151,17.6267549 C5.39861167,17.9364783 5.1582495,18.2920909 4.95519115,18.6734348 C3.71402414,18.8118142 2.47008048,18.7298775 1.22710262,18.7169526 C1.0831992,18.7155296 0.955955734,18.6499565 0.844768612,18.5592451 C0.0747887324,18.5301937 0.00513078471,18.4656877 0.00187122736,17.7418933 C-0.00162977867,16.9522885 0.00488933602,16.1625652 6.0362173e-05,15.3730791 C-0.00259557344,14.9579407 0.192977867,14.7280198 0.61889336,14.7603913 C1.2071831,14.8052134 1.41229376,14.7595613 1.40879276,13.9930791 C1.40348089,12.8588893 1.39177062,11.711419 1.45309859,10.5716561 C1.46710262,10.3090079 1.44018109,10.0936719 1.18690141,9.90513439 C0.904768612,9.69501581 0.862032193,7.14632016 1.08851107,6.87596443 C1.25185111,6.68090514 1.47156942,6.69169565 1.69454728,6.69205138 C2.81993964,6.69359289 3.94545272,6.69228854 5.07084507,6.69205138" id="Fill-8" fill="#D2D2E4"></path>
                <path d="M17.6453843,54.5924466 C23.2676378,54.5913794 28.8898913,54.5903123 34.5121449,54.5892451 C34.9178994,54.413751 35.3226881,54.3088103 35.7215614,54.606083 C35.7191469,55.1604308 35.7166117,55.7147787 35.7140765,56.2691265 C34.0420443,57.615332 32.2141569,58.7063597 30.1297304,59.2939091 C28.460837,59.7644229 26.7647807,59.9873478 24.992668,59.856083 C22.8731107,59.699087 20.8885231,59.1723676 19.0549618,58.1815375 C17.3870342,57.2802332 15.8549215,56.1658458 14.7288048,54.6057273 C14.8588249,54.459166 15.0390664,54.4182569 15.2184628,54.425253 C16.029006,54.4565573 16.8569336,54.2542648 17.6453843,54.5924466" id="Fill-10" fill="#DEEBFD"></path>
                <g id="Group-14" transform="translate(50.221328, 0.960474)">
                    <mask id="mask-4" fill="white">
                        <use xlink:href="#path-3"></use>
                    </mask>
                    <g id="Clip-13"></g>
                    <path d="M8.70115895,17.6014032 C5.8084829,17.600336 2.91580684,17.5991502 0.0231307847,17.598083 C0.0234929577,17.2778063 0.0239758551,16.9576482 0.0243380282,16.6373715 C0.295002012,16.4009289 0.629770624,16.4593874 0.944498994,16.4584387 C3.1734326,16.4520356 5.40248692,16.4577273 7.63142052,16.4539328 C8.43701408,16.4526285 8.74039437,15.9938538 8.4673159,15.2257115 C8.34804024,14.8901383 8.0607163,14.9456324 7.81468008,14.9429051 C6.63001207,14.9297431 5.44522334,14.9378063 4.26043461,14.9370949 C3.11584708,14.9362648 1.97113883,14.9416008 0.826551308,14.9336561 C0.549971831,14.9317589 0.257818913,14.9679249 0.0271146881,14.7551976 C0.0254245473,14.4350395 0.0237344064,14.115 0.0220442656,13.7948419 C0.25745674,13.5874506 0.550575453,13.6271739 0.824619718,13.6368972 C1.23846278,13.6514822 1.34433803,13.4682806 1.29061569,13.0929842 C1.18715493,12.3713241 1.04156137,11.6574901 0.909247485,10.941166 C0.891380282,10.8442885 0.869649899,10.7380435 0.791179074,10.6746047 C0.0938752515,10.1112451 0.341722334,9.34381423 0.345706237,8.63768775 C0.347637827,8.28788538 0.570857143,8.05926877 0.929046278,7.98017787 C1.1185835,7.93843874 1.34168209,7.96832016 1.44598793,7.74539526 C1.80562575,7.08492095 1.68997183,6.32982213 1.40276861,5.78579051 C1.08671227,5.18709486 1.01765795,4.84796443 1.40530382,4.26148221 C1.60860362,3.9537747 1.75142052,3.34322134 1.64397586,2.97041502 C1.41592757,2.17926877 1.61983099,1.78618577 2.35455936,1.44326087 C2.68787928,1.28780632 3.03532394,0.949743083 2.92763783,0.391007905 C2.85447887,0.0112055336 3.29113883,-0.0538932806 3.5240161,0.0912450593 C3.8552837,0.297806324 4.13282897,0.182075099 4.43101811,0.115671937 C4.86840241,0.018201581 5.29431791,0.0112055336 5.73532394,0.117806324 C6.04606841,0.19298419 6.35234608,0.35958498 6.70498189,0.116620553 C6.88449899,-0.00705533597 7.22977062,0.192391304 7.20719517,0.387094862 C7.13729577,0.988399209 7.63045473,1.25164032 7.89327163,1.64424901 C8.11793964,1.97982213 8.21367404,2.42863636 8.73484105,2.54211462 C8.95335211,2.58978261 9.03315091,2.9136166 8.87041449,3.09539526 C8.44437827,3.57124506 8.68630986,4.04235178 8.84035412,4.50337945 C8.90783903,4.70519763 8.91399598,4.85270751 8.84928773,5.05701581 C8.67797988,5.59832016 8.44715493,6.14579051 8.86317103,6.70298419 C9.05608853,6.96136364 8.9042173,7.21820158 8.64816097,7.34306324 C8.35769819,7.48476285 8.26015292,7.73496047 8.32172233,7.97258893 C8.39282897,8.24685771 8.69946881,8.10420949 8.88767807,8.09448617 C9.46486117,8.0648419 9.70172233,8.30839921 9.66526358,8.86618577 C9.64341247,9.20021739 9.65934809,9.53697628 9.66562575,9.87243083 C9.66912676,10.0578854 9.66007243,10.2806917 9.48369416,10.3424704 C9.00031388,10.511917 9.01902616,10.93583 8.95274849,11.2952372 C8.8214004,12.0075296 8.75536419,12.7314427 8.62630986,13.4442095 C8.57451911,13.7299802 8.67327163,13.8153557 8.92510262,13.7961462 C9.52836217,13.7501383 9.68783903,14.0681621 9.66997183,14.5963043 C9.64655131,15.2863043 9.66152113,15.9776087 9.66284909,16.6683202 C9.66453924,17.5488735 9.6251831,17.5882411 8.70115895,17.6014032" id="Fill-12" fill="#D2D2E4" mask="url(#mask-4)"></path>
                </g>
                <path d="M0.844744467,18.5592095 C2.02723944,18.5575494 3.20973441,18.5532806 4.39222938,18.5568379 C4.58442254,18.5574308 4.79870825,18.491502 4.955167,18.6733992 C4.69705835,20.0003953 4.85931187,21.3406719 4.83721932,22.6743083 C4.80112274,24.8574308 4.81597183,27.0413834 4.80945272,29.2249802 C4.14172636,28.638498 3.73983501,27.8579051 3.29701811,27.1227273 C2.22063984,25.335415 1.52611268,23.3886166 1.11915091,21.3579842 C0.935770624,20.4428063 0.930700201,19.4932411 0.844744467,18.5592095" id="Fill-15" fill="#DEEBFD"></path>
                <path d="M12.1932072,49.8773241 C14.4212958,49.8708024 16.649505,49.8699723 18.8774728,49.85183 C19.2121207,49.8491028 19.3336901,49.9395771 19.3262052,50.2822648 C19.3044748,51.2677589 19.3071308,52.2542016 19.320169,53.2399328 C19.3240322,53.5377984 19.2444748,53.6693004 18.9165875,53.6541225 C18.4963461,53.6345573 18.0739316,53.66017 17.6524829,53.666336 C17.2038712,53.9056245 16.7145755,53.8412372 16.2359034,53.8444387 C15.6537706,53.8481146 15.0713964,53.8557036 14.4893843,53.8382727 C14.269666,53.831751 14.0431871,53.8271265 13.8805714,53.6417905 C13.5113964,52.9147945 13.1306318,52.1933715 12.7771509,51.4591423 C12.5328048,50.9516324 12.2670905,50.4474427 12.1932072,49.8773241" id="Fill-17" fill="#DEEBFD"></path>
                <path d="M51.6672676,8.70590514 C51.7547928,8.87345455 52.0151952,9.06282213 51.5339879,9.07669565 C50.7428813,9.09946245 50.7117344,9.15768379 50.7076298,9.95203162 C50.7061811,10.2472885 50.7008692,10.5427826 50.7100443,10.8378024 C50.713666,10.9522292 50.7111308,11.1121897 50.7815131,11.1725455 C51.6933441,11.9546798 51.417006,13.0840079 51.6712515,14.0559842 C51.700829,14.1691067 51.6966036,14.2919526 51.734994,14.4011621 C51.8327807,14.6800553 51.6972072,14.7583162 51.4457384,14.7571304 C51.0449336,14.7551146 50.6441288,14.7558261 50.2433239,14.7553518 C50.2401851,13.0001739 49.8236861,11.3229012 49.2509698,9.67503557 C49.0617948,8.95562846 48.8957988,8.23633992 49.2670262,7.52096443 C50.0932636,7.86471937 50.9092394,8.22875099 51.6672676,8.70590514" id="Fill-19" fill="#DEEBFD"></path>
                <path d="M49.2670382,7.52096443 C49.2617264,8.23894862 49.2562938,8.95693281 49.2509819,9.67503557 C48.8985875,9.03341502 48.5463139,8.39179447 48.1940402,7.75017391 C48.1415252,7.32614229 48.0900966,6.90163636 48.1143622,6.47345455 C48.1369376,6.0753913 47.9465553,5.90155731 47.546837,5.92183399 C47.2465956,5.93713043 46.9539598,5.89989723 46.6842616,5.75511462 C46.3671187,5.44337549 46.0498551,5.13175494 45.7324708,4.82013439 C46.6954889,4.81313834 47.658507,4.81100395 48.6214044,4.79701186 C49.084503,4.79037154 49.2682455,5.01104348 49.2620885,5.45132016 C49.2524306,6.14096443 49.2642616,6.831083 49.2670382,7.52096443" id="Fill-21" fill="#D2D2E4"></path>
                <path d="M13.8805473,53.6417431 C15.1377706,53.6499249 16.394994,53.6581067 17.652338,53.6662885 C17.3000644,53.9724545 17.3248129,54.2813478 17.645336,54.5924941 C16.6731429,54.5968814 15.7009497,54.6012688 14.7287565,54.6056561 C14.0687565,54.6050632 13.4086358,54.6012688 12.7486358,54.6050632 C12.3885151,54.6071976 12.0786157,54.5119802 12.0945513,54.1018221 C12.1089175,53.7318617 12.4044507,53.6457747 12.740668,53.6511107 C13.1204668,53.6570395 13.5006278,53.6456561 13.8805473,53.6417431" id="Fill-23" fill="#D2D2E4"></path>
                <path d="M6.75628974,54.6004506 C6.15447887,54.6004506 5.55266801,54.5985534 4.95085714,54.6011621 C4.62852314,54.602585 4.37705433,54.4804506 4.36594769,54.1463004 C4.35351308,53.7723083 4.62043461,53.6513597 4.96775855,53.6520711 C6.17138028,53.6545613 7.37500201,53.6544427 8.57862374,53.651834 C8.90059557,53.6511225 9.15387525,53.7661423 9.1630503,54.104087 C9.17307042,54.4755889 8.90844266,54.6040079 8.56172233,54.6031779 C7.95991147,54.6018735 7.3581006,54.6028221 6.75628974,54.6028221 C6.75628974,54.6021107 6.75628974,54.6012806 6.75628974,54.6004506" id="Fill-25" fill="#D2D2E4"></path>
                <path d="M53.5942575,59.3355771 C54.2315614,59.1414664 54.7820644,58.8237984 55.1675372,58.2707549 C55.5119638,58.5153794 55.9040765,58.3701225 56.2730101,58.3888577 C56.622507,58.4065257 56.9583622,58.4458933 56.9709175,58.8571186 C56.9833521,59.2688182 56.6643984,59.3526522 56.3037948,59.3487391 C55.4006559,59.3388972 54.4975171,59.339253 53.5942575,59.3355771" id="Fill-27" fill="#D2D2E4"></path>
                <path d="M36.108664,58.2695336 C36.4747002,58.7841581 36.9923662,59.0954229 37.5730503,59.3220237 C36.8295091,59.3290198 36.0859678,59.337913 35.3423058,59.3421818 C35.0149014,59.3440791 34.7782817,59.2009565 34.7875775,58.860996 C34.7967525,58.5249486 35.0409779,58.4102846 35.3637948,58.3895336 C35.6135734,58.3735257 35.8914809,58.4887826 36.108664,58.2695336" id="Fill-29" fill="#D0D0E2"></path>
                <path d="M10.6318913,54.6026798 C10.5120121,54.6027984 10.3921328,54.6026798 10.2722535,54.6027984 C9.92661972,54.6031542 9.66307847,54.4710593 9.67853119,54.1012174 C9.69229376,53.7689644 9.94496982,53.6483715 10.265493,53.6528775 C10.5051308,53.6563162 10.7451308,53.6571462 10.9847686,53.6519289 C11.304326,53.6450514 11.5600201,53.7582925 11.5772837,54.0926798 C11.5962374,54.4606245 11.3398189,54.6012569 10.9915292,54.6025613 C10.8716499,54.602917 10.7517706,54.6025613 10.6318913,54.6026798" id="Fill-31" fill="#D2D2E4"></path>
                <path d="M33.550998,59.3431304 C33.1996901,59.3629328 32.8648008,59.2920237 32.855505,58.8853043 C32.8452435,58.4345929 33.2023461,58.3860949 33.5738149,58.3889407 C33.9217425,58.391668 34.2608571,58.4425375 34.2699115,58.851747 C34.2798109,59.3044743 33.9207767,59.3605613 33.550998,59.3431304" id="Fill-33" fill="#D3D3E4"></path>
                <path d="M42.4799276,21.4087826 C42.4796861,21.7638024 42.4794447,22.1187036 42.4792032,22.4737233 C42.3429054,22.778585 42.0367485,22.8604032 41.7686197,22.9845534 C37.954334,24.7495731 34.1084185,26.4473597 30.2889416,28.2019447 C27.7985191,29.3459763 25.2868491,30.4483874 22.7983581,31.5964506 C20.9458431,32.4511542 19.0805312,33.2801265 17.2262052,34.1298498 C14.7162254,35.2799289 12.2128853,36.4474387 9.67538028,37.5396522 C9.23304628,37.730087 8.80761368,37.9525375 8.36878068,38.1479526 C8.17731187,38.2332095 7.98717103,38.3945929 7.75429376,38.2392569 C7.74668813,34.4664901 7.73594366,30.6936047 7.7326841,26.9207194 C7.73123541,25.0837233 7.74391147,23.2466087 7.75006841,21.4096126 C8.07204024,21.122419 8.4715171,21.2085059 8.84371026,21.2081502 C14.6087807,21.2024585 20.3739718,21.2042372 26.139163,21.2042372 C31.2414567,21.2042372 36.3437505,21.2025771 41.4460443,21.2076759 C41.7994044,21.2080316 42.1775131,21.134751 42.4799276,21.4087826" id="Fill-35" fill="#C6E7FD"></path>
                <path d="M39.2397827,26.9710316 C41.0661006,28.7513478 42.89266,30.5315455 44.718495,32.3124545 C44.8176097,32.4090949 44.9464225,32.5102411 44.8863018,32.663917 C44.8072274,32.8656166 44.6086358,32.7776324 44.4654567,32.7781067 C42.3937062,32.7845099 40.3220765,32.783087 38.2504467,32.7824941 C36.7873883,32.7821383 35.7375694,33.8042727 35.7374487,35.2307549 C35.7370865,37.5618617 35.7259799,39.8932055 35.7460201,42.2240751 C35.7495211,42.6399249 35.6365231,42.7516245 35.2109698,42.7510316 C26.2405473,42.7379881 17.270004,42.7370395 8.29958149,42.7485415 C7.86654326,42.7490158 7.66614085,42.6713478 7.72215694,42.2048656 C7.7665835,41.8341937 7.74545674,41.4559328 7.75354527,41.0811107 C7.81233803,40.9213874 7.93282093,40.8223755 8.08734809,40.7595296 C9.10795171,40.3446285 10.1004266,39.86783 11.1164427,39.4411897 C12.3515734,38.9226522 13.5159598,38.2436798 14.767992,37.7559723 C16.6731429,37.013917 18.4374085,35.9747075 20.357167,35.2549447 C21.2112918,34.9347866 22.0031227,34.4355771 22.853505,34.0772372 C24.698173,33.2997273 26.470165,32.3636798 28.3172475,31.5973162 C29.8363219,30.9669605 31.2700443,30.1643123 32.7958793,29.5574348 C34.7681529,28.773166 36.6122173,27.7103597 38.614672,26.9933241 C38.8246117,26.9181462 39.0250141,26.8151028 39.2397827,26.9710316" id="Fill-37" fill="#DEF1FD"></path>
                <path d="M23.6866479,15.701585 C23.4805714,12.0213083 24.6191227,8.79897628 27.2314769,6.15198024 C29.2963461,4.05980632 31.8396459,2.84759289 34.8179155,2.52150593 C38.1011348,2.16209881 41.1514769,2.7611502 43.8605312,4.64379842 C46.9008531,6.75660474 48.6863662,9.64514229 49.1573119,13.3021779 C49.3350181,14.6830079 49.2414567,16.0639565 49.2524427,17.4444308 C49.2746559,20.2307549 49.2582374,23.0173162 49.2587203,25.8037589 C49.258841,26.5247075 49.3510744,26.6104387 50.1011348,26.6173162 C50.4629457,26.6206364 50.8248773,26.6305968 51.1866881,26.6374743 C51.2375131,26.900004 51.0302294,27.0293715 50.8813763,27.1766443 C49.5647565,28.4792134 48.2443944,29.7782253 46.917996,31.0711897 C46.4340121,31.5431265 46.3787203,31.5248656 45.9077746,31.0675138 C44.5533682,29.7521383 43.1967887,28.4388972 41.8736499,27.0930474 C41.7415775,26.9586996 41.5219799,26.8781858 41.5381569,26.6360514 C42.0931268,26.6253794 42.6479759,26.6147075 43.2029457,26.6040356 C43.8599276,26.3180277 44.5531268,26.4802411 45.2294245,26.4566443 C46.1117988,26.4260514 46.1903903,26.3734032 46.1911147,25.4983043 C46.1940121,21.923087 46.2792435,18.3452609 46.1680563,14.7733636 C46.0542133,11.1162095 44.2892233,8.35028063 41.0067284,6.56415415 C37.5771911,4.69810672 33.0809336,5.08170356 29.9265272,7.98755336 C27.9183984,9.83759289 26.8665272,12.161585 26.7328853,14.8734427 C26.7194849,15.1475929 26.76367,15.4289763 26.6264064,15.6886601 C26.5816177,15.7474743 26.5248773,15.7899249 26.4561851,15.818502 C25.6804105,15.9577115 24.8993239,15.8770791 24.1204105,15.8747075 C23.9580362,15.8742332 23.8041127,15.824668 23.6866479,15.701585" id="Fill-39" fill="#B0EFA7"></path>
                <path d="M54.5445755,35.2607312 C54.5533883,36.3663439 54.7290423,37.5055138 54.5084789,38.5651186 C54.3768893,39.1971344 54.4267485,39.6644466 54.500994,40.2778458 C54.6992233,41.9138538 54.5663058,43.5882806 54.5741529,45.2474111 C54.5751187,45.4506522 54.491336,45.5568972 54.3298068,45.6736957 C53.9970905,45.9142885 53.9873119,46.2216403 54.3292032,46.4468182 C54.5591831,46.5983597 54.5696861,46.7736166 54.5692032,46.9953557 C54.5655815,48.5753953 54.5256217,50.157332 54.5918994,51.7347628 C54.6125433,52.2269763 54.0603501,52.305 54.0910141,52.7291502 C54.11866,53.1102569 54.6275131,53.1808103 54.5934688,53.6630632 C54.518499,54.7245652 54.5735493,55.7947233 54.5667887,56.8612055 C54.5608732,57.791917 53.9676338,58.3901383 53.0296056,58.3909684 C48.123006,58.3951186 43.216165,58.3948814 38.3095654,58.389664 C37.2819598,58.3885968 36.7135895,57.8202569 36.7058632,56.8046443 C36.6977746,55.7578458 36.7073119,54.7109289 36.7005513,53.6641304 C36.6988612,53.4186759 36.7234889,53.231087 36.9689215,53.0679249 C37.2779759,52.8623123 37.2917384,52.527332 36.9701288,52.3371344 C36.6712153,52.160336 36.7044145,51.9316008 36.704173,51.6828261 C36.7024829,50.1421542 36.705501,48.6014822 36.7013964,47.0608103 C36.700672,46.7994664 36.7087606,46.5866206 36.9859437,46.412668 C37.2723018,46.2329051 37.2789416,45.9058696 36.9937907,45.719585 C36.7007928,45.5283202 36.7021207,45.2895059 36.7027243,45.0116798 C36.7064668,43.4710079 36.7074326,41.930336 36.7027243,40.3897826 C36.702,40.1466996 36.7134688,39.9540119 36.9638511,39.791087 C37.2779759,39.5866601 37.278338,39.2750395 36.9703702,39.057332 C36.7618793,38.9098221 36.6994648,38.7592292 36.7028451,38.5219565 C36.7181771,37.4360277 36.7174527,36.3498617 36.7224024,35.2638142 C36.9942736,34.7394664 37.4261046,34.533498 38.0134286,34.6374901 C38.153831,34.8554348 37.9380966,34.9939328 37.8871509,35.1685968 C37.8066278,35.4457115 37.8730262,35.6724308 38.1191831,35.8302569 C38.3250181,35.9621146 38.5380966,35.9430237 38.7238913,35.7876877 C38.9551992,35.5942885 38.9624427,35.3621146 38.8318189,35.1037352 C38.7369296,34.9159091 38.378499,34.7010474 38.8652596,34.5385968 C39.0838913,34.487253 39.3049376,34.4898617 39.5252596,34.4897431 C43.5545553,34.4877273 47.5838511,34.4879644 51.6130262,34.4896245 C51.8333481,34.4896245 52.0543944,34.4861858 52.2701288,34.5311265 C52.5088008,34.5875692 52.6123823,34.7099407 52.482,34.9516008 C52.4170503,35.0720751 52.3504105,35.1946838 52.3484789,35.3362648 C52.3452193,35.5735375 52.4501288,35.754249 52.667674,35.8558696 C52.8907726,35.9600988 53.09866,35.9125494 53.2661046,35.7393083 C53.4359638,35.5638142 53.4424829,35.3633004 53.3473521,35.1425099 C53.2755211,34.9756719 53.0226036,34.8805731 53.1362052,34.6391502 C53.784495,34.5136957 54.1839718,34.6902569 54.5445755,35.2607312" id="Fill-41" fill="#CDD6EC"></path>
                <path d="M26.5606479,15.705747 C26.4647928,12.6906877 27.4944507,10.0863794 29.6784748,7.98792095 C31.7603662,5.98764427 34.3258793,5.05811858 37.2359396,5.28792095 C41.8438672,5.65171542 45.6627404,9.11973913 46.2599638,13.6943241 C46.3268451,14.2062213 46.3607686,14.7108854 46.3610101,15.2215968 C46.3630624,18.7374071 46.3622173,22.2530988 46.3611308,25.7689091 C46.3608893,26.5347984 46.2775895,26.6169723 45.4951751,26.6161423 C44.7312314,26.6154308 43.967167,26.6084348 43.2031026,26.604166 C43.4248732,26.3993834 43.4695412,26.1459842 43.4689376,25.8539289 C43.4616942,22.1053518 43.475336,18.3566561 43.4608491,14.6080791 C43.4487767,11.4547589 40.9717545,8.69452174 37.7887364,8.22211067 C35.5781529,7.89400791 33.563505,8.26301976 31.8244708,9.7266166 C30.3417344,10.9744032 29.5868451,12.5687905 29.4637062,14.4653123 C29.4369054,14.8780791 29.4492193,15.293336 29.4435453,15.7074071 C28.8553763,16.0685929 28.2044306,15.849581 27.5833038,15.88883 C27.2388773,15.9106482 26.8617344,15.9753913 26.5606479,15.705747" id="Fill-43" fill="#91DF85"></path>
                <path d="M20.7654809,45.5890316 C25.5503903,45.5890316 30.3352998,45.5968577 35.1200885,45.5775296 C35.6206117,45.5755138 35.7810543,45.6956324 35.7485795,46.1949605 C35.7025835,46.9029842 35.709827,47.6175296 35.7478551,48.3263834 C35.7726036,48.788004 35.6323219,48.9231818 35.1517183,48.9204545 C31.5732072,48.9002964 27.9944547,48.9095455 24.4159437,48.909664 C18.8267686,48.909664 13.2377143,48.9103755 7.64865996,48.9094269 C6.2891831,48.9091897 5.81256338,48.4368972 5.80061167,47.0885573 C5.78721127,45.5795455 5.78721127,45.5882016 7.31558149,45.5897431 C11.7988008,45.5943676 16.2821408,45.5914032 20.7654809,45.5914032 L20.7654809,45.5890316 Z" id="Fill-45" fill="#ECF4FD"></path>
                <path d="M24.6696821,18.0793281 C30.4036056,18.0792095 36.1375292,18.0781423 41.8714527,18.0827668 C42.1436861,18.083004 42.4785755,17.9595652 42.510326,18.4628063 C42.5429215,18.9803953 42.3038873,19.034585 41.8716942,19.0336364 C37.24433,19.0229644 32.6169658,19.0272332 27.9896016,19.0273518 C21.2295211,19.0275889 14.4695614,19.0273518 7.70960161,19.0283004 C6.80622133,19.028419 6.76420926,19.0706324 6.76420926,19.9778656 C6.76372636,27.5858893 6.76396781,35.193913 6.76469215,42.8019368 C6.76481288,43.6427668 6.8204668,43.6926877 7.70863581,43.6926877 C16.8224789,43.6922134 25.9364427,43.6905534 35.0502857,43.7000395 C35.2997022,43.7003953 35.6836056,43.5077075 35.740829,44.0160474 C35.7963622,44.5082609 35.6184145,44.6511462 35.1113722,44.6499605 C28.0697626,44.634664 21.0280322,44.64 13.9864225,44.64 C11.4716137,44.64 8.95656338,44.6281423 6.44187525,44.6491304 C5.95946076,44.6532806 5.78561771,44.547747 5.78670423,44.0349012 C5.80288129,35.9328854 5.79732797,27.830751 5.79925956,19.7287352 C5.79962173,18.6218182 6.37028571,18.0802767 7.52827364,18.0800395 C13.2420362,18.0786166 18.9559195,18.0794466 24.6696821,18.0793281" id="Fill-47" fill="#929EC4"></path>
                <path d="M42.4799276,21.4087826 C30.9033078,21.4090198 19.3266881,21.4093755 7.75006841,21.4096126 C7.67147686,19.9710356 7.67147686,19.9763715 9.09143662,19.9766087 C19.8735694,19.9782688 30.6557022,19.9780316 41.4377143,19.977083 C42.5039517,19.9769644 42.5043139,19.9730514 42.4948974,20.9943557 C42.4935694,21.1326166 42.4851187,21.2706403 42.4799276,21.4087826" id="Fill-49" fill="#93C0E9"></path>
                <path d="M7.75434205,38.2393162 C9.5877827,37.4014506 11.4208612,36.5628735 13.2547847,35.7260751 C14.1267767,35.3281304 14.982833,34.8893953 15.8769175,34.5469447 C17.781827,33.8173399 19.5941408,32.8868656 21.4460523,32.04983 C23.6965956,31.0326759 25.9530543,30.021332 28.1929738,28.9780909 C31.8137384,27.2916877 35.4809819,25.7015692 39.1231147,24.0590395 C40.2510423,23.5503439 41.3609819,23.0032292 42.4791308,22.4737826 C42.4790101,22.9465494 42.4790101,23.4193162 42.4788893,23.8922016 C42.3999356,24.1065889 42.1905996,24.1421621 42.0139799,24.2314506 C40.9467767,24.7709763 39.8630342,25.2744545 38.7518873,25.7206601 C37.5558712,26.3238617 36.3307606,26.8693162 35.1095131,27.4179723 C33.2291107,28.2629526 31.3715252,29.1578538 29.4751871,29.9665494 C27.6154286,30.7595929 25.8010624,31.6473794 23.9547042,32.4682885 C22.0536579,33.3136245 20.1598551,34.1799486 18.2693119,35.0506601 C15.8515654,36.164336 13.4384064,37.2896324 10.992169,38.3414111 C10.1623099,38.6982095 9.37929175,39.143585 8.54544869,39.4869842 C8.29144467,39.5915692 8.05108249,39.7683676 7.74854728,39.6540593 C7.75047887,39.1824783 7.75241046,38.7108972 7.75434205,38.2393162" id="Fill-51" fill="#DDF0FC"></path>
                <path d="M7.74860765,39.6540356 C10.0555292,38.5512688 12.4307807,37.5944704 14.7226117,36.4550632 C15.626837,36.0055375 16.5887686,35.6474348 17.5124306,35.2191344 C19.5374608,34.280004 21.568165,33.3529684 23.6018873,32.4322174 C24.6754889,31.9460514 25.7847042,31.5303202 26.8344024,30.9999249 C28.5265956,30.1448656 30.2862736,29.4360119 32.0114245,28.6563676 C34.2506197,27.6441937 36.4346439,26.505498 38.7542414,25.6673953 C38.8088089,25.6111897 38.8583058,25.6152213 38.9027324,25.6793715 C38.5422495,26.0011897 38.5614447,26.3116245 38.9205996,26.6245494 C39.0384266,26.7273557 39.1340402,26.8548261 39.2397948,26.9710316 C38.1228531,27.2864466 37.0864346,27.7969209 36.0300966,28.2575929 C35.262169,28.5924545 34.5519477,29.0826522 33.7805191,29.3605968 C32.6492113,29.7682648 31.5543622,30.2509921 30.4974205,30.7883834 C28.688004,31.7084229 26.7731952,32.3935613 24.9690905,33.3342332 C23.8176217,33.9347075 22.5443421,34.3542332 21.3635372,34.9312292 C19.5216459,35.8311107 17.6230141,36.6087391 15.7768974,37.5029289 C14.3476419,38.1951818 12.8807203,38.8306364 11.4251469,39.4780672 C10.2064346,40.0202016 8.98325553,40.5597273 7.75343662,41.0811107 C7.7518672,40.6053794 7.75029779,40.1297668 7.74860765,39.6540356" id="Fill-53" fill="#C6E7FC"></path>
                <path d="M5.70525151,17.6267194 C4.31897384,17.6196047 2.93245473,17.5964822 1.54653924,17.6148617 C1.10613682,17.6206719 0.953903421,17.5087352 0.95945674,17.0539921 C0.975875252,15.7178656 0.955593561,15.7108696 2.30468813,15.7106324 C9.09712274,15.7099209 15.8894366,15.7128854 22.6818712,15.714664 C22.7492354,17.1301186 22.7492354,17.1314229 21.3344668,17.1310672 C16.8322938,17.1301186 12.3301207,17.1367589 7.82806841,17.1183794 C7.06448692,17.1152964 6.352334,17.2119368 5.70525151,17.6267194" id="Fill-55" fill="#FDFCEF"></path>
                <path d="M36.6994527,9.08640711 C37.0310825,9.05984585 37.3621087,9.03790909 37.6728531,9.19360079 C37.8795332,9.42458893 37.8421087,9.70917391 37.8444024,9.9813083 C37.8505594,10.7487391 37.8459718,11.51617 37.8466962,12.2836008 C37.8469376,12.5303597 37.8335372,12.7698854 38.2184064,12.7202016 C38.4731348,12.6872372 38.7792918,12.6556957 38.9160724,12.9291344 C39.0670986,13.2310316 38.8179235,13.4406759 38.6362334,13.6480672 C38.5840805,13.7075929 38.5330141,13.7685415 38.4755493,13.8224941 C38.4454889,13.8468024 38.4122897,13.8677905 38.3775211,13.8860514 C38.1695131,13.9945494 37.7993722,13.9576719 37.872169,14.3329684 C37.9414648,14.6895296 38.2688692,14.5711897 38.5083863,14.5920593 C38.6259718,14.6022569 38.7459718,14.5934822 38.8659718,14.5882648 C39.3707203,14.5790158 39.4392918,14.2497273 39.4281851,13.8580672 C39.3978833,12.7926522 39.4164748,11.727 39.4185272,10.6614664 C39.4190101,10.3914664 39.3751871,10.1015455 39.609996,9.88300791 C39.9981247,10.0244704 40.3130946,10.2637589 40.5730141,10.5768024 C40.8303984,11.0374743 40.7198149,11.5397668 40.7373199,12.02617 C40.7483058,12.3303202 40.7457706,12.6194111 41.1153078,12.7448656 C41.3479437,12.8238379 41.3343018,12.9918617 41.2226318,13.1716245 C41.1282254,13.3236403 40.9897545,13.4429289 40.8967968,13.5950632 C40.5331751,14.1902016 40.7434769,14.5666838 41.4378833,14.592415 C41.7902777,14.6054585 42.1654889,14.5049051 42.4814245,14.7542727 C42.4808209,15.0744308 42.4802173,15.3945889 42.4796137,15.714747 C42.2497545,15.9279486 41.9578431,15.8984229 41.6802978,15.8988972 C38.2027123,15.903996 34.7251268,15.903996 31.2475412,15.8987787 C30.9704789,15.8983043 30.6780845,15.9294901 30.4482254,15.7155771 C30.2991308,13.9825731 30.6063742,12.383087 31.8598551,11.0605968 C32.0903179,11.2571976 32.0415453,11.5283834 32.0454085,11.7779881 C32.0565151,12.4881462 32.0414245,13.1986601 32.0537384,13.9088182 C32.0579638,14.1527312 31.9860121,14.4782253 32.3374406,14.5424941 C32.7265352,14.6136403 33.1432757,14.6838379 33.5087082,14.463166 C33.6457304,14.3803992 33.651163,14.1811897 33.6042012,14.024668 C33.5432354,13.8214269 33.3815855,13.9222174 33.2524105,13.9363281 C33.0115654,13.9627708 32.728829,14.0186206 32.5973602,13.775419 C32.4447646,13.4933241 32.6802978,13.2407549 32.8796137,13.1282253 C33.7130946,12.65783 33.6712032,11.9098458 33.6388491,11.1325731 C33.6184467,10.6422569 33.5874205,10.1464862 33.6815855,9.65711858 C34.0190101,9.46478656 34.3767163,9.33198024 34.7687082,9.30020158 C34.9669376,9.48281028 34.9596942,9.72743478 34.9602978,9.96138735 C34.9625915,10.8677905 34.9856499,11.7743123 34.9500362,12.6795296 C34.9763541,13.1315455 34.9397746,13.5843913 34.948829,14.03783 C34.9569175,14.4496482 35.1454889,14.6079486 35.5432757,14.5799644 C35.642994,14.5729684 35.7447646,14.5714269 35.8441207,14.580913 C36.3271388,14.6270395 36.5371992,14.4326917 36.5277827,13.9397668 C36.5153481,13.2903202 36.5192113,12.6395692 36.5266962,11.988581 C36.4941006,11.2417826 36.5143823,10.4956957 36.5164346,9.7496087 C36.5170382,9.51553755 36.5114849,9.27352174 36.6994527,9.08640711" id="Fill-57" fill="#D3D3E4"></path>
                <path d="M31.8602414,51.2903123 C31.8647082,51.9410632 31.8580684,52.59217 31.8784708,53.2423281 C31.8878873,53.5425652 31.7958954,53.6579407 31.4718712,53.6571107 C27.8771831,53.6482174 24.2823742,53.6484545 20.6876861,53.657585 C20.3637827,53.658415 20.2711871,53.5418538 20.2804829,53.2424466 C20.3005231,52.59217 20.2949698,51.9410632 20.2997988,51.2903123 C20.5239839,51.0729605 20.8131187,51.0901542 21.0912676,51.0897984 C24.4171026,51.0848182 27.7429376,51.0848182 31.0687726,51.0897984 C31.3469215,51.0901542 31.6360563,51.0729605 31.8602414,51.2903123" id="Fill-59" fill="#CDD7EC"></path>
                <path d="M30.4482254,15.7155415 C34.4586881,15.7153043 38.4691509,15.7149486 42.4796137,15.7147115 C42.5367163,17.1212727 42.5367163,17.1273202 41.1396942,17.1289802 C37.8002173,17.1330119 34.4606197,17.1138024 31.121505,17.1468854 C30.5187284,17.1529328 30.3332958,16.9819447 30.4231147,16.4251067 C30.4605392,16.19317 30.4415855,15.9523399 30.4482254,15.7155415" id="Fill-61" fill="#FDFCEF"></path>
                <path d="M52.5464306,34.7018656 C48.4695694,34.6940395 44.392829,34.6859763 40.3159678,34.6789802 C39.7536338,34.677913 39.1912998,34.682419 38.6289658,34.6843162 C38.4442575,34.847004 38.253996,34.8389407 38.0596298,34.7019842 C37.5195091,34.6724585 37.1100121,34.9430514 36.7224869,35.2638024 C36.730334,34.3177945 37.289167,33.7348696 38.2328692,33.7338024 C43.1475573,33.7282292 48.0622455,33.728585 52.9769336,33.7340395 C53.9677183,33.7351067 54.4326278,34.2028933 54.5445392,35.2607194 C54.1372153,34.9039209 53.6819638,34.6614308 53.1157666,34.6844348 C52.9309376,34.847004 52.7407968,34.8390593 52.5464306,34.7018656" id="Fill-63" fill="#EBF3FC"></path>
                <path d="M50.2484427,15.7156601 C52.9605151,15.7130514 55.6725875,15.7185059 58.3845392,15.6992964 C58.8145594,15.696332 58.9262294,15.8376759 58.9249014,16.2434466 C58.9204346,17.5958182 58.9354044,17.6013913 57.5381408,17.6026957 C55.1072354,17.6050672 52.6764507,17.5998498 50.245666,17.597834 C50.2466318,16.9704427 50.2474769,16.3430514 50.2484427,15.7156601" id="Fill-65" fill="#FDFCEF"></path>
                <path d="M31.8602414,51.2903123 C28.0067203,51.2903123 24.1531992,51.2903123 20.2997988,51.2903123 C20.2426962,49.8565968 20.2426962,49.8574269 21.7107042,49.857664 C24.8249095,49.8582569 27.9392354,49.8577826 31.0534406,49.8579012 C31.8702616,49.8579012 31.8713481,49.8580198 31.8721932,50.6395613 C31.8724346,50.8564387 31.8644668,51.0734348 31.8602414,51.2903123" id="Fill-67" fill="#9DB2D0"></path>
                <path d="M41.538169,26.636004 C42.2555131,27.3194822 42.9796177,27.9964387 43.6886318,28.688336 C44.538169,29.5173083 45.3834809,30.350668 46.211167,31.2005099 C46.4294366,31.4246206 46.524326,31.2538696 46.6413078,31.1382569 C48.1586922,29.6400356 49.6722133,28.1382569 51.1867002,26.6374269 C51.5471831,26.6374269 51.907666,26.6374269 52.276841,26.6374269 C52.3446881,26.838415 52.149839,26.8997194 52.0532596,26.9950553 C50.2831992,28.7428814 48.5068612,30.4846601 46.7328169,32.2286917 C46.5339839,32.4241067 46.392495,32.6406285 46.0706439,32.3192846 C44.2259759,30.4775455 42.3588531,28.6575059 40.5009054,26.8286917 C40.4631187,26.7914585 40.4434406,26.7363202 40.3833199,26.636004 L41.538169,26.636004 Z" id="Fill-69" fill="#D6F5D1"></path>
                <path d="M34.5066398,53.6694901 C34.0843461,53.6624941 33.6609658,53.6343913 33.2401207,53.6550237 C32.9105433,53.6712688 32.8309859,53.5411897 32.8352113,53.2426126 C32.8492153,52.2548656 32.8540443,51.2664071 32.8330382,50.2787787 C32.825674,49.9300435 32.9579879,49.8421779 33.288169,49.8519012 C33.9715895,49.8719407 34.6564588,49.8732451 35.3397586,49.8523755 C35.6688531,49.8422964 35.7484105,49.970004 35.7430986,50.2676324 C35.7232998,51.3934032 35.7232998,52.5195296 35.7159356,53.6455375 C35.318994,53.9519407 34.9132394,53.8302806 34.5066398,53.6694901" id="Fill-71" fill="#DEEBFD"></path>
                <path d="M39.6100563,9.88303162 C39.6063139,11.2364704 39.6016056,12.5900277 39.5990704,13.9434664 C39.597501,14.7611739 39.5989497,14.7611739 38.7564145,14.7496719 C38.5520282,14.4237036 38.9638189,14.3046522 38.9981046,14.0425968 C38.842008,13.8625968 38.5346439,14.0250474 38.3884467,13.8086443 C38.43734,13.7046522 38.4756097,13.5940198 38.5374205,13.4980909 C38.6472797,13.3276957 38.9610423,13.2181304 38.8189497,12.977419 C38.6790302,12.7406206 38.3810825,12.8784071 38.1552072,12.8794743 C38.0309819,12.8800672 37.9073602,12.9703043 37.6727928,13.0645731 C37.6727928,11.7458775 37.6727928,10.469751 37.6727928,9.19362451 C38.3850664,9.24342688 39.0271992,9.48295257 39.6100563,9.88303162" id="Fill-73" fill="#F4F9FD"></path>
                <path d="M33.6815614,9.65713043 C33.8855855,9.82859289 33.7915412,10.0599368 33.8015614,10.2668538 C33.8149618,10.541834 33.8124266,10.8178814 33.8057867,11.093336 C33.7862294,11.8921897 34.0636539,12.7885138 33.0170946,13.2421897 C32.8606358,13.3100158 32.5375775,13.5318735 32.6942777,13.7178024 C32.8587042,13.9130988 33.2042173,13.8816759 33.442165,13.6729802 C33.5281207,13.5975652 33.603332,13.4469723 33.7244185,13.5463399 C33.7944386,13.6038498 33.7957666,13.7578814 33.8037344,13.8701739 C33.8672354,14.7602134 33.8654245,14.760332 32.9760483,14.7604506 C31.8710584,14.7605692 31.8752837,14.7605692 31.8762495,13.6581581 C31.8769738,12.7923083 31.8657465,11.9264585 31.859831,11.0606087 C32.3417626,10.4357075 32.9614406,9.98357312 33.6815614,9.65713043" id="Fill-75" fill="#F5F5EF"></path>
                <path d="M34.7762535,12.7435138 C34.7737183,11.5958063 34.7713038,10.4479802 34.7687686,9.30027273 C35.3924306,9.05564822 36.0424105,9.04035178 36.6993924,9.08635968 C36.6987887,10.068415 36.6981851,11.0503518 36.6975815,12.0322885 C35.986998,12.888415 35.5219678,13.0604704 34.7762535,12.7435138" id="Fill-77" fill="#FDDEDB"></path>
                <path d="M42.4813883,14.754249 C42.1020724,14.7554348 41.7210664,14.778913 41.344165,14.7502174 C41.0895573,14.7308893 40.6941851,14.9278458 40.6099195,14.5813636 C40.5186519,14.2061858 40.4300402,13.7663834 40.7826761,13.4170553 C40.9316499,13.269664 41.1312072,13.1568972 41.2131791,12.8799012 C40.5162374,12.9936166 40.5390543,12.5654348 40.5605433,12.1063043 C40.5844467,11.5973715 40.5704427,11.0867787 40.5729779,10.5768972 C41.8809054,11.6731423 42.4574849,13.091917 42.4813883,14.754249" id="Fill-79" fill="#F3F2EF"></path>
                <path d="M26.5606479,15.705747 C27.5216137,15.7063399 28.4827002,15.7068142 29.443666,15.7074071 C29.508495,17.1317549 29.508495,17.1330593 28.0554567,17.1302134 C27.5575895,17.1292648 27.0596016,17.1198972 26.5616137,17.1143241 C26.284672,16.644996 26.2973481,16.1754308 26.5606479,15.705747 Z" id="Fill-81" fill="#7BD46D"></path>
                <path d="M26.5606841,15.705747 C26.5610463,16.1753123 26.5612877,16.6448775 26.5616499,17.1144427 C25.7637827,17.1197787 24.9653119,17.1082767 24.1684105,17.1380395 C23.7773843,17.1526245 23.6217706,17.0303715 23.6605231,16.6408458 C23.6915493,16.3299368 23.6794769,16.0148775 23.6865996,15.7015968 C24.644668,15.7030198 25.6026157,15.7043241 26.5606841,15.705747" id="Fill-83" fill="#91DF85"></path>
                <path d="M38.9027324,25.6793834 C38.8532354,25.6753518 38.8038592,25.6714387 38.7543622,25.6674071 C39.9669175,25.0171304 41.214,24.4366957 42.478829,23.8921897 C42.57734,25.6752332 42.57734,25.6735731 40.8136781,25.6693043 C40.1767364,25.6677628 39.539674,25.6757075 38.9027324,25.6793834" id="Fill-85" fill="#C6E7FC"></path>
                <path d="M46.6843099,5.75507905 C48.345839,5.71322134 48.3459598,5.71322134 48.2915131,7.36286561 C48.2869256,7.49851779 48.3160201,7.64282609 48.1940885,7.75013834 C47.7750543,7.0236166 47.1843501,6.42243083 46.6843099,5.75507905" id="Fill-87" fill="#ECF0F6"></path>
                <path d="M34.5066398,53.6694901 C34.9097384,53.6615455 35.312837,53.6534822 35.7159356,53.6455375 C35.7178672,53.9656957 35.7196781,54.2858538 35.7216097,54.6060119 C35.3185111,54.6004387 34.9154125,54.5949842 34.5121932,54.5892925 C34.8430986,54.2807549 34.8488934,53.9741146 34.5066398,53.6694901" id="Fill-89" fill="#CDCDDE"></path>
                <path d="M5.52324748,14.7562055 C4.639666,14.7562055 3.75596378,14.7458893 2.87274447,14.7615415 C2.53930382,14.7673518 2.4088008,14.6605138 2.41266398,14.3220949 C2.42715091,13.0401581 2.42715091,11.7579842 2.41628571,10.4760474 C2.41362978,10.1602767 2.49511871,10.011581 2.85222133,10.013834 C4.65934406,10.0255731 6.46670825,10.0223715 8.27383099,10.0131225 C8.58204024,10.0114625 8.70240241,10.1162846 8.6998672,10.4250593 C8.68912274,11.7266798 8.6864668,13.0285375 8.70059155,14.3301581 C8.704334,14.6758103 8.56043058,14.7687747 8.23399195,14.7635573 C7.33061167,14.7492095 6.42686922,14.7585771 5.52324748,14.7585771 L5.52324748,14.7562055 Z" id="Fill-91" fill="#EDEBFA"></path>
                <path d="M15.7666841,13.7530909 C16.0767042,13.8507984 16.3288974,13.8371621 16.5615332,13.6208775 C16.8169859,13.3833676 16.8787968,13.5302846 16.9065634,13.7937628 C17.0031429,14.7115494 16.9641489,14.7683478 16.0262414,14.7577945 C14.8292596,14.7442767 14.9800443,14.9343557 14.9764225,13.7251067 C14.9711107,11.9102846 14.974008,10.0953439 14.9730423,8.28052174 C14.9728008,7.97056126 14.9255976,7.70316996 15.3839879,7.5741581 C15.710668,7.48226087 16.0029416,7.15913834 16.1115936,6.75372332 C15.8015734,6.65613439 15.5493803,6.66977075 15.3167445,6.88605534 C15.0609296,7.12380237 14.9994809,6.97617391 14.971835,6.71293281 C14.8752555,5.79514625 14.9141288,5.7384664 15.8522777,5.74913834 C17.0490181,5.76265613 16.8983541,5.57174704 16.9018551,6.78170751 C16.9072877,8.59652964 16.9043903,10.4113518 16.9053561,12.2262925 C16.9054769,12.5361344 16.9529215,12.8036443 16.4944105,12.9325375 C16.1677304,13.0244348 15.8755775,13.3476759 15.7666841,13.7530909" id="Fill-93" fill="#FBDDDB"></path>
                <path d="M17.8725272,12.8603004 C17.8716821,11.3587589 17.8855654,9.85709881 17.8617827,8.35591304 C17.8538149,7.85575494 17.9078994,7.42781028 18.3514406,7.10196047 C18.5787646,6.93500395 18.719167,6.69607115 18.2366318,6.70069565 C17.7618229,6.70532016 17.8938954,6.37247431 17.8709577,6.11871937 C17.8399316,5.775083 18.0568732,5.72990514 18.3292274,5.74626877 C18.4093883,5.75113043 18.490998,5.73927273 18.5704346,5.74840316 C18.9621851,5.79298814 19.5339356,5.56152569 19.7086237,5.86816601 C19.9469336,6.28638735 19.8887445,6.86966798 19.7101932,7.3563083 C19.5886237,7.6878498 19.8281408,7.92666403 19.820173,8.235083 C19.7799718,9.77516206 19.7995292,11.316664 19.7982012,12.8576917 C19.156672,13.1491542 18.5147807,13.1453597 17.8725272,12.8603004" id="Fill-95" fill="#FCF8EE"></path>
                <path d="M5.53843461,9.06796838 C4.53497384,9.06796838 3.53042656,9.042 2.52841449,9.07899605 C2.03477264,9.09725692 1.87336419,8.92437154 1.93505433,8.47069565 C1.95340443,8.33516206 1.94591952,8.19429249 1.93420926,8.05721739 C1.90837425,7.75294862 2.03911871,7.64006324 2.35239839,7.64124901 C4.47980282,7.64943083 6.60720724,7.65014229 8.73449095,7.63947036 C9.07758954,7.63781028 9.21123139,7.76219763 9.18020523,8.09053755 C9.16547686,8.24694071 9.16052716,8.40749407 9.17863581,8.56306719 C9.22342455,8.94844269 9.06624145,9.08053755 8.66905835,9.07211858 C7.626,9.04994466 6.58209658,9.06464822 5.53843461,9.06464822 L5.53843461,9.06796838 Z" id="Fill-97" fill="#EDEBFA"></path>
                <path d="M14.0057867,7.64681028 L14.0002334,10.7268498 C13.577336,11.4185099 12.9283219,11.9025415 12.3523461,12.4530949 C12.2822052,12.5200909 12.1845392,12.5536482 12.0815614,12.5020672 C12.0811992,10.8850316 12.0807163,9.26799605 12.0803541,7.65096047 C12.7216419,7.43728458 13.3632918,7.34325296 14.0057867,7.64681028" id="Fill-99" fill="#F4F9FD"></path>
                <path d="M12.0816097,12.5021146 C12.7212072,11.910415 13.3608048,11.3185968 14.0002817,10.7268972 C14.0007646,10.9262253 14.0013682,11.1255534 14.0019718,11.3248814 C13.7298592,11.871166 13.2033803,12.1977273 12.8018511,12.6674111 C13.1938431,12.8162253 13.6449899,12.5769368 13.9991952,12.8586759 C14.0136821,13.061917 13.8667606,13.1740909 13.7432596,13.3009684 C13.5253521,13.5247233 13.1674044,13.7398221 13.8464789,13.8477273 C14.1432193,13.8948024 13.981328,14.2487549 14.0019718,14.4651581 C14.0239437,14.6957905 13.8684507,14.7681225 13.6587525,14.760415 C13.638833,14.7597036 13.6187928,14.7597036 13.5988732,14.7611265 C12.0719517,14.8690316 12.0719517,14.8690316 12.0777465,13.3832609 C12.0789537,13.0895455 12.0802817,12.79583 12.0816097,12.5021146" id="Fill-101" fill="#EAEEF5"></path>
                <path d="M14.0057867,7.64681028 C13.3638954,7.64811462 12.7221247,7.64953755 12.0802334,7.65096047 C12.0795091,7.33198814 12.078664,7.01301581 12.0778189,6.69404348 C12.7191066,6.48558498 13.3605151,6.32953755 14.0031308,6.68989328 C14.0039759,7.00886561 14.0049416,7.32783794 14.0057867,7.64681028" id="Fill-103" fill="#E0E3ED"></path>
                <path d="M17.8725392,12.8603004 C18.5144306,12.8594704 19.1563219,12.8586403 19.7982133,12.8576917 C19.7988169,13.1761897 19.7995412,13.4945692 19.8002656,13.8130672 C19.1590986,14.0925534 18.5174487,14.0918419 17.8755573,13.8157945 C17.8744708,13.4972964 17.873505,13.1787984 17.8725392,12.8603004" id="Fill-105" fill="#E5E2E5"></path>
                <path d="M17.8754849,13.8157826 C18.5170141,13.814834 19.158664,13.8138854 19.8001932,13.8130553 C19.7954849,14.9070474 19.904499,14.7404466 18.8661489,14.7596561 C18.8463501,14.7600119 18.8265513,14.7600119 18.8067525,14.7596561 C17.7477586,14.7436482 17.8850221,14.9008814 17.8754849,13.8157826" id="Fill-107" fill="#FDF9EE"></path>
                <path d="M14.0031549,6.68989328 C13.3613843,6.69131621 12.7196137,6.69262055 12.0778431,6.69404348 C12.0838793,5.6036087 11.9719678,5.76605929 13.0116459,5.74720553 C13.0314447,5.7468498 13.0512435,5.7468498 13.0710423,5.74708696 C14.1381247,5.76214625 13.9903581,5.61214625 14.0031549,6.68989328" id="Fill-109" fill="#F4F9FD"></path>
                <path d="M13.9991831,12.8587233 L12.3695252,12.8587233 C12.9847364,12.2806601 13.4934688,11.8026759 14.0020805,11.3248103 C14.0011147,11.8362332 14.0001489,12.347419 13.9991831,12.8587233" id="Fill-111" fill="#F4F9FD"></path>
                <path d="M55.2486519,9.0683834 C54.6655533,9.0683834 54.0824547,9.06779051 53.4993561,9.06862055 C53.1714688,9.06909486 53.0191147,8.96533992 53.2460765,8.64897628 C53.4549296,8.35786957 53.3663179,8.12557708 53.0998793,7.93988538 C52.5631388,7.5657747 52.7000402,7.03075494 52.7666801,6.53071542 C52.7856338,6.38913439 52.9432998,6.22419368 52.8499799,6.09221739 C52.4818913,5.57201976 52.6608048,5.03676285 52.7583501,4.49972727 C52.7618511,4.48039921 52.7523139,4.45217787 52.7628169,4.44174308 C53.1785915,4.02707905 53.1698994,3.35996443 53.4616901,2.98786957 C53.8934004,2.43731621 54.7489738,1.83494466 55.3930382,2.02692095 C56.1467203,2.25150593 57.1525956,2.47395652 57.4733602,3.45755336 C57.5403622,3.66292885 57.6429779,3.86308696 57.5296177,4.08506324 C57.5030584,4.13688142 57.4616499,4.22723715 57.4827767,4.24988538 C57.9686922,4.77281028 57.7306237,5.42059684 57.8439839,6.00387747 C57.9397183,6.49632806 57.937666,6.88526087 57.66,7.2653004 C57.504507,7.47790909 57.4382294,7.64154545 57.5513481,7.90549802 C57.8581087,8.62111067 57.5431388,9.06257312 56.7567404,9.0653004 C56.2540443,9.06707905 55.7513481,9.06565613 55.2486519,9.06565613 L55.2486519,9.0683834 Z" id="Fill-113" fill="#E8F9E6"></path>
                <path d="M55.2349497,14.7590158 C54.5725352,14.7583043 53.91,14.7491739 53.2479477,14.762336 C52.9466197,14.7683834 52.7865392,14.7176324 52.7403018,14.3615455 C52.629839,13.5094506 52.455996,12.6651818 52.3038833,11.8185415 C52.2594567,11.571664 52.3393763,11.4400435 52.6105231,11.4420593 C53.0319718,11.4451423 53.4535412,11.4460909 53.8749899,11.4379091 C54.1085915,11.4334032 54.1720926,11.4988577 54.0319316,11.703996 C53.9639638,11.8034822 54.0158753,11.8995296 54.1035211,11.958581 C54.2290744,12.0433636 54.3471429,11.9792134 54.4159557,11.880083 C54.8575654,11.2441542 55.526499,11.4797668 56.122998,11.4438379 C56.2347887,11.4370791 56.3858149,11.4035217 56.4368813,11.5452213 C56.4844467,11.6774348 56.3538229,11.7510711 56.2774044,11.8362095 C56.2244064,11.8952609 56.1574044,11.9432846 56.1102012,12.0060119 C56.0360765,12.1044308 55.8412274,12.1920593 56.005171,12.3375534 C56.1174447,12.4371581 56.2796982,12.3975534 56.3917304,12.2993715 C56.5862173,12.1289763 56.7665795,11.9432846 56.9552716,11.7664862 C57.0845674,11.6453004 57.1945473,11.5011107 57.3819115,11.4511897 C58.0410664,11.2753399 58.2959155,11.4916245 58.1937827,12.159332 C58.0815091,12.893917 57.9296378,13.6238775 57.8494769,14.3615455 C57.8106036,14.720004 57.6430382,14.7688577 57.3424346,14.7636403 C56.6400604,14.7514269 55.9374447,14.7597273 55.2349497,14.7590158" id="Fill-115" fill="#ECEAF9"></path>
                <path d="M38.6477264,50.5605889 C38.6424145,46.6924862 38.6393964,42.8243834 38.6269618,38.9562806 C38.625996,38.6578221 38.7132797,38.4326443 38.9310664,38.2227628 C39.7196378,37.4624466 40.5003622,36.6939486 41.2708249,35.9159644 C41.4843863,35.7003913 41.7125553,35.6146601 42.0160563,35.6157273 C44.4270423,35.6240277 46.8382696,35.6241462 49.2493763,35.6158458 C49.5526358,35.6148972 49.7815292,35.6987312 49.9949698,35.9144229 C50.7513078,36.6785336 51.5158551,37.4349368 52.2924748,38.1790079 C52.5412877,38.4173478 52.647163,38.6703913 52.645835,39.0135534 C52.6313481,42.8224862 52.6294165,46.6313004 52.6241046,50.4402332 C52.479839,54.0296798 48.9225755,56.7257668 45.4822938,56.6679012 C42.3152113,56.6146601 38.897505,54.0913399 38.6477264,50.5605889" id="Fill-119" fill="#6C6DA9"></path>
                <path d="M38.6477264,50.5605889 C38.9064386,51.4213399 39.1173441,52.2886126 39.5928773,53.0829605 C41.9186318,56.9674269 47.2685312,57.6710632 50.5157746,54.5083755 C51.6350101,53.4181779 52.3463179,52.1392055 52.5402012,50.5936719 C52.5469618,50.5399565 52.5953722,50.4913399 52.6242254,50.4403518 C52.7502616,54.2120514 49.7288934,57.2278221 46.0949698,57.4450553 C41.6290141,57.7120909 38.5854326,54.0664387 38.6477264,50.5605889" id="Fill-121" fill="#9DB2D1"></path>
                <path d="M52.8816459,56.0154308 C53.3134769,56.0885929 53.6032153,56.313415 53.5916258,56.7496601 C53.5801569,57.1804506 53.3017666,57.4283953 52.8599155,57.4383557 C52.4568169,57.4474862 52.106837,57.051083 52.1605594,56.6508854 C52.2148853,56.2468933 52.4779437,56.0446008 52.8816459,56.0154308" id="Fill-123" fill="#6E6EAA"></path>
                <path d="M38.4180362,56.0223913 C38.7910744,56.0616403 39.0880563,56.276502 39.1044748,56.7094269 C39.1208934,57.141996 38.8524024,57.4012055 38.414173,57.4383202 C38.013006,57.4722332 37.6575936,57.0983597 37.6679759,56.6909289 C37.6770302,56.3362648 37.9993642,56.0253557 38.4180362,56.0223913" id="Fill-125" fill="#6E6EAA"></path>
                <path d="M38.0596419,34.7020316 C38.2494205,34.6961028 38.4391992,34.6902925 38.6289779,34.6843636 C38.735336,34.7713992 38.8622173,34.8430198 38.9440684,34.9484348 C39.1979517,35.2758261 39.1835855,35.6148379 38.8814125,35.8969328 C38.5783944,36.1798577 38.221171,36.1862609 37.9174286,35.903336 C37.6282938,35.6339289 37.5540483,35.3012016 37.8152958,34.9579209 C37.886161,34.8649565 37.97767,34.7869328 38.0596419,34.7020316" id="Fill-127" fill="#6E6EAA"></path>
                <path d="M52.5464306,34.7018656 C52.7362093,34.6960553 52.9259879,34.6902451 53.1157666,34.6844348 C53.2221247,34.7715889 53.3488853,34.8432095 53.4308571,34.9486245 C53.6851026,35.2758972 53.6703742,35.6149091 53.3683219,35.897004 C53.0651831,36.1799289 52.7079598,36.1862134 52.404338,35.9034071 C52.1150825,35.6338814 52.0409577,35.3011542 52.302326,34.9579921 C52.3731911,34.8649091 52.4644588,34.7867668 52.5464306,34.7018656" id="Fill-129" fill="#6E6EAA"></path>
                <path d="M34.7762535,12.7435138 C35.5921087,12.9635929 36.09734,12.3737905 36.6977022,12.0322885 C36.6995131,12.7773083 36.6836982,13.5229209 36.7103783,14.2671107 C36.724503,14.6603123 36.5711831,14.7615771 36.189332,14.7672688 C34.7746841,14.7882569 34.7748048,14.8008261 34.7750463,13.3904704 C34.775167,13.1747787 34.7758913,12.9592055 34.7762535,12.7435138" id="Fill-131" fill="#FDDEDB"></path>
                <path d="M38.3884225,13.8086206 C38.688664,13.8573557 39.1242374,13.6551818 39.2622254,13.9218617 C39.3953843,14.1791739 38.9118833,14.321585 38.7952636,14.5818617 C38.7722052,14.6334427 38.7689457,14.6936798 38.7565111,14.7497668 C38.6380805,14.7529684 38.517839,14.7708735 38.4017022,14.7564071 C38.0950624,14.7184625 37.674338,14.9405573 37.6550221,14.321585 C37.6355855,13.7029684 38.0217827,13.8074348 38.3884225,13.8086206" id="Fill-133" fill="#F4F9FD"></path>
                <path d="M5.57709054,11.9112569 C5.17652716,11.9110198 4.77548089,11.922166 4.37552113,11.9073439 C4.07709054,11.8961976 3.87234205,11.7327984 3.87874044,11.4293597 C3.88501811,11.1276996 4.09254326,10.9693992 4.39242254,10.9664348 C5.17350905,10.9588458 5.9547163,10.9562372 6.73568209,10.9680949 C7.03483702,10.9727194 7.23729175,11.1439447 7.23173843,11.4464348 C7.22618511,11.7488063 7.01890141,11.9020079 6.71865996,11.9093597 C6.33837827,11.9184901 5.95761368,11.9114941 5.57709054,11.9112569" id="Fill-135" fill="#D2D2E4"></path>
                <path d="M54.3291187,5.04227668 C53.9687565,4.9475336 53.6967646,4.71998419 53.6245714,4.35037945 C53.5727807,4.0847668 53.7729416,3.87441107 54.0380523,3.87026087 C54.4505674,3.86397628 54.6980523,4.1592332 54.790165,4.50927273 C54.8665835,4.79978656 54.6413119,4.97089328 54.3291187,5.04227668" id="Fill-137" fill="#D0D0E1"></path>
                <path d="M54.8251751,7.37121344 C54.7526197,7.69326877 54.6009899,7.90220158 54.3277907,7.86295257 C53.9464225,7.80828854 53.6667042,7.55180632 53.6256579,7.17164822 C53.5940282,6.87923715 53.8221972,6.67149012 54.1207485,6.71322925 C54.514672,6.76824901 54.6887565,7.08971146 54.8251751,7.37121344" id="Fill-139" fill="#D0D0E1"></path>
                <path d="M56.9791147,3.43979051 C56.8482495,3.7316087 56.6564185,4.0206996 56.2914688,4.07026482 C55.9909859,4.11093676 55.7681288,3.90342688 55.7960161,3.60840711 C55.8300604,3.24888142 56.0960161,2.98184585 56.4467203,2.93062055 C56.7278873,2.88959289 56.908008,3.12449407 56.9791147,3.43979051" id="Fill-141" fill="#D4D4E5"></path>
                <path d="M56.9790181,5.81616996 C56.8407887,6.1040751 56.6543903,6.39873913 56.2852153,6.44201976 C55.9841288,6.47723715 55.7651348,6.26925296 55.7954366,5.97399605 C55.832499,5.61375889 56.1026801,5.35039921 56.4520563,5.30261265 C56.7312918,5.26431225 56.9109296,5.50229644 56.9790181,5.81616996" id="Fill-143" fill="#D4D4E5"></path>
                <path d="M56.982338,8.17862846 C56.8431429,8.47542688 56.6549336,8.76819368 56.2870865,8.81349012 C55.9864829,8.85048617 55.7664024,8.64321344 55.7951348,8.34771937 C55.8303863,7.9865336 56.1015332,7.72471542 56.4500644,7.674083 C56.7320765,7.63317391 56.904833,7.87696838 56.982338,8.17862846" id="Fill-145" fill="#D4D4E5"></path>
                <path d="M45.5117988,36.5979368 L46.0001288,36.5991225 C46.1617787,37.0022846 45.7458833,37.1142213 45.6256419,37.3271858 C46.5607726,37.6500711 47.24033,37.1145771 47.9262857,36.5979368 L48.4146157,36.5991225 C48.5990825,36.9695573 48.1664064,37.0755652 48.0734487,37.3830356 C48.6543742,37.323747 49.2712757,37.6047747 49.7421006,37.0532727 C50.3307525,37.6178182 50.9157827,38.1863953 51.5105915,38.7446561 C51.6785191,38.9023636 51.6788813,39.0881739 51.6786398,39.287502 C51.6736901,42.8237075 51.704837,46.3605059 51.6558229,49.8961186 C51.6156217,52.7929565 49.1145755,55.3066719 46.1557425,55.5312569 C43.0559034,55.7666324 40.2437505,53.6669881 39.7129256,50.7317312 C39.6421811,50.3404269 39.6030664,49.9513755 39.6040322,49.5552095 C39.6111549,46.2563953 39.6157425,42.957581 39.6210543,39.6587668 C40.5354205,38.6926008 41.6737304,37.9628775 42.5626237,36.9697945 C42.7107525,36.804498 42.8905111,36.6822451 43.0973119,36.5979368 C43.260169,36.5982925 43.4229054,36.5987668 43.5856419,36.5991225 C43.7472918,37.0022846 43.3313964,37.1142213 43.2111549,37.3271858 C44.1462857,37.6500711 44.8258431,37.1145771 45.5117988,36.5979368" id="Fill-147" fill="#ECF4FD"></path>
                <path d="M43.0973119,36.5979368 C42.0449577,37.7348538 40.9200483,38.792087 39.6210543,39.6587668 C39.502503,39.1271858 39.6822616,38.7248538 40.1099879,38.3754071 C40.5239517,38.0369881 40.9400885,37.6773439 41.260008,37.2571067 C41.7450785,36.6197549 42.3577545,36.4749723 43.0973119,36.5979368" id="Fill-149" fill="#FDFDFD"></path>
                <path d="M47.9262857,36.5979368 C47.3365473,37.5974229 46.4016579,37.6449723 45.367171,37.4807431 C45.4662857,37.104498 45.954495,36.9984901 46.0002495,36.5991225 C46.6422616,36.5987668 47.2842736,36.5982925 47.9262857,36.5979368" id="Fill-151" fill="#FDFDFD"></path>
                <path d="M45.5117988,36.5979368 C44.9220604,37.5974229 43.987171,37.6449723 42.9526841,37.4807431 C43.0517988,37.104498 43.540008,36.9984901 43.5857626,36.5991225 C44.2277746,36.5987668 44.8697867,36.5982925 45.5117988,36.5979368" id="Fill-153" fill="#FDFDFD"></path>
                <path d="M49.7420644,37.0532134 C49.6301529,37.4778379 49.4097103,37.6583123 48.9204145,37.5472055 C48.5656056,37.4666917 48.1767525,37.5315534 47.7667726,37.5315534 C47.8832716,37.1053874 48.3676177,36.9978379 48.4147002,36.5990632 C48.9312797,36.5415534 49.4443581,36.4935296 49.7420644,37.0532134" id="Fill-155" fill="#FDFDFD"></path>
                <path d="M36.1109698,12.8672016 C36.2555976,12.8887826 36.4535855,12.7951067 36.5359195,12.9798498 C36.6294809,13.1894941 36.3871871,13.2165296 36.297006,13.3277549 C36.0048531,13.6883478 35.6485956,13.8918261 35.1589376,13.809415 C34.9628813,13.776332 34.8001449,13.6489802 34.9768853,13.5196126 C35.3249336,13.2645534 35.534994,12.7475573 36.1109698,12.8672016" id="Fill-157" fill="#D3D3E4"></path>
                <path d="M45.6653602,46.0612055 C47.6206117,46.0519565 49.2476137,47.658913 49.2625835,49.6140119 C49.2771911,51.5278458 47.6149376,53.1755929 45.6677746,53.1774901 C43.6775131,53.1795059 42.0164668,51.5897431 42.0127243,49.6792292 C42.0086197,47.6555929 43.6084588,46.0709289 45.6653602,46.0612055" id="Fill-159" fill="#6D6DA9"></path>
                <path d="M45.5763018,43.217336 C44.6315131,43.217336 43.6866036,43.205834 42.7421771,43.2220791 C42.2429819,43.2306166 41.994169,43.0553597 42.0075694,42.5333834 C42.028334,41.7244506 42.0237465,40.9144506 42.0098632,40.1051621 C42.0017746,39.6365455 42.1921569,39.4156364 42.6853159,39.4181265 C44.6551751,39.4278498 46.6251549,39.4273755 48.5950141,39.4203794 C49.0455573,39.4188379 49.267328,39.6008538 49.2639477,40.0526324 C49.25767,40.9016443 49.2571871,41.7506561 49.2653964,42.5995494 C49.2697425,43.0577312 49.0371066,43.2295494 48.5913924,43.2250435 C47.5864829,43.2149644 46.581332,43.2218419 45.5763018,43.2218419 L45.5763018,43.217336 Z" id="Fill-161" fill="#6C6CA9"></path>
                <path d="M48.0454527,48.6761028 C48.6671831,49.917249 48.0151509,51.4631383 46.6287525,52.034917 C45.2388531,52.6083557 43.6209054,51.8805296 43.1180885,50.4465771 C42.9075453,49.8458656 42.8984909,49.2483557 43.2290342,48.6758656 C44.2662978,46.9298182 47.2879074,47.2055099 48.0454527,48.6761028" id="Fill-163" fill="#CDD7EC"></path>
                <path d="M48.0454527,48.6761028 C47.640664,48.3659051 47.2711268,48.0198972 46.7701207,47.8323083 C45.3817907,47.3127036 44.2489135,47.7461028 43.2290342,48.6758656 C43.5421932,47.6754308 44.5316499,47.0085534 45.6982093,47.0118735 C46.7487525,47.0148379 47.7490744,47.7240474 48.0454527,48.6761028" id="Fill-165" fill="#9BB0CE"></path>
                <path d="M45.6541207,40.3717352 C46.3965755,40.3717352 47.1392716,40.3831186 47.8812435,40.3661621 C48.1851066,40.3592846 48.290499,40.440747 48.3019678,40.7597194 C48.355328,42.2613794 48.3665553,42.2631581 46.8552072,42.2681383 C45.7114648,42.2719328 44.5676016,42.2590079 43.4241006,42.2759644 C43.0927123,42.2808261 42.9830946,42.1958063 42.9759718,41.8506285 C42.9455493,40.3808656 42.9323903,40.3808656 44.4502575,40.3763597 C44.8515453,40.3751739 45.252833,40.3762411 45.6541207,40.3762411 L45.6541207,40.3717352 Z" id="Fill-167" fill="#FDFDFD"></path>
            </g>
        </g>
    </g>
</svg>